0
SECTION
2
HEADER
9
$INSUNITS
70
6
9
$MEASUREMENT
70
1
0
ENDSEC
0
SECTION
2
TABLES
0
ENDSEC
0
SECTION
2
ENTITIES
0
LWPOLYLINE
8
OUTER
62
7
370
25
90
1042
70
1
10
401.956000000000
20
-31.215000000000
10
404.036000000000
20
-31.215000000000
10
404.046000000000
20
-31.213000000000
10
404.056000000000
20
-31.215000000000
10
406.136000000000
20
-31.215000000000
10
406.146000000000
20
-31.213000000000
10
406.156000000000
20
-31.215000000000
10
408.236000000000
20
-31.215000000000
10
408.246000000000
20
-31.213000000000
10
408.256000000000
20
-31.215000000000
10
410.336000000000
20
-31.215000000000
10
410.346000000000
20
-31.213000000000
10
410.356000000000
20
-31.215000000000
10
412.436000000000
20
-31.215000000000
10
412.446000000000
20
-31.214000000000
10
412.456000000000
20
-31.215000000000
10
414.536000000000
20
-31.215000000000
10
414.546000000000
20
-31.214000000000
10
414.556000000000
20
-31.215000000000
10
416.636000000000
20
-31.215000000000
10
416.646000000000
20
-31.214000000000
10
416.656000000000
20
-31.215000000000
10
418.736000000000
20
-31.215000000000
10
418.746000000000
20
-31.214000000000
10
418.756000000000
20
-31.215000000000
10
420.836000000000
20
-31.215000000000
10
420.846000000000
20
-31.214000000000
10
420.856000000000
20
-31.215000000000
10
422.936000000000
20
-31.215000000000
10
422.946000000000
20
-31.214000000000
10
422.956000000000
20
-31.215000000000
10
425.036000000000
20
-31.215000000000
10
425.046000000000
20
-31.214000000000
10
425.056000000000
20
-31.215000000000
10
427.136000000000
20
-31.216000000000
10
427.156000000000
20
-31.216000000000
10
429.236000000000
20
-31.216000000000
10
429.256000000000
20
-31.216000000000
10
431.336000000000
20
-31.216000000000
10
431.356000000000
20
-31.216000000000
10
433.436000000000
20
-31.216000000000
10
433.456000000000
20
-31.216000000000
10
435.536000000000
20
-31.216000000000
10
435.556000000000
20
-31.216000000000
10
437.636000000000
20
-31.216000000000
10
437.656000000000
20
-31.216000000000
10
439.736000000000
20
-31.216000000000
10
439.756000000000
20
-31.216000000000
10
441.836000000000
20
-31.216000000000
10
441.856000000000
20
-31.216000000000
10
443.936000000000
20
-31.216000000000
10
443.956000000000
20
-31.216000000000
10
446.036000000000
20
-31.216000000000
10
446.056000000000
20
-31.216000000000
10
448.136000000000
20
-31.216000000000
10
448.146000000000
20
-31.215000000000
10
448.156000000000
20
-31.216000000000
10
450.236000000000
20
-31.216000000000
10
450.246000000000
20
-31.215000000000
10
450.256000000000
20
-31.216000000000
10
452.336000000000
20
-31.216000000000
10
452.346000000000
20
-31.215000000000
10
452.356000000000
20
-31.216000000000
10
454.436000000000
20
-31.216000000000
10
454.446000000000
20
-31.215000000000
10
454.456000000000
20
-31.216000000000
10
456.536000000000
20
-31.216000000000
10
456.546000000000
20
-31.215000000000
10
456.556000000000
20
-31.216000000000
10
458.636000000000
20
-31.216000000000
10
458.646000000000
20
-31.215000000000
10
458.656000000000
20
-31.216000000000
10
460.736000000000
20
-31.216000000000
10
460.746000000000
20
-31.215000000000
10
460.756000000000
20
-31.216000000000
10
462.035645738198
20
-31.216998942809
10
462.047000000000
20
-31.215000000000
10
462.057000000000
20
-31.217000000000
10
462.073000000000
20
-31.217000000000
10
462.225000000000
20
-31.213000000000
10
462.377000000000
20
-31.201000000000
10
462.528000000000
20
-31.182000000000
10
462.678000000000
20
-31.155000000000
10
462.827000000000
20
-31.121000000000
10
462.973000000000
20
-31.079000000000
10
463.117000000000
20
-31.030000000000
10
463.259000000000
20
-30.973000000000
10
463.397000000000
20
-30.910000000000
10
463.532000000000
20
-30.839000000000
10
463.664000000000
20
-30.762000000000
10
463.791000000000
20
-30.678000000000
10
463.914000000000
20
-30.588000000000
10
464.032000000000
20
-30.492000000000
10
464.145000000000
20
-30.390000000000
10
464.253000000000
20
-30.283000000000
10
464.356000000000
20
-30.170000000000
10
464.452000000000
20
-30.052000000000
10
464.542000000000
20
-29.929000000000
10
464.627000000000
20
-29.802000000000
10
464.704000000000
20
-29.671000000000
10
464.775000000000
20
-29.536000000000
10
464.839000000000
20
-29.398000000000
10
464.896000000000
20
-29.256000000000
10
464.945000000000
20
-29.112000000000
10
464.987000000000
20
-28.966000000000
10
465.022000000000
20
-28.818000000000
10
465.049000000000
20
-28.668000000000
10
465.069000000000
20
-28.516000000000
10
465.081000000000
20
-28.365000000000
10
465.085000000000
20
-28.212000000000
10
465.083000000000
20
-28.188000000000
10
465.082331636980
20
-28.185772123268
10
465.080000000000
20
-28.178000000000
10
465.080763823284
20
-28.170361767158
10
465.081000000000
20
-28.168000000000
10
464.873000000000
20
-26.124000000000
10
464.872351993215
20
-26.121839977382
10
464.870000000000
20
-26.114000000000
10
464.870770491803
20
-26.106295081967
10
464.871000000000
20
-26.104000000000
10
464.660000000000
20
-24.034000000000
10
464.658000000000
20
-24.014000000000
10
464.618400888382
20
-23.625703497922
10
464.447000000000
20
-21.945000000000
10
464.445000000000
20
-21.925000000000
10
464.285865874375
20
-20.357149971820
10
464.235000000000
20
-19.856000000000
10
464.232000000000
20
-19.846000000000
10
464.232923312031
20
-19.836766879689
10
464.168329261513
20
-19.201858967160
10
464.022000000000
20
-17.767000000000
10
464.019000000000
20
-17.757000000000
10
464.020000000000
20
-17.747000000000
10
463.809000000000
20
-15.678000000000
10
463.807000000000
20
-15.658000000000
10
463.636000000000
20
-13.975000000000
10
463.633000000000
20
-13.965000000000
10
463.634000000000
20
-13.955000000000
10
463.633000000000
20
-13.940000000000
10
463.632323529412
20
-13.935687500000
10
463.625000000000
20
-13.889000000000
10
463.609000000000
20
-13.752000000000
10
463.607906976744
20
-13.745441860465
10
463.604000000000
20
-13.715000000000
10
463.578000000000
20
-13.566000000000
10
463.572000000000
20
-13.529000000000
10
463.542980392157
20
-13.395509803924
10
463.540000000000
20
-13.381000000000
10
463.538832298136
20
-13.376428571428
10
463.532000000000
20
-13.345000000000
10
463.494014388490
20
-13.200971223023
10
463.493000000000
20
-13.197000000000
10
463.484000000000
20
-13.163000000000
10
463.460006996292
20
-13.086412339424
10
463.447776523702
20
-13.045417607224
10
463.439000000000
20
-13.016000000000
10
463.420546218488
20
-12.961848739496
10
463.403000000000
20
-12.908000000000
10
463.393250000000
20
-12.881749999999
10
463.378000000000
20
-12.837000000000
10
463.351921259843
20
-12.770480314962
10
463.338000000000
20
-12.733000000000
10
463.327869387755
20
-12.709130612245
10
463.309000000000
20
-12.661000000000
10
463.275445528455
20
-12.585611382112
10
463.265000000000
20
-12.561000000000
10
463.254370030582
20
-12.538259938840
10
463.232000000000
20
-12.488000000000
10
463.208671597632
20
-12.440499999998
10
463.186000000000
20
-12.392000000000
10
463.166114421931
20
-12.353847437426
10
463.149000000000
20
-12.319000000000
10
463.127696887686
20
-12.280139377538
10
463.100000000000
20
-12.227000000000
10
463.096859941234
20
-12.223887365328
10
463.093300143885
20
-12.217393669065
10
463.070000000000
20
-12.174000000000
10
463.067910430417
20
-12.171078367575
10
463.062611486487
20
-12.161412162162
10
463.058000000000
20
-12.153000000000
10
463.041465909090
20
-12.125386363636
10
462.989000000000
20
-12.036000000000
10
462.970172279793
20
-12.006318652851
10
462.961000000000
20
-11.991000000000
10
462.945996047430
20
-11.968205533596
10
462.904000000000
20
-11.902000000000
10
462.873827586207
20
-11.858564986738
10
462.857000000000
20
-11.833000000000
10
462.835087378640
20
-11.802796116504
10
462.813000000000
20
-11.771000000000
10
462.780465753425
20
-11.727506849315
10
462.746000000000
20
-11.680000000000
10
462.723397727273
20
-11.651215909092
10
462.718000000000
20
-11.644000000000
10
462.686571428569
20
-11.604317460314
10
462.629000000000
20
-11.531000000000
10
462.622738916256
20
-11.523720853859
10
462.619000000000
20
-11.519000000000
10
462.516966983772
20
-11.400750233166
10
462.515000000000
20
-11.398000000000
10
462.506000000000
20
-11.388000000000
10
462.482000000000
20
-11.361000000000
10
462.475000000000
20
-11.353000000000
10
462.423499999999
20
-11.299104651162
10
462.377000000000
20
-11.249000000000
10
462.356022556391
20
-11.228488721804
10
462.346000000000
20
-11.218000000000
10
462.255695652177
20
-11.130391304351
10
462.240341793570
20
-11.115495769881
10
462.212000000000
20
-11.088000000000
10
462.128666666666
20
-11.014190476190
10
462.102000000000
20
-10.990000000000
10
462.090846153847
20
-10.980692307693
10
462.072000000000
20
-10.964000000000
10
462.007796178343
20
-10.911388535031
10
461.957000000000
20
-10.869000000000
10
461.943796502385
20
-10.858944356121
10
461.928000000000
20
-10.846000000000
10
461.866757396449
20
-10.800272189349
10
461.806000000000
20
-10.754000000000
10
461.786015267176
20
-10.739984732825
10
461.774012047022
20
-10.731566890119
10
461.769987645349
20
-10.728017441860
10
461.729000000000
20
-10.699000000000
10
461.722556323913
20
-10.695481058328
10
461.717931991104
20
-10.692955674184
10
461.719000000000
20
-10.691000000000
10
461.673040697674
20
-10.660755813953
10
461.652000000000
20
-10.646000000000
10
461.607764705883
20
-10.617800000000
10
461.564000000000
20
-10.589000000000
10
461.531197707736
20
-10.568988538682
10
461.492000000000
20
-10.544000000000
10
461.452519830028
20
-10.520990084985
10
461.405000000000
20
-10.492000000000
10
461.357525000001
20
-10.465625000000
10
461.329000000000
20
-10.449000000000
10
461.304500000000
20
-10.436166666666
10
461.243000000000
20
-10.402000000000
10
461.170159574468
20
-10.365797872340
10
461.161000000000
20
-10.361000000000
10
461.149044596913
20
-10.355303602058
10
461.076000000000
20
-10.319000000000
10
461.019959687906
20
-10.293798439532
10
460.991000000000
20
-10.280000000000
10
460.959253481894
20
-10.266498607242
10
460.907000000000
20
-10.243000000000
10
460.843680000000
20
-10.217346666667
10
460.817000000000
20
-10.206000000000
10
460.746200000000
20
-10.179600000000
10
460.667000000000
20
-10.149000000000
10
460.640000000000
20
-10.140000000000
10
460.488000000000
20
-10.089000000000
10
460.460000000000
20
-10.081000000000
10
460.307000000000
20
-10.037000000000
10
460.300056603774
20
-10.035301886792
10
460.278000000000
20
-10.029000000000
10
460.194500000000
20
-10.009486413043
10
460.123000000000
20
-9.992000000000
10
460.099935483871
20
-9.987387096774
10
460.094000000000
20
-9.986000000000
10
460.063000000000
20
-9.980000000000
10
459.938000000000
20
-9.955000000000
10
459.908000000000
20
-9.950000000000
10
459.893000000000
20
-9.948000000000
10
459.890608440797
20
-9.947641266120
10
459.873000000000
20
-9.945000000000
10
457.837000000000
20
-9.669000000000
10
457.817000000000
20
-9.666000000000
10
456.212142526090
20
-9.448748551567
10
455.756000000000
20
-9.387000000000
10
455.747939038687
20
-9.385790855803
10
455.736000000000
20
-9.384000000000
10
455.060410196994
20
-9.292544611820
10
453.675000000000
20
-9.105000000000
10
453.655000000000
20
-9.102000000000
10
453.376234295399
20
-9.064127900394
10
451.594000000000
20
-8.822000000000
10
451.584000000000
20
-8.823000000000
10
451.582435193945
20
-8.820843519395
10
451.574000000000
20
-8.820000000000
10
450.274065365025
20
-8.643395585738
10
449.513000000000
20
-8.540000000000
10
449.508061494797
20
-8.539506149480
10
449.503000000000
20
-8.541000000000
10
449.493000000000
20
-8.538000000000
10
447.432000000000
20
-8.258000000000
10
447.427817116061
20
-8.257372567409
10
447.412000000000
20
-8.255000000000
10
446.516962920047
20
-8.133837775203
10
445.351000000000
20
-7.976000000000
10
445.331000000000
20
-7.973000000000
10
445.273000000000
20
-7.965125042130
10
445.273000000000
20
-7.963000000000
10
445.258000000000
20
-7.963000000000
10
445.258000000000
20
-7.938000000000
10
445.248000000000
20
-7.940000000000
10
445.238000000000
20
-7.938000000000
10
445.073000000000
20
-7.938000000000
10
443.183000000000
20
-7.938000000000
10
443.163000000000
20
-7.938000000000
10
442.944000000000
20
-7.938000000000
10
442.744000000000
20
-7.938000000000
10
441.083000000000
20
-7.938000000000
10
441.063000000000
20
-7.938000000000
10
438.983000000000
20
-7.938000000000
10
438.963000000000
20
-7.938000000000
10
436.883000000000
20
-7.938000000000
10
436.863000000000
20
-7.938000000000
10
434.783000000000
20
-7.938000000000
10
434.773000000000
20
-7.939000000000
10
434.763000000000
20
-7.938000000000
10
432.683000000000
20
-7.938000000000
10
432.673000000000
20
-7.939000000000
10
432.663000000000
20
-7.938000000000
10
430.583000000000
20
-7.938000000000
10
430.573000000000
20
-7.939000000000
10
430.563000000000
20
-7.938000000000
10
428.483000000000
20
-7.938000000000
10
428.473000000000
20
-7.939000000000
10
428.463000000000
20
-7.938000000000
10
427.086000000000
20
-7.938000000000
10
427.076000000000
20
-7.939000000000
10
427.066000000000
20
-7.938000000000
10
427.051000000000
20
-7.938000000000
10
427.019387096774
20
-7.938796963947
10
427.016000000000
20
-7.938000000000
10
426.972415094340
20
-7.939981132075
10
426.932000000000
20
-7.941000000000
10
426.917452054795
20
-7.942479452055
10
426.906000000000
20
-7.943000000000
10
426.829296296296
20
-7.951444444444
10
426.814000000000
20
-7.953000000000
10
426.811544227886
20
-7.953398800600
10
426.797000000000
20
-7.955000000000
10
426.697000000000
20
-7.972000000000
10
426.582000000000
20
-7.999000000000
10
426.468000000000
20
-8.034000000000
10
426.373000000000
20
-8.069000000000
10
426.357000000000
20
-8.076000000000
10
426.272000000000
20
-8.113000000000
10
426.261761194030
20
-8.118328358209
10
426.249000000000
20
-8.124000000000
10
426.174000000000
20
-8.164000000000
10
426.144000000000
20
-8.180000000000
10
426.131000000000
20
-8.188000000000
10
426.114000000000
20
-8.198000000000
10
424.593495665897
20
-9.075279747822
10
424.334000000000
20
-9.225000000000
10
424.323314835787
20
-9.231285390714
10
424.317000000000
20
-9.235000000000
10
422.516000000000
20
-10.275000000000
10
422.498000000000
20
-10.285000000000
10
421.375000000000
20
-10.933000000000
10
421.358000000000
20
-10.943000000000
10
421.345000000000
20
-10.951000000000
10
421.334644067797
20
-10.956576271186
10
421.334000000000
20
-10.954000000000
10
421.324000000000
20
-10.958000000000
10
421.317945945946
20
-10.965567567568
10
421.316000000000
20
-10.968000000000
10
421.300870270270
20
-10.974762162162
10
421.295000000000
20
-10.964000000000
10
420.492000000000
20
-11.177000000000
10
420.492000000000
20
-11.189272727273
10
420.476000000000
20
-11.190000000000
10
420.473590551181
20
-11.189196850394
10
420.464000000000
20
-11.186000000000
10
420.454000000000
20
-11.187000000000
10
420.454669473684
20
-11.189677894737
10
420.442000000000
20
-11.190000000000
10
420.427000000000
20
-11.190000000000
10
420.407000000000
20
-11.190000000000
10
420.135000000000
20
-11.188500000000
10
419.862165341812
20
-11.187166931638
10
419.853000000000
20
-11.189000000000
10
419.843000000000
20
-11.187000000000
10
419.828000000000
20
-11.187000000000
10
419.816243243243
20
-11.186594594595
10
419.817000000000
20
-11.184000000000
10
419.807000000000
20
-11.183000000000
10
419.797426356589
20
-11.185945736434
10
419.794000000000
20
-11.187000000000
10
419.778000000000
20
-11.185275862069
10
419.778000000000
20
-11.173000000000
10
418.993000000000
20
-10.961000000000
10
418.987298755187
20
-10.971452282158
10
418.981636363636
20
-10.968454545454
10
418.973000000000
20
-10.964000000000
10
418.964000000000
20
-10.955000000000
10
418.955000000000
20
-10.950000000000
10
418.953938524590
20
-10.953790983607
10
418.943000000000
20
-10.948000000000
10
418.930000000000
20
-10.940000000000
10
418.913000000000
20
-10.930000000000
10
417.329783919609
20
-10.016537688449
10
417.133000000000
20
-9.903000000000
10
417.125224532224
20
-9.898426195426
10
417.116000000000
20
-9.893000000000
10
415.315000000000
20
-8.853000000000
10
415.305280701754
20
-8.847600389863
10
415.297000000000
20
-8.843000000000
10
414.741536585374
20
-8.522097560980
10
413.753000000000
20
-7.951000000000
10
413.736000000000
20
-7.941000000000
10
413.723000000000
20
-7.934000000000
10
413.693223880597
20
-7.918119402985
10
413.677577464789
20
-7.909774647887
10
413.657709057956
20
-7.899178164243
10
413.649764705882
20
-7.894941176470
10
413.618000000000
20
-7.878000000000
10
413.602448000000
20
-7.870800000000
10
413.595000000000
20
-7.867000000000
10
413.574799999999
20
-7.858000000000
10
413.510000000000
20
-7.828000000000
10
413.495797552837
20
-7.822800889878
10
413.398000000000
20
-7.787000000000
10
413.284000000000
20
-7.752000000000
10
413.179000000000
20
-7.727000000000
10
413.170713450293
20
-7.725631578947
10
413.168000000000
20
-7.725000000000
10
413.101142857142
20
-7.714142857143
10
413.070000000000
20
-7.709000000000
10
413.051000000000
20
-7.706000000000
10
412.961000000000
20
-7.697000000000
10
412.933000000000
20
-7.694000000000
10
412.882796875000
20
-7.692734375000
10
412.867000000000
20
-7.692336134454
10
412.851000000000
20
-7.691000000000
10
412.814000000000
20
-7.691000000000
10
412.802000000000
20
-7.691000000000
10
412.792000000000
20
-7.692000000000
10
412.782512210738
20
-7.691051221074
10
410.725009231058
20
-7.694398153788
10
410.717000000000
20
-7.696000000000
10
410.709120003688
20
-7.694424000738
10
410.707000000000
20
-7.694000000000
10
409.264768395659
20
-7.696773522316
10
408.627000000000
20
-7.698000000000
10
408.617000000000
20
-7.699000000000
10
408.607000000000
20
-7.698000000000
10
407.758313620939
20
-7.699224066893
10
406.527000000000
20
-7.701000000000
10
406.517000000000
20
-7.703000000000
10
406.508287400304
20
-7.701257480061
10
405.631185765983
20
-7.702684258142
10
404.427000000000
20
-7.705000000000
10
404.417000000000
20
-7.706000000000
10
404.407000000000
20
-7.705000000000
10
402.647872515752
20
-7.707537203102
10
402.327000000000
20
-7.708000000000
10
402.317000000000
20
-7.710000000000
10
402.307000000000
20
-7.708000000000
10
401.997603136310
20
-7.708594993969
10
400.227000000000
20
-7.712000000000
10
400.217000000000
20
-7.713000000000
10
400.207000000000
20
-7.712000000000
10
398.127000000000
20
-7.715000000000
10
398.117000000000
20
-7.717000000000
10
398.107000000000
20
-7.715000000000
10
397.067000000000
20
-7.717000000000
10
396.830685714286
20
-7.717000000000
10
391.405000000000
20
-7.717000000000
10
391.388000000000
20
-7.717000000000
10
391.383000000000
20
-7.695000000000
10
391.367000000000
20
-7.691000000000
10
391.256000000000
20
-7.696000000000
10
391.147000000000
20
-7.708000000000
10
391.038000000000
20
-7.727000000000
10
390.931000000000
20
-7.752000000000
10
390.825000000000
20
-7.784000000000
10
390.722000000000
20
-7.822000000000
10
390.621000000000
20
-7.867000000000
10
390.566000000000
20
-7.898000000000
10
390.538398104265
20
-7.912663507109
10
390.524000000000
20
-7.918000000000
10
390.523174721190
20
-7.920750929368
10
390.485000000000
20
-7.940000000000
10
390.470000000000
20
-7.949000000000
10
388.684000000000
20
-8.980000000000
10
388.667000000000
20
-8.990000000000
10
388.610374234810
20
-9.022761825280
10
388.219887088002
20
-9.248232024366
10
386.866000000000
20
-10.032000000000
10
386.849000000000
20
-10.042000000000
10
385.374000000000
20
-10.893000000000
10
385.327000000000
20
-10.919000000000
10
385.318000000000
20
-10.924000000000
10
385.309000000000
20
-10.929000000000
10
385.293000000000
20
-10.937000000000
10
384.493000000000
20
-11.147000000000
10
384.425000000000
20
-11.148000000000
10
378.153000000000
20
-11.155000000000
10
378.133000000000
20
-11.155000000000
10
376.847315085071
20
-11.154705915854
10
376.515000000000
20
-11.155000000000
10
376.050000000000
20
-11.155000000000
10
376.036000000000
20
-11.155000000000
10
374.645055635744
20
-11.154332239864
10
373.953000000000
20
-11.154000000000
10
373.943000000000
20
-11.156000000000
10
373.934057994396
20
-11.154211598879
10
372.748000000000
20
-11.154000000000
10
372.738000000000
20
-11.156000000000
10
372.705112865688
20
-11.154003073363
10
372.700695652174
20
-11.152217391304
10
372.698832923833
20
-11.151464373464
10
372.668000000000
20
-11.139000000000
10
371.865000000000
20
-10.924000000000
10
371.816735062028
20
-10.911985025793
10
371.806000000000
20
-10.907000000000
10
371.789000000000
20
-10.897000000000
10
370.482831720901
20
-10.143384931104
10
370.009000000000
20
-9.870000000000
10
369.992000000000
20
-9.860000000000
10
368.189034170124
20
-8.821690202284
10
368.173000000000
20
-8.810000000000
10
366.976000000000
20
-8.118000000000
10
366.966000000000
20
-8.115000000000
10
366.958000000000
20
-8.108000000000
10
366.955840441128
20
-8.111119362815
10
366.822000000000
20
-8.034000000000
10
366.726000000000
20
-7.982000000000
10
366.630678229119
20
-7.938151985395
10
366.626000000000
20
-7.936000000000
10
366.566000000000
20
-7.901000000000
10
366.475000000000
20
-7.853000000000
10
366.380000000000
20
-7.811000000000
10
366.283000000000
20
-7.777000000000
10
366.183000000000
20
-7.751000000000
10
366.082000000000
20
-7.732000000000
10
365.980000000000
20
-7.720000000000
10
365.877000000000
20
-7.716000000000
10
354.348000000000
20
-7.716000000000
10
354.286000000000
20
-7.713000000000
10
354.224000000000
20
-7.712000000000
10
354.208000000000
20
-7.713000000000
10
354.202000000000
20
-7.689000000000
10
354.186000000000
20
-7.685000000000
10
354.075000000000
20
-7.690000000000
10
353.966000000000
20
-7.702000000000
10
353.857000000000
20
-7.721000000000
10
353.749000000000
20
-7.746000000000
10
353.644000000000
20
-7.777000000000
10
353.540000000000
20
-7.816000000000
10
353.439000000000
20
-7.860000000000
10
353.341000000000
20
-7.910000000000
10
353.346177347243
20
-7.919491803279
10
353.343912280702
20
-7.920508771930
10
353.329000000000
20
-7.922000000000
10
353.330169724771
20
-7.926678899083
10
353.300965779468
20
-7.939790874525
10
353.298000000000
20
-7.935000000000
10
353.276000000000
20
-7.951000000000
10
353.182000000000
20
-8.002000000000
10
351.640138400053
20
-8.891966024533
10
351.501000000000
20
-8.972000000000
10
351.484000000000
20
-8.982000000000
10
349.682000000000
20
-10.022000000000
10
349.665000000000
20
-10.032000000000
10
348.107000000000
20
-10.931000000000
10
348.085000000000
20
-10.944000000000
10
348.066703741153
20
-10.953932254803
10
348.066000000000
20
-10.951000000000
10
348.056000000000
20
-10.956000000000
10
348.049570552147
20
-10.963233128834
10
348.032675350701
20
-10.972404809619
10
348.027000000000
20
-10.962000000000
10
347.233000000000
20
-11.174000000000
10
347.233000000000
20
-11.186050420168
10
347.217000000000
20
-11.188000000000
10
347.213152671756
20
-11.186717557252
10
347.205000000000
20
-11.184000000000
10
347.195000000000
20
-11.185000000000
10
347.195577083333
20
-11.187308333333
10
347.175000000000
20
-11.188000000000
10
347.158000000000
20
-11.190000000000
10
347.148000000000
20
-11.188000000000
10
345.093000000000
20
-11.188000000000
10
345.083000000000
20
-11.190000000000
10
345.073000000000
20
-11.188000000000
10
344.687000000000
20
-11.188000000000
10
344.677000000000
20
-11.190000000000
10
344.667000000000
20
-11.188000000000
10
344.652000000000
20
-11.188000000000
10
344.640242242595
20
-11.187598025388
10
344.641000000000
20
-11.185000000000
10
344.631000000000
20
-11.184000000000
10
344.621400000000
20
-11.186953846154
10
344.618000000000
20
-11.188000000000
10
344.602000000000
20
-11.187119266055
10
344.602000000000
20
-11.174000000000
10
343.805000000000
20
-10.960000000000
10
343.799114118508
20
-10.970790782736
10
343.784000000000
20
-10.963000000000
10
343.776000000000
20
-10.954000000000
10
343.767000000000
20
-10.949000000000
10
343.765940033501
20
-10.952785594640
10
343.755000000000
20
-10.947000000000
10
343.742000000000
20
-10.939000000000
10
343.725000000000
20
-10.929000000000
10
342.501275303629
20
-10.219404858291
10
341.947000000000
20
-9.898000000000
10
341.930000000000
20
-9.888000000000
10
340.131000000000
20
-8.844000000000
10
340.114000000000
20
-8.834000000000
10
338.595000000000
20
-7.953000000000
10
338.578000000000
20
-7.943000000000
10
338.565000000000
20
-7.935000000000
10
338.535000000000
20
-7.918000000000
10
338.491764705882
20
-7.895941176470
10
338.460000000000
20
-7.879000000000
10
338.446996655519
20
-7.873100334448
10
338.437000000000
20
-7.868000000000
10
338.367775280897
20
-7.837157303370
10
338.352000000000
20
-7.830000000000
10
338.349911047346
20
-7.829197991392
10
338.336000000000
20
-7.823000000000
10
338.240000000000
20
-7.787000000000
10
338.126000000000
20
-7.753000000000
10
338.011000000000
20
-7.726000000000
10
337.910000000000
20
-7.708000000000
10
337.895408163265
20
-7.706408163265
10
337.893000000000
20
-7.706000000000
10
337.873333333334
20
-7.704000000000
10
337.800000000000
20
-7.696000000000
10
337.790356164384
20
-7.695561643836
10
337.775000000000
20
-7.694000000000
10
337.702064516129
20
-7.691548387097
10
337.690000000000
20
-7.691000000000
10
337.656000000000
20
-7.690000000000
10
337.641000000000
20
-7.690000000000
10
337.631000000000
20
-7.692000000000
10
337.621000000000
20
-7.690000000000
10
335.566000000000
20
-7.690000000000
10
335.556000000000
20
-7.692000000000
10
335.546000000000
20
-7.690000000000
10
333.466000000000
20
-7.690000000000
10
333.456000000000
20
-7.692000000000
10
333.446000000000
20
-7.690000000000
10
331.366000000000
20
-7.690000000000
10
331.356000000000
20
-7.692000000000
10
331.346000000000
20
-7.690000000000
10
329.266000000000
20
-7.690000000000
10
329.256000000000
20
-7.692000000000
10
329.246000000000
20
-7.690000000000
10
327.166000000000
20
-7.690000000000
10
327.156000000000
20
-7.692000000000
10
327.146000000000
20
-7.690000000000
10
325.066000000000
20
-7.690000000000
10
325.056000000000
20
-7.692000000000
10
325.046000000000
20
-7.690000000000
10
322.966000000000
20
-7.690000000000
10
322.956000000000
20
-7.692000000000
10
322.946000000000
20
-7.690000000000
10
320.866000000000
20
-7.690000000000
10
320.856000000000
20
-7.692000000000
10
320.846000000000
20
-7.690000000000
10
318.766000000000
20
-7.690000000000
10
318.756000000000
20
-7.692000000000
10
318.746000000000
20
-7.690000000000
10
316.666000000000
20
-7.690000000000
10
316.656000000000
20
-7.691000000000
10
316.646000000000
20
-7.690000000000
10
314.566000000000
20
-7.690000000000
10
314.556000000000
20
-7.691000000000
10
314.546000000000
20
-7.690000000000
10
312.466000000000
20
-7.690000000000
10
312.456000000000
20
-7.691000000000
10
312.446000000000
20
-7.690000000000
10
310.366000000000
20
-7.690000000000
10
310.356000000000
20
-7.691000000000
10
310.346000000000
20
-7.690000000000
10
308.266000000000
20
-7.690000000000
10
308.256000000000
20
-7.691000000000
10
308.246000000000
20
-7.690000000000
10
306.166000000000
20
-7.690000000000
10
306.156000000000
20
-7.691000000000
10
306.146000000000
20
-7.690000000000
10
304.066000000000
20
-7.690000000000
10
304.056000000000
20
-7.691000000000
10
304.046000000000
20
-7.690000000000
10
302.292757285449
20
-7.689157094849
10
301.966000000000
20
-7.689000000000
10
301.956000000000
20
-7.691000000000
10
301.946744237050
20
-7.689148847410
10
299.866000000000
20
-7.689000000000
10
299.856000000000
20
-7.691000000000
10
299.846493933109
20
-7.689098786622
10
297.766000000000
20
-7.689000000000
10
297.756000000000
20
-7.691000000000
10
297.746000000000
20
-7.689000000000
10
295.737000000000
20
-7.689000000000
10
295.727000000000
20
-7.691000000000
10
295.717000000000
20
-7.689000000000
10
295.702000000000
20
-7.689000000000
10
295.686000000000
20
-7.691000000000
10
295.666000000000
20
-7.694000000000
10
294.261359499831
20
-7.865448766932
10
293.626000000000
20
-7.943000000000
10
293.618454974904
20
-7.944191319752
10
293.607000000000
20
-7.946000000000
10
291.542000000000
20
-8.199000000000
10
291.522000000000
20
-8.201000000000
10
289.458000000000
20
-8.454000000000
10
289.448000000000
20
-8.457000000000
10
289.438947894807
20
-8.456094789481
10
287.373000000000
20
-8.709000000000
10
287.368246345425
20
-8.709713048186
10
287.353000000000
20
-8.712000000000
10
285.669000000000
20
-8.918000000000
10
285.661691117985
20
-8.918730888201
10
285.649000000000
20
-8.920000000000
10
285.635000000000
20
-8.922000000000
10
285.599500000001
20
-8.927071428571
10
285.453000000000
20
-8.948000000000
10
285.273000000000
20
-8.981000000000
10
285.094000000000
20
-9.022000000000
10
284.917000000000
20
-9.070000000000
10
284.743000000000
20
-9.125000000000
10
284.570000000000
20
-9.187000000000
10
284.400000000000
20
-9.256000000000
10
284.233000000000
20
-9.332000000000
10
284.070000000000
20
-9.414000000000
10
283.910000000000
20
-9.503000000000
10
283.753000000000
20
-9.599000000000
10
283.601000000000
20
-9.700000000000
10
283.453000000000
20
-9.808000000000
10
283.309000000000
20
-9.922000000000
10
283.170000000000
20
-10.042000000000
10
283.036000000000
20
-10.167000000000
10
282.908000000000
20
-10.297000000000
10
282.784000000000
20
-10.433000000000
10
282.667000000000
20
-10.573000000000
10
282.555000000000
20
-10.718000000000
10
282.449000000000
20
-10.868000000000
10
282.349000000000
20
-11.022000000000
10
282.256000000000
20
-11.179000000000
10
282.169000000000
20
-11.340000000000
10
282.088000000000
20
-11.505000000000
10
282.015000000000
20
-11.673000000000
10
281.968000000000
20
-11.796000000000
10
281.948000000000
20
-11.844000000000
10
281.944000000000
20
-11.859000000000
10
281.939583606529
20
-11.878140065567
10
281.874000000000
20
-12.144000000000
10
281.873000000000
20
-12.154000000000
10
281.869291567696
20
-12.163271080760
10
281.371000000000
20
-14.183000000000
10
281.370742652776
20
-14.185573472244
10
281.370000000000
20
-14.193000000000
10
281.367163895487
20
-14.200090261283
10
281.366000000000
20
-14.203000000000
10
281.098007797276
20
-15.291888888867
10
280.875000000000
20
-16.198000000000
10
280.870000000000
20
-16.217000000000
10
280.866000000000
20
-16.233000000000
10
280.870000000000
20
-16.385000000000
10
280.881000000000
20
-16.536000000000
10
280.900000000000
20
-16.686000000000
10
280.926000000000
20
-16.835000000000
10
280.960000000000
20
-16.982000000000
10
281.001000000000
20
-17.128000000000
10
281.050000000000
20
-17.271000000000
10
281.105000000000
20
-17.412000000000
10
281.168000000000
20
-17.550000000000
10
281.237000000000
20
-17.684000000000
10
281.313000000000
20
-17.815000000000
10
281.396000000000
20
-17.942000000000
10
281.485000000000
20
-18.064000000000
10
281.580000000000
20
-18.182000000000
10
281.680000000000
20
-18.295000000000
10
281.787000000000
20
-18.403000000000
10
281.898000000000
20
-18.505000000000
10
282.015000000000
20
-18.602000000000
10
282.136000000000
20
-18.692000000000
10
282.262000000000
20
-18.777000000000
10
282.391000000000
20
-18.855000000000
10
282.525000000000
20
-18.926000000000
10
282.661000000000
20
-18.991000000000
10
282.801000000000
20
-19.048000000000
10
282.944000000000
20
-19.099000000000
10
282.958000000000
20
-19.104000000000
10
282.968000000000
20
-19.105000000000
10
282.975973230010
20
-19.109429572228
10
284.160033093382
20
-19.495666366676
10
284.931000000000
20
-19.747000000000
10
284.950000000000
20
-19.753000000000
10
286.927000000000
20
-20.398000000000
10
286.937000000000
20
-20.400000000000
10
286.943560408595
20
-20.403644671441
10
286.946000000000
20
-20.405000000000
10
288.924000000000
20
-21.050000000000
10
288.934000000000
20
-21.051000000000
10
288.942371727134
20
-21.055650959519
10
290.920000000000
20
-21.701000000000
10
290.930000000000
20
-21.702000000000
10
290.939000000000
20
-21.707000000000
10
291.437414893613
20
-21.869526595743
10
292.917000000000
20
-22.352000000000
10
292.936000000000
20
-22.358000000000
10
294.913000000000
20
-23.003000000000
10
294.923000000000
20
-23.005000000000
10
294.929601268052
20
-23.008667371140
10
294.932000000000
20
-23.010000000000
10
296.910000000000
20
-23.655000000000
10
296.920000000000
20
-23.656000000000
10
296.928412586591
20
-23.660673659217
10
298.906000000000
20
-24.306000000000
10
298.925000000000
20
-24.312000000000
10
299.338265957408
20
-24.446760638285
10
300.903000000000
20
-24.957000000000
10
300.922000000000
20
-24.963000000000
10
302.899000000000
20
-25.608000000000
10
302.909000000000
20
-25.610000000000
10
302.915642127510
20
-25.613690070839
10
302.918000000000
20
-25.615000000000
10
304.896000000000
20
-26.260000000000
10
304.906000000000
20
-26.261000000000
10
304.914453446049
20
-26.265696358916
10
306.892000000000
20
-26.911000000000
10
306.911000000000
20
-26.917000000000
10
307.239117021241
20
-27.023994680839
10
308.889000000000
20
-27.562000000000
10
308.908000000000
20
-27.568000000000
10
309.584530427823
20
-27.789061535849
10
310.885000000000
20
-28.214000000000
10
310.888223605886
20
-28.214322360589
10
310.895000000000
20
-28.215000000000
10
310.901682986967
20
-28.218712770537
10
310.904000000000
20
-28.220000000000
10
312.881000000000
20
-28.865000000000
10
312.883829063289
20
-28.865282906329
10
312.891000000000
20
-28.866000000000
10
312.900000000000
20
-28.871000000000
10
314.878000000000
20
-29.516000000000
10
314.897000000000
20
-29.522000000000
10
316.874000000000
20
-30.167000000000
10
316.884000000000
20
-30.169000000000
10
316.888912527885
20
-30.171729182159
10
316.893000000000
20
-30.174000000000
10
318.871000000000
20
-30.819000000000
10
318.874182175342
20
-30.819318217534
10
318.881000000000
20
-30.820000000000
10
318.887723846425
20
-30.823735470236
10
318.890000000000
20
-30.825000000000
10
320.043000000000
20
-31.201000000000
10
320.046303529512
20
-31.201660705902
10
320.053000000000
20
-31.203000000000
10
320.078000000000
20
-31.212000000000
10
320.095000000000
20
-31.212000000000
10
320.105000000000
20
-31.211000000000
10
320.115000000000
20
-31.212000000000
10
320.118665485574
20
-31.212001783691
10
322.170000000000
20
-31.212091760423
10
322.174540202162
20
-31.212091959568
10
322.180000000000
20
-31.211000000000
10
322.185462193169
20
-31.212092438634
10
322.190000000000
20
-31.212092637674
10
324.270000000000
20
-31.212183871746
10
324.274079746530
20
-31.212184050694
10
324.280000000000
20
-31.211000000000
10
324.285922850813
20
-31.212184570163
10
324.290000000000
20
-31.212184748997
10
326.370000000000
20
-31.212275983069
10
326.373619290898
20
-31.212276141820
10
326.380000000000
20
-31.211000000000
10
326.386383508456
20
-31.212276701691
10
326.390000000000
20
-31.212276860320
10
328.470000000000
20
-31.212368094392
10
328.473158835267
20
-31.212368232947
10
328.480000000000
20
-31.211000000000
10
328.486844166100
20
-31.212368833220
10
328.490000000000
20
-31.212368971643
10
330.570000000000
20
-31.212460205715
10
330.572698379635
20
-31.212460324073
10
330.580000000000
20
-31.211000000000
10
330.587304823744
20
-31.212460964749
10
330.590000000000
20
-31.212461082966
10
332.670000000000
20
-31.213000000000
10
332.672237924003
20
-31.212552415199
10
332.680000000000
20
-31.211000000000
10
332.687765481387
20
-31.212553096277
10
332.690000000000
20
-31.213000000000
10
334.770000000000
20
-31.213000000000
10
334.780000000000
20
-31.211000000000
10
334.788226139031
20
-31.212645227806
10
336.870000000000
20
-31.213000000000
10
336.880000000000
20
-31.211000000000
10
336.888686796674
20
-31.212737359335
10
338.970000000000
20
-31.213000000000
10
338.980000000000
20
-31.211000000000
10
338.989147454318
20
-31.212829490864
10
341.070000000000
20
-31.213000000000
10
341.080000000000
20
-31.212000000000
10
341.089216051956
20
-31.212921605196
10
342.876500000040
20
-31.213000000000
10
343.170000000000
20
-31.213000000000
10
343.180000000000
20
-31.212000000000
10
343.190000000000
20
-31.213000000000
10
345.270000000000
20
-31.213000000000
10
345.280000000000
20
-31.212000000000
10
345.290000000000
20
-31.213000000000
10
347.370000000000
20
-31.213000000000
10
347.380000000000
20
-31.212000000000
10
347.390000000000
20
-31.213000000000
10
349.470000000000
20
-31.213000000000
10
349.480000000000
20
-31.212000000000
10
349.490000000000
20
-31.213000000000
10
351.570000000000
20
-31.213000000000
10
351.580000000000
20
-31.212000000000
10
351.590000000000
20
-31.213000000000
10
353.670000000000
20
-31.213000000000
10
353.680000000000
20
-31.212000000000
10
353.690000000000
20
-31.213000000000
10
354.775603687524
20
-31.213521924850
10
355.770000000000
20
-31.214000000000
10
355.772171815730
20
-31.213565636854
10
355.780000000000
20
-31.212000000000
10
355.787831618663
20
-31.213566323733
10
355.790000000000
20
-31.214000000000
10
357.870000000000
20
-31.214000000000
10
357.880000000000
20
-31.212000000000
10
357.888292276307
20
-31.213658455261
10
359.970000000000
20
-31.214000000000
10
359.980000000000
20
-31.212000000000
10
359.988752933950
20
-31.213750586790
10
362.070000000000
20
-31.214000000000
10
362.080000000000
20
-31.212000000000
10
362.089213591594
20
-31.213842718319
10
364.170000000000
20
-31.214000000000
10
364.180000000000
20
-31.212000000000
10
364.190000000000
20
-31.214000000000
10
365.653000000000
20
-31.214000000000
10
365.663000000000
20
-31.212000000000
10
365.675000000000
20
-31.214000000000
10
365.688000000000
20
-31.214000000000
10
365.796000000000
20
-31.210000000000
10
365.918000000000
20
-31.198000000000
10
366.038000000000
20
-31.178000000000
10
366.156000000000
20
-31.150000000000
10
366.273000000000
20
-31.115000000000
10
366.387000000000
20
-31.072000000000
10
366.497000000000
20
-31.022000000000
10
366.594000000000
20
-30.971000000000
10
366.605000000000
20
-30.965000000000
10
366.624000000000
20
-30.953000000000
10
368.404000000000
20
-29.926000000000
10
368.421000000000
20
-29.916000000000
10
370.223000000000
20
-28.876000000000
10
370.240000000000
20
-28.866000000000
10
371.790000000000
20
-27.971000000000
10
371.806621463415
20
-27.961765853658
10
371.818000000000
20
-27.955000000000
10
371.852000000000
20
-28.083000000000
10
371.900000000000
20
-28.070000000000
10
371.871000000000
20
-27.940000000000
10
371.940000000000
20
-28.060000000000
10
372.664000000000
20
-27.866000000000
10
372.664000000000
20
-27.728000000000
10
372.704000000000
20
-27.855000000000
10
372.752000000000
20
-27.842000000000
10
372.718000000000
20
-27.714000000000
10
372.729000000000
20
-27.714000000000
10
372.739000000000
20
-27.712000000000
10
372.749000000000
20
-27.714000000000
10
374.804000000000
20
-27.714000000000
10
374.814000000000
20
-27.712000000000
10
374.824000000000
20
-27.714000000000
10
376.904000000000
20
-27.714000000000
10
376.914000000000
20
-27.713000000000
10
376.924000000000
20
-27.714000000000
10
379.004000000000
20
-27.714000000000
10
379.014000000000
20
-27.713000000000
10
379.024000000000
20
-27.714000000000
10
381.104000000000
20
-27.714000000000
10
381.114000000000
20
-27.713000000000
10
381.124000000000
20
-27.714000000000
10
383.204000000000
20
-27.714000000000
10
383.214000000000
20
-27.713000000000
10
383.224000000000
20
-27.714000000000
10
384.361000000000
20
-27.714000000000
10
384.377000000000
20
-27.714000000000
10
384.387000000000
20
-27.713000000000
10
384.397000000000
20
-27.714000000000
10
384.408581967213
20
-27.715586065574
10
384.375000000000
20
-27.843000000000
10
384.423000000000
20
-27.856000000000
10
384.463000000000
20
-27.728000000000
10
384.462000000000
20
-27.866000000000
10
385.186000000000
20
-28.060000000000
10
385.255000000000
20
-27.940000000000
10
385.226000000000
20
-28.070000000000
10
385.274000000000
20
-28.083000000000
10
385.308000000000
20
-27.955000000000
10
385.294000000000
20
-27.951000000000
10
385.296886792453
20
-27.939452830189
10
385.322512291052
20
-27.953363815143
10
385.318000000000
20
-27.961000000000
10
385.328000000000
20
-27.964000000000
10
385.336000000000
20
-27.971000000000
10
387.116000000000
20
-28.997000000000
10
387.133000000000
20
-29.007000000000
10
388.935000000000
20
-30.046000000000
10
388.952000000000
20
-30.056000000000
10
390.510000000000
20
-30.955000000000
10
390.520000000000
20
-30.958000000000
10
390.528000000000
20
-30.965000000000
10
390.533520158783
20
-30.954879708898
10
390.559999843045
20
-30.970143395274
10
390.558000000000
20
-30.977000000000
10
390.568000000000
20
-30.978000000000
10
390.571000000000
20
-30.989000000000
10
390.668000000000
20
-31.039000000000
10
390.769000000000
20
-31.083000000000
10
390.802000000000
20
-31.095000000000
10
390.872000000000
20
-31.121000000000
10
390.899000000000
20
-31.131000000000
10
390.977000000000
20
-31.153000000000
10
390.998000000000
20
-31.161000000000
10
391.098000000000
20
-31.184000000000
10
391.200000000000
20
-31.201000000000
10
391.303000000000
20
-31.211000000000
10
391.396000000000
20
-31.214611650485
10
391.406000000000
20
-31.215000000000
10
391.461000000000
20
-31.215000000000
10
391.471000000000
20
-31.213000000000
10
391.481000000000
20
-31.215000000000
10
393.536000000000
20
-31.215000000000
10
393.546000000000
20
-31.213000000000
10
393.556000000000
20
-31.215000000000
10
395.636000000000
20
-31.215000000000
10
395.646000000000
20
-31.213000000000
10
395.656000000000
20
-31.215000000000
10
397.736000000000
20
-31.215000000000
10
397.746000000000
20
-31.213000000000
10
397.756000000000
20
-31.215000000000
10
399.836000000000
20
-31.215000000000
10
399.846000000000
20
-31.213000000000
10
399.856000000000
20
-31.215000000000
10
401.936000000000
20
-31.215000000000
10
401.946000000000
20
-31.213000000000
0
ENDSEC
0
EOF