0
SECTION
2
HEADER
9
$ACADVER
1
AC1009
0
ENDSEC
0
SECTION
2
TABLES
0
TABLE
2
LAYER
70
1
0
LAYER
2
0
70
0
62
7
6
CONTINUOUS
0
ENDTAB
0
ENDSEC
0
SECTION
2
ENTITIES
0
LINE
8
0
10
196623.473178
20
23061.085163
30
0.0
11
196615.556840
21
23038.715154
31
0.0
0
LINE
8
0
10
196488.593205
20
22679.940955
30
0.0
11
196293.341524
21
22128.198204
31
0.0
0
LINE
8
0
10
196262.233052
20
22040.291798
30
0.0
11
196057.407986
21
21461.496547
31
0.0
0
LINE
8
0
10
195937.261598
20
21121.986548
30
0.0
11
195929.323575
21
21099.555259
31
0.0
0
LINE
8
0
10
195318.288364
20
20785.994931
30
0.0
11
194108.689584
21
20208.731223
31
0.0
0
LINE
8
0
10
194027.465064
20
20169.967983
30
0.0
11
193504.017950
21
19920.160338
31
0.0
0
LINE
8
0
10
192619.633628
20
19498.100577
30
0.0
11
192096.186364
21
19248.292861
31
0.0
0
LINE
8
0
10
192014.961991
20
19209.529691
30
0.0
11
190805.363224
21
18632.265989
31
0.0
0
LINE
8
0
10
189956.862289
20
18227.331060
30
0.0
11
188747.263530
21
17650.067362
31
0.0
0
LINE
8
0
10
188666.039010
20
17611.304122
30
0.0
11
188142.591895
21
17361.496477
31
0.0
0
LINE
8
0
10
187258.207553
20
16939.436705
30
0.0
11
186734.760289
21
16689.628989
31
0.0
0
LINE
8
0
10
186653.535915
20
16650.865819
30
0.0
11
185443.937170
21
16073.602127
31
0.0
0
LINE
8
0
10
184595.313388
20
15668.608571
30
0.0
11
183385.714540
21
15091.344831
31
0.0
0
LINE
8
0
10
183304.490019
20
15052.581591
30
0.0
11
182781.042905
21
14802.773946
31
0.0
0
LINE
8
0
10
181896.457225
20
14380.618089
30
0.0
11
181373.009961
21
14130.810373
31
0.0
0
LINE
8
0
10
181291.785588
20
14092.047203
30
0.0
11
180082.186753
21
13514.783469
31
0.0
0
LINE
8
0
10
179455.073073
20
13237.484365
30
0.0
11
179432.270689
21
13245.553706
31
0.0
0
LINE
8
0
10
179080.941852
20
13369.882468
30
0.0
11
177835.486396
21
13810.626063
31
0.0
0
LINE
8
0
10
177747.579784
20
13841.734584
30
0.0
11
177195.837135
21
14036.986078
31
0.0
0
LINE
8
0
10
160699.303657
20
34976.051353
30
0.0
11
159849.161219
21
36075.174500
31
0.0
0
LINE
8
0
10
159271.131692
20
36822.491189
30
0.0
11
158420.989240
21
37921.614353
31
0.0
0
LINE
8
0
10
158363.902150
20
37995.420504
30
0.0
11
157965.130865
21
38510.979697
31
0.0
0
LINE
8
0
10
157361.897058
20
39290.882229
30
0.0
11
156963.125677
21
39806.441547
31
0.0
0
LINE
8
0
10
156906.038688
20
39880.247567
30
0.0
11
156055.896213
21
40979.370762
31
0.0
0
LINE
8
0
10
161155.162027
20
34386.686015
30
0.0
11
160756.390646
21
34902.245333
31
0.0
0
LINE
8
0
10
162157.167156
20
33091.224243
30
0.0
11
161758.395871
21
33606.783436
31
0.0
0
LINE
8
0
10
163064.396661
20
31918.294975
30
0.0
11
162214.254245
21
33017.418092
31
0.0
0
LINE
8
0
10
164492.568626
20
30071.855140
30
0.0
11
163642.426225
21
31170.978238
31
0.0
0
LINE
8
0
10
176328.377867
20
14769.699520
30
0.0
11
175929.606486
21
15285.258837
31
0.0
0
LINE
8
0
10
175872.519497
20
15359.064858
30
0.0
11
175022.377207
21
16458.187813
31
0.0
0
LINE
8
0
10
174444.347531
20
17205.504695
30
0.0
11
173594.205227
21
18304.627667
31
0.0
0
LINE
8
0
10
173537.118137
20
18378.433819
30
0.0
11
173138.346853
21
18893.993011
31
0.0
0
LINE
8
0
10
172535.112898
20
19673.895734
30
0.0
11
172136.341517
21
20189.455051
31
0.0
0
LINE
8
0
10
172079.254528
20
20263.261072
30
0.0
11
171229.112201
21
21362.384075
31
0.0
0
LINE
8
0
10
170650.926598
20
22109.902549
30
0.0
11
169800.784257
21
23209.025569
31
0.0
0
LINE
8
0
10
169743.697168
20
23282.831721
30
0.0
11
169344.925883
21
23798.390913
31
0.0
0
LINE
8
0
10
168741.691965
20
24578.293588
30
0.0
11
168342.920584
21
25093.852905
31
0.0
0
LINE
8
0
10
168285.833596
20
25167.658926
30
0.0
11
167435.691231
21
26266.781977
31
0.0
0
LINE
8
0
10
166857.661630
20
27014.098762
30
0.0
11
166007.519251
21
28113.221831
31
0.0
0
LINE
8
0
10
165950.432162
20
28187.027982
30
0.0
11
165551.660877
21
28702.587174
31
0.0
0
LINE
8
0
10
164948.426996
20
29482.489802
30
0.0
11
164549.655615
21
29998.049119
31
0.0
0
LINE
8
0
10
159687.188145
20
44600.272027
30
0.0
11
160209.313300
21
45004.131347
31
0.0
0
LINE
8
0
10
160283.118680
20
45061.219173
30
0.0
11
160821.773346
21
45477.863927
31
0.0
0
LINE
8
0
10
158384.451168
20
43592.616175
30
0.0
11
158906.578280
21
43996.477008
31
0.0
0
LINE
8
0
10
157771.990942
20
43118.883456
30
0.0
11
158310.645663
21
43535.528252
31
0.0
0
LINE
8
0
10
156539.080026
20
42165.237461
30
0.0
11
157025.042244
21
42541.125059
31
0.0
0
LINE
8
0
10
161329.244599
20
45845.005019
30
0.0
11
161396.619361
21
45836.399980
31
0.0
0
LINE
8
0
10
161873.578341
20
45775.483244
30
0.0
11
162374.686326
21
45711.482220
31
0.0
0
LINE
8
0
10
162454.525332
20
45701.285260
30
0.0
11
162980.203078
21
45634.146210
31
0.0
0
LINE
8
0
10
166220.965232
20
47757.740649
30
0.0
11
166743.090339
21
48161.599933
31
0.0
0
LINE
8
0
10
166816.895719
20
48218.687760
30
0.0
11
167355.550261
21
48635.332420
31
0.0
0
LINE
8
0
10
163513.336580
20
45663.413151
30
0.0
11
163616.121834
21
45742.916662
31
0.0
0
LINE
8
0
10
164305.767987
20
46276.352036
30
0.0
11
164844.422584
21
46692.996739
31
0.0
0
LINE
8
0
10
164918.228089
20
46750.084662
30
0.0
11
165440.355200
21
47153.945496
31
0.0
0
LINE
8
0
10
168407.395724
20
48932.954983
30
0.0
11
168908.503708
21
48868.953959
31
0.0
0
LINE
8
0
10
168988.342715
20
48858.756998
30
0.0
11
169514.020347
21
48791.617962
31
0.0
0
LINE
8
0
10
167863.108697
20
49002.470793
30
0.0
11
167930.436985
21
48993.871689
31
0.0
0
LINE
8
0
10
170047.159314
20
48820.924825
30
0.0
11
170149.895006
21
48900.390122
31
0.0
0
LINE
8
0
10
170839.540832
20
49433.826062
30
0.0
11
171378.194981
21
49850.471058
31
0.0
0
LINE
8
0
10
171452.000443
20
49907.559036
30
0.0
11
171974.127253
21
50311.420258
31
0.0
0
LINE
8
0
10
172754.737031
20
50915.216142
30
0.0
11
173276.861783
21
51319.075772
31
0.0
0
LINE
8
0
10
173350.667121
20
51376.163654
30
0.0
11
173889.321210
21
51792.808604
31
0.0
0
LINE
8
0
10
175522.159429
20
52016.228823
30
0.0
11
176047.836948
21
51949.089803
31
0.0
0
LINE
8
0
10
174396.972793
20
52159.936564
30
0.0
11
174464.253272
21
52151.343567
31
0.0
0
LINE
8
0
10
174941.212439
20
52090.426807
30
0.0
11
175442.320422
21
52026.425784
31
0.0
0
LINE
8
0
10
176580.978346
20
51978.418161
30
0.0
11
176683.675784
21
52057.853747
31
0.0
0
LINE
8
0
10
177373.322063
20
52591.289215
30
0.0
11
177911.976416
21
53007.933726
31
0.0
0
LINE
8
0
10
177985.781920
20
53065.021649
30
0.0
11
178507.909032
21
53468.882482
31
0.0
0
LINE
8
0
10
179288.519405
20
54072.677894
30
0.0
11
179810.644417
21
54476.537103
31
0.0
0
LINE
8
0
10
179884.449798
20
54533.624930
30
0.0
11
180423.104096
21
54950.269399
31
0.0
0
LINE
8
0
10
182653.488456
20
52381.555143
30
0.0
11
183251.959220
21
51127.519082
31
0.0
0
LINE
8
0
10
183659.121229
20
50274.351524
30
0.0
11
184257.591991
21
49020.315467
31
0.0
0
LINE
8
0
10
184297.779342
20
48936.106863
30
0.0
11
184556.764597
21
48393.428978
31
0.0
0
LINE
8
0
10
184981.618784
20
47503.189216
30
0.0
11
185240.604099
21
46960.511206
31
0.0
0
LINE
8
0
10
185280.791390
20
46876.302726
30
0.0
11
185879.262144
21
45622.266689
31
0.0
0
LINE
8
0
10
186286.387518
20
44769.175895
30
0.0
11
186884.858270
21
43515.139860
31
0.0
0
LINE
8
0
10
186925.045621
20
43430.931256
30
0.0
11
187184.030876
21
42888.253371
31
0.0
0
LINE
8
0
10
187608.885063
20
41998.013608
30
0.0
11
187867.870378
21
41455.335598
31
0.0
0
LINE
8
0
10
187908.057669
20
41371.127118
30
0.0
11
188506.528412
21
40117.091103
31
0.0
0
LINE
8
0
10
182354.315850
20
53008.441632
30
0.0
11
182613.301165
21
52465.763622
31
0.0
0
LINE
8
0
10
181685.580769
20
54409.709590
30
0.0
11
181939.467136
21
53877.715919
31
0.0
0
LINE
8
0
10
181404.999779
20
54997.639195
30
0.0
11
181647.020774
21
54490.508231
31
0.0
0
LINE
8
0
10
190193.103706
20
36583.040047
30
0.0
11
190452.089021
21
36040.362036
31
0.0
0
LINE
8
0
10
190492.276312
20
35956.153557
30
0.0
11
191090.747055
21
34702.117542
31
0.0
0
LINE
8
0
10
191497.862863
20
33849.046790
30
0.0
11
192096.333604
21
32595.010779
31
0.0
0
LINE
8
0
10
192136.520956
20
32510.802175
30
0.0
11
192395.506211
21
31968.124290
31
0.0
0
LINE
8
0
10
192820.360398
20
31077.884526
30
0.0
11
193079.345713
21
30535.206516
31
0.0
0
LINE
8
0
10
193119.533005
20
30450.998036
30
0.0
11
193718.003737
21
29196.962044
31
0.0
0
LINE
8
0
10
194125.141181
20
28343.845957
30
0.0
11
194723.611911
21
27089.809968
31
0.0
0
LINE
8
0
10
194763.799262
20
27005.601364
30
0.0
11
195022.784517
21
26462.923479
31
0.0
0
LINE
8
0
10
195447.638705
20
25572.683714
30
0.0
11
195706.624020
21
25030.005704
31
0.0
0
LINE
8
0
10
195746.811312
20
24945.797224
30
0.0
11
196345.282033
21
23691.761254
31
0.0
0
LINE
8
0
10
195929.323575
20
21099.555259
30
0.0
11
195937.261598
21
21121.986548
31
0.0
0
LINE
8
0
10
196057.407986
20
21461.496547
30
0.0
11
196262.233052
21
22040.291798
31
0.0
0
LINE
8
0
10
196293.341524
20
22128.198204
30
0.0
11
196488.593205
21
22679.940955
31
0.0
0
LINE
8
0
10
196615.556840
20
23038.715154
30
0.0
11
196623.473178
21
23061.085163
31
0.0
0
LINE
8
0
10
196345.282033
20
23691.761254
30
0.0
11
195746.811312
21
24945.797224
31
0.0
0
LINE
8
0
10
195706.624020
20
25030.005704
30
0.0
11
195447.638705
21
25572.683714
31
0.0
0
LINE
8
0
10
195022.784517
20
26462.923479
30
0.0
11
194763.799262
21
27005.601364
31
0.0
0
LINE
8
0
10
194723.611911
20
27089.809968
30
0.0
11
194125.141181
21
28343.845957
31
0.0
0
LINE
8
0
10
193718.003737
20
29196.962044
30
0.0
11
193119.533005
21
30450.998036
31
0.0
0
LINE
8
0
10
193079.345713
20
30535.206516
30
0.0
11
192820.360398
21
31077.884526
31
0.0
0
LINE
8
0
10
192395.506211
20
31968.124290
30
0.0
11
192136.520956
21
32510.802175
31
0.0
0
LINE
8
0
10
192096.333604
20
32595.010779
30
0.0
11
191497.862863
21
33849.046790
31
0.0
0
LINE
8
0
10
191090.747055
20
34702.117542
30
0.0
11
190492.276312
21
35956.153557
31
0.0
0
LINE
8
0
10
190452.089021
20
36040.362036
30
0.0
11
190193.103706
21
36583.040047
31
0.0
0
LINE
8
0
10
188506.528412
20
40117.091103
30
0.0
11
187908.057669
21
41371.127118
31
0.0
0
LINE
8
0
10
187867.870378
20
41455.335598
30
0.0
11
187608.885063
21
41998.013608
31
0.0
0
LINE
8
0
10
187184.030876
20
42888.253371
30
0.0
11
186925.045621
21
43430.931256
31
0.0
0
LINE
8
0
10
186884.858270
20
43515.139860
30
0.0
11
186286.387518
21
44769.175895
31
0.0
0
LINE
8
0
10
185879.262144
20
45622.266689
30
0.0
11
185280.791390
21
46876.302726
31
0.0
0
LINE
8
0
10
185240.604099
20
46960.511206
30
0.0
11
184981.618784
21
47503.189216
31
0.0
0
LINE
8
0
10
184556.764597
20
48393.428978
30
0.0
11
184297.779342
21
48936.106863
31
0.0
0
LINE
8
0
10
184257.591991
20
49020.315467
30
0.0
11
183659.121229
21
50274.351524
31
0.0
0
LINE
8
0
10
183251.959220
20
51127.519082
30
0.0
11
182653.488456
21
52381.555143
31
0.0
0
LINE
8
0
10
182613.301165
20
52465.763622
30
0.0
11
182354.315850
21
53008.441632
31
0.0
0
LINE
8
0
10
181939.467136
20
53877.715919
30
0.0
11
181685.580769
21
54409.709590
31
0.0
0
LINE
8
0
10
181647.020774
20
54490.508231
30
0.0
11
181404.999779
21
54997.639195
31
0.0
0
LINE
8
0
10
180423.104096
20
54950.269399
30
0.0
11
179884.449798
21
54533.624930
31
0.0
0
LINE
8
0
10
179810.644417
20
54476.537103
30
0.0
11
179288.519405
21
54072.677894
31
0.0
0
LINE
8
0
10
178507.909032
20
53468.882482
30
0.0
11
177985.781920
21
53065.021649
31
0.0
0
LINE
8
0
10
177911.976416
20
53007.933726
30
0.0
11
177373.322063
21
52591.289215
31
0.0
0
LINE
8
0
10
176683.675784
20
52057.853747
30
0.0
11
176580.978346
21
51978.418161
31
0.0
0
LINE
8
0
10
176047.836948
20
51949.089803
30
0.0
11
175522.159429
21
52016.228823
31
0.0
0
LINE
8
0
10
175442.320422
20
52026.425784
30
0.0
11
174941.212439
21
52090.426807
31
0.0
0
LINE
8
0
10
174464.253272
20
52151.343567
30
0.0
11
174396.972793
21
52159.936564
31
0.0
0
LINE
8
0
10
173889.321210
20
51792.808604
30
0.0
11
173350.667121
21
51376.163654
31
0.0
0
LINE
8
0
10
173276.861783
20
51319.075772
30
0.0
11
172754.737031
21
50915.216142
31
0.0
0
LINE
8
0
10
171974.127253
20
50311.420258
30
0.0
11
171452.000443
21
49907.559036
31
0.0
0
LINE
8
0
10
171378.194981
20
49850.471058
30
0.0
11
170839.540832
21
49433.826062
31
0.0
0
LINE
8
0
10
170149.895006
20
48900.390122
30
0.0
11
170047.159314
21
48820.924825
31
0.0
0
LINE
8
0
10
169514.020347
20
48791.617962
30
0.0
11
168988.342715
21
48858.756998
31
0.0
0
LINE
8
0
10
168908.503708
20
48868.953959
30
0.0
11
168407.395724
21
48932.954983
31
0.0
0
LINE
8
0
10
167930.436985
20
48993.871689
30
0.0
11
167863.108697
21
49002.470793
31
0.0
0
LINE
8
0
10
167355.550261
20
48635.332420
30
0.0
11
166816.895719
21
48218.687760
31
0.0
0
LINE
8
0
10
166743.090339
20
48161.599933
30
0.0
11
166220.965232
21
47757.740649
31
0.0
0
LINE
8
0
10
165440.355200
20
47153.945496
30
0.0
11
164918.228089
21
46750.084662
31
0.0
0
LINE
8
0
10
164844.422584
20
46692.996739
30
0.0
11
164305.767987
21
46276.352036
31
0.0
0
LINE
8
0
10
163616.121834
20
45742.916662
30
0.0
11
163513.336580
21
45663.413151
31
0.0
0
LINE
8
0
10
162980.203078
20
45634.146210
30
0.0
11
162454.525332
21
45701.285260
31
0.0
0
LINE
8
0
10
162374.686326
20
45711.482220
30
0.0
11
161873.578341
21
45775.483244
31
0.0
0
LINE
8
0
10
161396.619361
20
45836.399980
30
0.0
11
161329.244599
21
45845.005019
31
0.0
0
LINE
8
0
10
160821.773346
20
45477.863927
30
0.0
11
160283.118680
21
45061.219173
31
0.0
0
LINE
8
0
10
160209.313300
20
45004.131347
30
0.0
11
159687.188145
21
44600.272027
31
0.0
0
LINE
8
0
10
158906.578280
20
43996.477008
30
0.0
11
158384.451168
21
43592.616175
31
0.0
0
LINE
8
0
10
158310.645663
20
43535.528252
30
0.0
11
157771.990942
21
43118.883456
31
0.0
0
LINE
8
0
10
157025.042244
20
42541.125059
30
0.0
11
156539.080026
21
42165.237461
31
0.0
0
LINE
8
0
10
156055.896213
20
40979.370762
30
0.0
11
156906.038688
21
39880.247567
31
0.0
0
LINE
8
0
10
156963.125677
20
39806.441547
30
0.0
11
157361.897058
21
39290.882229
31
0.0
0
LINE
8
0
10
157965.130865
20
38510.979697
30
0.0
11
158363.902150
21
37995.420504
31
0.0
0
LINE
8
0
10
158420.989240
20
37921.614353
30
0.0
11
159271.131692
21
36822.491189
31
0.0
0
LINE
8
0
10
159849.161219
20
36075.174500
30
0.0
11
160699.303657
21
34976.051353
31
0.0
0
LINE
8
0
10
160756.390646
20
34902.245333
30
0.0
11
161155.162027
21
34386.686015
31
0.0
0
LINE
8
0
10
161758.395871
20
33606.783436
30
0.0
11
162157.167156
21
33091.224243
31
0.0
0
LINE
8
0
10
162214.254245
20
33017.418092
30
0.0
11
163064.396661
21
31918.294975
31
0.0
0
LINE
8
0
10
163642.426225
20
31170.978238
30
0.0
11
164492.568626
21
30071.855140
31
0.0
0
LINE
8
0
10
164549.655615
20
29998.049119
30
0.0
11
164948.426996
21
29482.489802
31
0.0
0
LINE
8
0
10
165551.660877
20
28702.587174
30
0.0
11
165950.432162
21
28187.027982
31
0.0
0
LINE
8
0
10
166007.519251
20
28113.221831
30
0.0
11
166857.661630
21
27014.098762
31
0.0
0
LINE
8
0
10
167435.691231
20
26266.781977
30
0.0
11
168285.833596
21
25167.658926
31
0.0
0
LINE
8
0
10
168342.920584
20
25093.852905
30
0.0
11
168741.691965
21
24578.293588
31
0.0
0
LINE
8
0
10
169344.925883
20
23798.390913
30
0.0
11
169743.697168
21
23282.831721
31
0.0
0
LINE
8
0
10
169800.784257
20
23209.025569
30
0.0
11
170650.926598
21
22109.902549
31
0.0
0
LINE
8
0
10
171229.112201
20
21362.384075
30
0.0
11
172079.254528
21
20263.261072
31
0.0
0
LINE
8
0
10
172136.341517
20
20189.455051
30
0.0
11
172535.112898
21
19673.895734
31
0.0
0
LINE
8
0
10
173138.346853
20
18893.993011
30
0.0
11
173537.118137
21
18378.433819
31
0.0
0
LINE
8
0
10
173594.205227
20
18304.627667
30
0.0
11
174444.347531
21
17205.504695
31
0.0
0
LINE
8
0
10
175022.377207
20
16458.187813
30
0.0
11
175872.519497
21
15359.064858
31
0.0
0
LINE
8
0
10
175929.606486
20
15285.258837
30
0.0
11
176328.377867
21
14769.699520
31
0.0
0
LINE
8
0
10
177195.837135
20
14036.986078
30
0.0
11
177747.579784
21
13841.734584
31
0.0
0
LINE
8
0
10
177835.486396
20
13810.626063
30
0.0
11
179080.941852
21
13369.882468
31
0.0
0
LINE
8
0
10
179432.270689
20
13245.553706
30
0.0
11
179455.073073
21
13237.484365
31
0.0
0
LINE
8
0
10
180082.186753
20
13514.783469
30
0.0
11
181291.785588
21
14092.047203
31
0.0
0
LINE
8
0
10
181373.009961
20
14130.810373
30
0.0
11
181896.457225
21
14380.618089
31
0.0
0
LINE
8
0
10
182781.042905
20
14802.773946
30
0.0
11
183304.490019
21
15052.581591
31
0.0
0
LINE
8
0
10
183385.714540
20
15091.344831
30
0.0
11
184595.313388
21
15668.608571
31
0.0
0
LINE
8
0
10
185443.937170
20
16073.602127
30
0.0
11
186653.535915
21
16650.865819
31
0.0
0
LINE
8
0
10
186734.760289
20
16689.628989
30
0.0
11
187258.207553
21
16939.436705
31
0.0
0
LINE
8
0
10
188142.591895
20
17361.496477
30
0.0
11
188666.039010
21
17611.304122
31
0.0
0
LINE
8
0
10
188747.263530
20
17650.067362
30
0.0
11
189956.862289
21
18227.331060
31
0.0
0
LINE
8
0
10
190805.363224
20
18632.265989
30
0.0
11
192014.961991
21
19209.529691
31
0.0
0
LINE
8
0
10
192096.186364
20
19248.292861
30
0.0
11
192619.633628
21
19498.100577
31
0.0
0
LINE
8
0
10
193504.017950
20
19920.160338
30
0.0
11
194027.465064
21
20169.967983
31
0.0
0
LINE
8
0
10
194108.689584
20
20208.731223
30
0.0
11
195318.288364
21
20785.994931
31
0.0
0
LINE
8
0
10
155928.226731
20
41667.462999
30
0.0
11
155690.928989
21
41483.915235
31
0.0
0
LINE
8
0
10
177316.294899
20
14015.484088
30
0.0
11
176794.091285
21
14200.282408
31
0.0
0
LINE
8
0
10
176794.091285
20
14200.282408
30
0.0
11
155690.928989
21
41483.915235
31
0.0
0
LINE
8
0
10
161727.607753
20
45773.964003
30
0.0
11
161306.762247
21
45827.713981
31
0.0
0
LINE
8
0
10
155928.226731
20
41667.462999
30
0.0
11
161306.762247
21
45827.713981
31
0.0
0
LINE
8
0
10
161727.607753
20
45773.964003
30
0.0
11
163410.989780
21
45558.964091
31
0.0
0
LINE
8
0
10
168261.394002
20
48931.439719
30
0.0
11
167840.548497
21
48985.189698
31
0.0
0
LINE
8
0
10
163410.989780
20
45558.964091
30
0.0
11
167840.548497
21
48985.189698
31
0.0
0
LINE
8
0
10
168261.394002
20
48931.439719
30
0.0
11
169944.767594
21
48716.440881
31
0.0
0
LINE
8
0
10
174795.165662
20
52088.917298
30
0.0
11
174374.320469
21
52142.667235
31
0.0
0
LINE
8
0
10
169944.767594
20
48716.440881
30
0.0
11
174374.320469
21
52142.667235
31
0.0
0
LINE
8
0
10
174795.165662
20
52088.917298
30
0.0
11
176478.562277
21
51873.915522
31
0.0
0
LINE
8
0
10
181281.607255
20
55209.759162
30
0.0
11
181149.406632
21
55486.773475
31
0.0
0
LINE
8
0
10
176478.562277
20
51873.915522
30
0.0
11
181149.406632
21
55486.773475
31
0.0
0
LINE
8
0
10
196469.996329
20
22687.340367
30
0.0
11
196611.534411
21
23087.299078
31
0.0
0
LINE
8
0
10
181281.607255
20
55209.759162
30
0.0
11
196611.534411
21
23087.299078
31
0.0
0
LINE
8
0
10
179080.316953
20
13391.228905
30
0.0
11
179480.275660
21
13249.690825
31
0.0
0
LINE
8
0
10
196045.411544
20
21487.547487
30
0.0
11
195903.873460
21
21087.588770
31
0.0
0
LINE
8
0
10
195903.873460
20
21087.588770
30
0.0
11
179480.275660
21
13249.690825
31
0.0
0
LINE
8
0
10
179080.316953
20
13391.228905
30
0.0
11
177316.294899
21
14015.484088
31
0.0
0
LINE
8
0
10
196469.996329
20
22687.340367
30
0.0
11
196045.411544
21
21487.547487
31
0.0
0
LINE
8
0
10
183321.844873
20
53672.058290
30
0.0
11
182305.489943
21
53734.878470
31
0.0
0
LINE
8
0
10
184283.855997
20
51654.881548
30
0.0
11
183321.256530
21
53671.777493
31
0.0
0
LINE
8
0
10
183700.835141
20
50835.810461
30
0.0
11
184283.855997
21
51654.881548
31
0.0
0
LINE
8
0
10
185950.296855
20
48167.354264
30
0.0
11
184933.941924
21
48230.174445
31
0.0
0
LINE
8
0
10
186912.307978
20
46150.177523
30
0.0
11
185949.708512
21
48167.073467
31
0.0
0
LINE
8
0
10
186328.436704
20
45329.911704
30
0.0
11
186912.307978
21
46150.177523
31
0.0
0
LINE
8
0
10
188577.013055
20
42661.952142
30
0.0
11
187560.658125
21
42724.772322
31
0.0
0
LINE
8
0
10
189539.024178
20
40644.775400
30
0.0
11
188576.424712
21
42661.671345
31
0.0
0
LINE
8
0
10
188955.541033
20
39825.054854
30
0.0
11
189539.024178
21
40644.775400
31
0.0
0
LINE
8
0
10
191204.956623
20
37156.982512
30
0.0
11
190199.177011
21
37219.149040
31
0.0
0
LINE
8
0
10
192166.967747
20
35139.805771
30
0.0
11
191204.368280
21
37156.701715
31
0.0
0
LINE
8
0
10
191583.020030
20
34319.432560
30
0.0
11
192166.967747
21
35139.805771
31
0.0
0
LINE
8
0
10
193831.647194
20
31651.575590
30
0.0
11
192826.564409
21
31713.699047
31
0.0
0
LINE
8
0
10
194793.658318
20
29634.398849
30
0.0
11
193831.058851
21
31651.294793
31
0.0
0
LINE
8
0
10
194210.115444
20
28814.594391
30
0.0
11
194793.658318
21
29634.398849
31
0.0
0
LINE
8
0
10
196458.928676
20
26146.445282
30
0.0
11
195453.797824
21
26208.571710
31
0.0
0
LINE
8
0
10
197420.939799
20
24129.268540
30
0.0
11
196458.340333
21
26146.164484
31
0.0
0
LINE
8
0
10
196837.368999
20
23309.424851
30
0.0
11
197420.939799
21
24129.268540
31
0.0
0
LINE
8
0
10
193186.354704
20
18483.318993
30
0.0
11
193248.760040
21
19487.887516
31
0.0
0
LINE
8
0
10
191245.001224
20
17556.909423
30
0.0
11
193186.354704
21
18483.318993
31
0.0
0
LINE
8
0
10
190425.251354
20
18140.413441
30
0.0
11
191245.001224
21
17556.909423
31
0.0
0
LINE
8
0
10
187825.018398
20
15924.785496
30
0.0
11
187887.418743
21
16929.273675
31
0.0
0
LINE
8
0
10
185883.664918
20
14998.375927
30
0.0
11
187825.018398
21
15924.785496
31
0.0
0
LINE
8
0
10
185063.980616
20
15581.833273
30
0.0
11
185883.664918
21
14998.375927
31
0.0
0
LINE
8
0
10
182463.455759
20
13366.008073
30
0.0
11
182525.856601
21
14370.504249
31
0.0
0
LINE
8
0
10
180522.102279
20
12439.598504
30
0.0
11
182463.455759
21
13366.008073
31
0.0
0
LINE
8
0
10
179702.369241
20
13023.090540
30
0.0
11
180522.102279
21
12439.598504
31
0.0
0
LINE
8
0
10
173563.602782
20
16448.530205
30
0.0
11
174558.579110
21
16599.963385
31
0.0
0
LINE
8
0
10
172170.405137
20
18248.709912
30
0.0
11
173563.602782
21
16448.530205
31
0.0
0
LINE
8
0
10
172567.639745
20
19173.969394
30
0.0
11
172170.405137
21
18248.709912
31
0.0
0
LINE
8
0
10
169770.238376
20
21352.730372
30
0.0
11
170765.276439
21
21504.172947
31
0.0
0
LINE
8
0
10
168377.040731
20
23152.910078
30
0.0
11
169770.238376
21
21352.730372
31
0.0
0
LINE
8
0
10
168774.299969
20
24078.226929
30
0.0
11
168377.040731
21
23152.910078
31
0.0
0
LINE
8
0
10
165976.913045
20
26256.880019
30
0.0
11
166972.012844
21
26408.331991
31
0.0
0
LINE
8
0
10
164583.715401
20
28057.059726
30
0.0
11
165976.913045
21
26256.880019
31
0.0
0
LINE
8
0
10
164980.999268
20
28982.433945
30
0.0
11
164583.715401
21
28057.059726
31
0.0
0
LINE
8
0
10
162183.587756
20
31161.029614
30
0.0
11
163178.749290
21
31312.490981
31
0.0
0
LINE
8
0
10
160790.390112
20
32961.209321
30
0.0
11
162183.587756
21
31161.029614
31
0.0
0
LINE
8
0
10
161187.698608
20
33886.640908
30
0.0
11
160790.390112
21
32961.209321
31
0.0
0
LINE
8
0
10
158390.262467
20
36065.179209
30
0.0
11
159385.485735
21
36216.649972
31
0.0
0
LINE
8
0
10
156997.064822
20
37865.358916
30
0.0
11
158390.262467
21
36065.179209
31
0.0
0
LINE
8
0
10
157394.397948
20
38790.847871
30
0.0
11
156997.064822
21
37865.358916
31
0.0
0
LINE
8
0
10
178788.311425
20
54039.472141
30
0.0
11
177862.302831
21
54437.018306
31
0.0
0
LINE
8
0
10
177862.302831
20
54437.018306
30
0.0
11
176615.253816
21
53472.397186
31
0.0
0
LINE
8
0
10
176615.253816
20
53472.397186
30
0.0
11
176767.201327
21
52476.186103
31
0.0
0
LINE
8
0
10
172254.462597
20
50882.018179
30
0.0
11
171328.519699
21
51279.536140
31
0.0
0
LINE
8
0
10
171328.519699
20
51279.536140
30
0.0
11
170081.470685
21
50314.915020
31
0.0
0
LINE
8
0
10
170081.470685
20
50314.915020
30
0.0
11
170233.407415
21
49318.774617
31
0.0
0
LINE
8
0
10
165720.613770
20
47724.564216
30
0.0
11
164794.736568
21
48122.053973
31
0.0
0
LINE
8
0
10
164794.736568
20
48122.053973
30
0.0
11
163547.687553
21
47157.432853
31
0.0
0
LINE
8
0
10
163547.687553
20
47157.432853
30
0.0
11
163699.613503
21
46161.363131
31
0.0
0
LINE
8
0
10
159186.764942
20
44567.110254
30
0.0
11
158260.953437
21
44964.571807
31
0.0
0
LINE
8
0
10
158260.953437
20
44964.571807
30
0.0
11
157013.904422
21
43999.950687
31
0.0
0
LINE
8
0
10
157013.904422
20
43999.950687
30
0.0
11
157165.819591
21
43003.951645
31
0.0
0
LINE
8
0
10
163751.341016
20
45822.222847
30
0.0
11
166035.815706
21
47589.244391
31
0.0
0
LINE
8
0
10
166035.815706
20
47589.244391
30
0.0
11
164794.736568
21
48122.053973
31
0.0
0
LINE
8
0
10
164794.736568
20
48122.053973
30
0.0
11
163547.687553
21
47157.432853
31
0.0
0
LINE
8
0
10
163547.687553
20
47157.432853
30
0.0
11
163751.341016
21
45822.222847
31
0.0
0
LINE
8
0
10
157217.556673
20
42664.748624
30
0.0
11
159502.025200
21
44431.765391
31
0.0
0
LINE
8
0
10
159502.025200
20
44431.765391
30
0.0
11
158260.953437
21
44964.571807
31
0.0
0
LINE
8
0
10
158260.953437
20
44964.571807
30
0.0
11
157013.904422
21
43999.950687
31
0.0
0
LINE
8
0
10
157013.904422
20
43999.950687
30
0.0
11
157217.556673
21
42664.748624
31
0.0
0
LINE
8
0
10
170285.124264
20
48979.704246
30
0.0
11
172569.597293
21
50746.727220
31
0.0
0
LINE
8
0
10
172569.597293
20
50746.727220
30
0.0
11
171328.519699
21
51279.536140
31
0.0
0
LINE
8
0
10
171328.519699
20
51279.536140
30
0.0
11
170081.470685
21
50314.915020
31
0.0
0
LINE
8
0
10
170081.470685
20
50314.915020
30
0.0
11
170285.124264
21
48979.704246
31
0.0
0
LINE
8
0
10
176818.909697
20
52137.171325
30
0.0
11
179103.396714
21
53904.202394
31
0.0
0
LINE
8
0
10
179103.396714
20
53904.202394
30
0.0
11
177862.302831
21
54437.018306
31
0.0
0
LINE
8
0
10
177862.302831
20
54437.018306
30
0.0
11
176615.253816
21
53472.397186
31
0.0
0
LINE
8
0
10
176615.253816
20
53472.397186
30
0.0
11
176818.909697
21
52137.171325
31
0.0
0
LINE
8
0
10
181975.743643
20
53755.259856
30
0.0
11
183502.187760
21
50556.735836
31
0.0
0
LINE
8
0
10
183502.187760
20
50556.735836
30
0.0
11
184283.855997
21
51654.881548
31
0.0
0
LINE
8
0
10
184283.855997
20
51654.881548
30
0.0
11
183321.100558
21
53672.104295
31
0.0
0
LINE
8
0
10
183321.100558
20
53672.104295
30
0.0
11
181975.743643
21
53755.259856
31
0.0
0
LINE
8
0
10
184602.731879
20
48250.646304
30
0.0
11
186037.797332
21
45243.597917
31
0.0
0
LINE
8
0
10
186037.797332
20
45243.597917
30
0.0
11
186129.789333
21
45050.837094
31
0.0
0
LINE
8
0
10
186129.789333
20
45050.837094
30
0.0
11
186912.307978
21
46150.177523
31
0.0
0
LINE
8
0
10
186912.307978
20
46150.177523
30
0.0
11
185949.552540
21
48167.400270
31
0.0
0
LINE
8
0
10
185949.552540
20
48167.400270
30
0.0
11
184602.731879
21
48250.646304
31
0.0
0
LINE
8
0
10
187230.116155
20
42745.202888
30
0.0
11
188665.073804
21
39738.380394
31
0.0
0
LINE
8
0
10
188665.073804
20
39738.380394
30
0.0
11
188756.893673
21
39545.980258
31
0.0
0
LINE
8
0
10
188756.893673
20
39545.980258
30
0.0
11
189539.024178
21
40644.775400
31
0.0
0
LINE
8
0
10
189539.024178
20
40644.775400
30
0.0
11
188576.268740
21
42661.998147
31
0.0
0
LINE
8
0
10
188576.268740
20
42661.998147
30
0.0
11
187230.116155
21
42745.202888
31
0.0
0
LINE
8
0
10
189857.250452
20
37240.283279
30
0.0
11
189957.176663
21
37030.897046
31
0.0
0
LINE
8
0
10
189957.176663
20
37030.897046
30
0.0
11
191384.367070
21
34040.350097
31
0.0
0
LINE
8
0
10
191384.367070
20
34040.350097
30
0.0
11
192166.967747
21
35139.805771
31
0.0
0
LINE
8
0
10
192166.967747
20
35139.805771
30
0.0
11
191204.212308
21
37157.028518
31
0.0
0
LINE
8
0
10
191204.212308
20
37157.028518
30
0.0
11
189857.250452
21
37240.283279
31
0.0
0
LINE
8
0
10
192484.637868
20
31734.833285
30
0.0
11
192584.453132
21
31525.679529
31
0.0
0
LINE
8
0
10
192584.453132
20
31525.679529
30
0.0
11
194011.462494
21
28535.511943
31
0.0
0
LINE
8
0
10
194011.462494
20
28535.511943
30
0.0
11
194793.658318
21
29634.398849
31
0.0
0
LINE
8
0
10
194793.658318
20
29634.398849
30
0.0
11
193830.902879
21
31651.621595
31
0.0
0
LINE
8
0
10
193830.902879
20
31651.621595
30
0.0
11
192484.637868
21
31734.833285
31
0.0
0
LINE
8
0
10
195111.871301
20
26229.705947
30
0.0
11
195211.729551
21
26020.462117
31
0.0
0
LINE
8
0
10
195211.729551
20
26020.462117
30
0.0
11
196638.716060
21
23030.342417
31
0.0
0
LINE
8
0
10
196638.716060
20
23030.342417
30
0.0
11
197420.939799
21
24129.268540
31
0.0
0
LINE
8
0
10
197420.939799
20
24129.268540
30
0.0
11
196458.184360
21
26146.491287
31
0.0
0
LINE
8
0
10
196458.184360
20
26146.491287
30
0.0
11
195111.871301
21
26229.705947
31
0.0
0
LINE
8
0
10
193270.052350
20
19830.639999
30
0.0
11
190145.537751
21
18339.515652
31
0.0
0
LINE
8
0
10
190145.537751
20
18339.515652
30
0.0
11
191245.001224
21
17556.909423
31
0.0
0
LINE
8
0
10
191245.001224
20
17556.909423
30
0.0
11
193186.354704
21
18483.318993
31
0.0
0
LINE
8
0
10
193186.354704
20
18483.318993
30
0.0
11
193270.052350
21
19830.639999
31
0.0
0
LINE
8
0
10
187908.711048
20
17272.026078
30
0.0
11
184784.267079
21
15780.935437
31
0.0
0
LINE
8
0
10
184784.267079
20
15780.935437
30
0.0
11
185883.664918
21
14998.375927
31
0.0
0
LINE
8
0
10
185883.664918
20
14998.375927
30
0.0
11
187825.018398
21
15924.785496
31
0.0
0
LINE
8
0
10
187825.018398
20
15924.785496
30
0.0
11
187908.711048
21
17272.026078
31
0.0
0
LINE
8
0
10
182547.152114
20
14713.308294
30
0.0
11
179422.655768
21
13222.192658
31
0.0
0
LINE
8
0
10
179422.655768
20
13222.192658
30
0.0
11
180522.102279
21
12439.598504
31
0.0
0
LINE
8
0
10
180522.102279
20
12439.598504
30
0.0
11
182463.455759
21
13366.008073
31
0.0
0
LINE
8
0
10
182463.455759
20
13366.008073
30
0.0
11
182547.152114
21
14713.308294
31
0.0
0
LINE
8
0
10
174898.040363
20
16651.628631
30
0.0
11
174565.397200
21
17081.692798
31
0.0
0
LINE
8
0
10
174565.397200
20
17081.692798
30
0.0
11
172703.074990
21
19489.432201
31
0.0
0
LINE
8
0
10
172703.074990
20
19489.432201
30
0.0
11
172170.405137
21
18248.709912
31
0.0
0
LINE
8
0
10
172170.405137
20
18248.709912
30
0.0
11
173563.602782
21
16448.530205
31
0.0
0
LINE
8
0
10
173563.602782
20
16448.530205
30
0.0
11
174898.040363
21
16651.628631
31
0.0
0
LINE
8
0
10
171104.762186
20
21555.841921
30
0.0
11
170802.701920
21
21946.366396
31
0.0
0
LINE
8
0
10
170802.701920
20
21946.366396
30
0.0
11
168909.744986
21
24393.712497
31
0.0
0
LINE
8
0
10
168909.744986
20
24393.712497
30
0.0
11
168377.040731
21
23152.910078
31
0.0
0
LINE
8
0
10
168377.040731
20
23152.910078
30
0.0
11
169770.238376
21
21352.730372
31
0.0
0
LINE
8
0
10
169770.238376
20
21352.730372
30
0.0
11
171104.762186
21
21555.841921
31
0.0
0
LINE
8
0
10
167311.523083
20
26460.004693
30
0.0
11
167009.436893
21
26850.562686
31
0.0
0
LINE
8
0
10
167009.436893
20
26850.562686
30
0.0
11
165116.454056
21
29297.942274
31
0.0
0
LINE
8
0
10
165116.454056
20
29297.942274
30
0.0
11
164583.715401
21
28057.059726
31
0.0
0
LINE
8
0
10
164583.715401
20
28057.059726
30
0.0
11
165976.913045
21
26256.880019
31
0.0
0
LINE
8
0
10
165976.913045
20
26256.880019
30
0.0
11
167311.523083
21
26460.004693
31
0.0
0
LINE
8
0
10
163518.284022
20
31364.167411
30
0.0
11
163277.353598
21
31675.658984
31
0.0
0
LINE
8
0
10
163277.353598
20
31675.658984
30
0.0
11
161323.163168
21
34202.171997
31
0.0
0
LINE
8
0
10
161323.163168
20
34202.171997
30
0.0
11
160790.390112
21
32961.209321
31
0.0
0
LINE
8
0
10
160790.390112
20
32961.209321
30
0.0
11
162183.587756
21
31161.029614
31
0.0
0
LINE
8
0
10
162183.587756
20
31161.029614
30
0.0
11
163518.284022
21
31364.167411
31
0.0
0
LINE
8
0
10
159725.044960
20
36268.330130
30
0.0
11
157529.872280
21
39106.401721
31
0.0
0
LINE
8
0
10
157529.872280
20
39106.401721
30
0.0
11
156997.064822
21
37865.358916
31
0.0
0
LINE
8
0
10
156997.064822
20
37865.358916
30
0.0
11
158390.262467
21
36065.179209
31
0.0
0
LINE
8
0
10
158390.262467
20
36065.179209
30
0.0
11
159725.044960
21
36268.330130
31
0.0
0
LINE
8
0
10
181250.464822
20
55629.275951
30
0.0
11
181446.567787
21
55559.441165
31
0.0
0
LINE
8
0
10
181250.464822
20
55629.275951
30
0.0
11
181033.576690
21
55586.503439
31
0.0
0
LINE
8
0
10
181446.567787
20
55559.441165
30
0.0
11
181483.448634
21
55133.826040
31
0.0
0
LINE
8
0
10
181033.576690
20
55586.503439
30
0.0
11
181483.448634
21
55133.826040
31
0.0
0
LINE
8
0
10
181033.576690
20
55586.503439
30
0.0
11
181483.448634
21
55133.826040
31
0.0
0
LINE
8
0
10
181033.576690
20
55586.503439
30
0.0
11
181348.074436
21
55069.220883
31
0.0
0
LINE
8
0
10
181483.448634
20
55133.826040
30
0.0
11
181348.074436
21
55069.220883
31
0.0
0
LINE
8
0
10
184327.394468
20
51564.190477
30
0.0
11
183364.812758
21
53581.094895
31
0.0
0
LINE
8
0
10
184350.514111
20
51562.181815
30
0.0
11
184343.688113
21
51552.592324
31
0.0
0
LINE
8
0
10
184343.688113
20
51552.592324
30
0.0
11
183753.281344
21
50723.160411
31
0.0
0
LINE
8
0
10
183377.793360
20
53600.330637
30
0.0
11
184345.444200
21
51572.804837
31
0.0
0
LINE
8
0
10
184345.444200
20
51572.804837
30
0.0
11
184350.514111
21
51562.181815
31
0.0
0
LINE
8
0
10
182350.280733
20
53664.166709
30
0.0
11
183366.635110
21
53601.337581
31
0.0
0
LINE
8
0
10
183366.635110
20
53601.337581
30
0.0
11
183378.381706
21
53600.611429
31
0.0
0
LINE
8
0
10
183744.215032
20
50744.911869
30
0.0
11
184327.394468
21
51564.190477
31
0.0
0
LINE
8
0
10
184327.394468
20
51564.190477
30
0.0
11
183364.812758
21
53581.094895
31
0.0
0
LINE
8
0
10
183364.812758
20
53581.094895
30
0.0
11
184327.394468
21
51564.190477
31
0.0
0
LINE
8
0
10
183365.401103
20
53581.375687
30
0.0
11
182360.266404
21
53643.511235
31
0.0
0
LINE
8
0
10
183365.401103
20
53581.375687
30
0.0
11
184327.394468
21
51564.190477
31
0.0
0
LINE
8
0
10
184345.444200
20
51572.804837
30
0.0
11
183383.450834
21
53589.990047
31
0.0
0
LINE
8
0
10
183383.450834
20
53589.990047
30
0.0
11
183378.381706
21
53600.611429
31
0.0
0
LINE
8
0
10
186955.209645
20
46059.182521
30
0.0
11
185992.627934
21
48076.086939
31
0.0
0
LINE
8
0
10
186978.329287
20
46057.173859
30
0.0
11
186971.503289
21
46047.584368
31
0.0
0
LINE
8
0
10
186971.503289
20
46047.584368
30
0.0
11
186381.096520
21
45218.152455
31
0.0
0
LINE
8
0
10
186005.608537
20
48095.322681
30
0.0
11
186973.259376
21
46067.796881
31
0.0
0
LINE
8
0
10
186973.259376
20
46067.796881
30
0.0
11
186978.329287
21
46057.173859
31
0.0
0
LINE
8
0
10
184978.095909
20
48159.158753
30
0.0
11
185994.450286
21
48096.329625
31
0.0
0
LINE
8
0
10
185994.450286
20
48096.329625
30
0.0
11
186006.196882
21
48095.603473
31
0.0
0
LINE
8
0
10
186371.647833
20
45239.366735
30
0.0
11
186955.209645
21
46059.182521
31
0.0
0
LINE
8
0
10
186955.209645
20
46059.182521
30
0.0
11
185992.627934
21
48076.086939
31
0.0
0
LINE
8
0
10
185992.627934
20
48076.086939
30
0.0
11
186955.209645
21
46059.182521
31
0.0
0
LINE
8
0
10
185993.216279
20
48076.367731
30
0.0
11
184988.081580
21
48138.503279
31
0.0
0
LINE
8
0
10
185993.216279
20
48076.367731
30
0.0
11
186955.209645
21
46059.182521
31
0.0
0
LINE
8
0
10
186973.259376
20
46067.796881
30
0.0
11
186011.266011
21
48084.982091
31
0.0
0
LINE
8
0
10
186011.266011
20
48084.982091
30
0.0
11
186006.196882
21
48095.603473
31
0.0
0
LINE
8
0
10
189582.455137
20
40554.029877
30
0.0
11
188619.873426
21
42570.934295
31
0.0
0
LINE
8
0
10
189605.574779
20
40552.021216
30
0.0
11
189598.748781
21
40542.431724
31
0.0
0
LINE
8
0
10
189598.748781
20
40542.431724
30
0.0
11
189008.342012
21
39712.999811
31
0.0
0
LINE
8
0
10
188632.854029
20
42590.170037
30
0.0
11
189600.504868
21
40562.644237
31
0.0
0
LINE
8
0
10
189600.504868
20
40562.644237
30
0.0
11
189605.574779
21
40552.021216
31
0.0
0
LINE
8
0
10
187605.341401
20
42654.006109
30
0.0
11
188621.695778
21
42591.176981
31
0.0
0
LINE
8
0
10
188621.695778
20
42591.176981
30
0.0
11
188633.442374
21
42590.450829
31
0.0
0
LINE
8
0
10
188998.893325
20
39734.214091
30
0.0
11
189582.455137
21
40554.029877
31
0.0
0
LINE
8
0
10
189582.455137
20
40554.029877
30
0.0
11
188619.873426
21
42570.934295
31
0.0
0
LINE
8
0
10
188619.873426
20
42570.934295
30
0.0
11
189582.455137
21
40554.029877
31
0.0
0
LINE
8
0
10
188620.461771
20
42571.215087
30
0.0
11
187615.327072
21
42633.350636
31
0.0
0
LINE
8
0
10
188620.461771
20
42571.215087
30
0.0
11
189582.455137
21
40554.029877
31
0.0
0
LINE
8
0
10
189600.504868
20
40562.644237
30
0.0
11
188638.511503
21
42579.829447
31
0.0
0
LINE
8
0
10
188638.511503
20
42579.829447
30
0.0
11
188633.442374
21
42590.450829
31
0.0
0
LINE
8
0
10
188919.264605
20
39901.068791
30
0.0
11
189005.404815
21
39720.569860
31
0.0
0
LINE
8
0
10
188919.264605
20
39901.068791
30
0.0
11
188654.680092
21
40107.212031
31
0.0
0
LINE
8
0
10
189005.404815
20
39720.569860
30
0.0
11
188999.240931
21
39385.216305
31
0.0
0
LINE
8
0
10
188654.680092
20
40107.212031
30
0.0
11
188999.240931
21
39385.216305
31
0.0
0
LINE
8
0
10
187605.594437
20
42653.744483
30
0.0
11
187691.734647
21
42473.245551
31
0.0
0
LINE
8
0
10
187605.594437
20
42653.744483
30
0.0
11
187341.009924
21
42859.887722
31
0.0
0
LINE
8
0
10
187691.734647
20
42473.245551
30
0.0
11
187685.570763
21
42137.891997
31
0.0
0
LINE
8
0
10
187341.009924
20
42859.887722
30
0.0
11
187685.570763
21
42137.891997
31
0.0
0
LINE
8
0
10
186291.960449
20
45406.344361
30
0.0
11
186378.100659
21
45225.845430
31
0.0
0
LINE
8
0
10
186291.960449
20
45406.344361
30
0.0
11
186027.375935
21
45612.487601
31
0.0
0
LINE
8
0
10
186378.100659
20
45225.845430
30
0.0
11
186371.936775
21
44890.491875
31
0.0
0
LINE
8
0
10
186027.375935
20
45612.487601
30
0.0
11
186371.936775
21
44890.491875
31
0.0
0
LINE
8
0
10
184978.336163
20
48158.923910
30
0.0
11
185064.476373
21
47978.424979
31
0.0
0
LINE
8
0
10
184978.336163
20
48158.923910
30
0.0
11
184713.751649
21
48365.067150
31
0.0
0
LINE
8
0
10
185064.476373
20
47978.424979
30
0.0
11
185058.312489
21
47643.071424
31
0.0
0
LINE
8
0
10
184713.751649
20
48365.067150
30
0.0
11
185058.312489
21
47643.071424
31
0.0
0
LINE
8
0
10
183664.714957
20
50911.497005
30
0.0
11
183750.855167
21
50730.998073
31
0.0
0
LINE
8
0
10
183664.714957
20
50911.497005
30
0.0
11
183400.130443
21
51117.640245
31
0.0
0
LINE
8
0
10
183750.855167
20
50730.998073
30
0.0
11
183744.691283
21
50395.644519
31
0.0
0
LINE
8
0
10
183400.130443
20
51117.640245
30
0.0
11
183744.691283
21
50395.644519
31
0.0
0
LINE
8
0
10
188654.650821
20
40107.273366
30
0.0
11
188999.211660
21
39385.277640
31
0.0
0
LINE
8
0
10
188654.650821
20
40107.273366
30
0.0
11
188519.276622
21
40042.668209
31
0.0
0
LINE
8
0
10
188999.211660
20
39385.277640
30
0.0
11
188863.837462
21
39320.672483
31
0.0
0
LINE
8
0
10
188519.276622
20
40042.668209
30
0.0
11
188863.837462
21
39320.672483
31
0.0
0
LINE
8
0
10
187341.027827
20
42859.850206
30
0.0
11
187685.588667
21
42137.854481
31
0.0
0
LINE
8
0
10
187341.027827
20
42859.850206
30
0.0
11
187205.653629
21
42795.245049
31
0.0
0
LINE
8
0
10
187685.588667
20
42137.854481
30
0.0
11
187550.214468
21
42073.249323
31
0.0
0
LINE
8
0
10
187205.653629
20
42795.245049
30
0.0
11
187550.214468
21
42073.249323
31
0.0
0
LINE
8
0
10
186027.379578
20
45612.479969
30
0.0
11
186371.940417
21
44890.484243
31
0.0
0
LINE
8
0
10
186027.379578
20
45612.479969
30
0.0
11
185892.005379
21
45547.874811
31
0.0
0
LINE
8
0
10
186371.940417
20
44890.484243
30
0.0
11
186236.566219
21
44825.879086
31
0.0
0
LINE
8
0
10
185892.005379
20
45547.874811
30
0.0
11
186236.566219
21
44825.879086
31
0.0
0
LINE
8
0
10
184713.749674
20
48365.071289
30
0.0
11
185058.310513
21
47643.075563
31
0.0
0
LINE
8
0
10
184713.749674
20
48365.071289
30
0.0
11
184578.375475
21
48300.466132
31
0.0
0
LINE
8
0
10
185058.310513
20
47643.075563
30
0.0
11
184922.936315
21
47578.470406
31
0.0
0
LINE
8
0
10
184578.375475
20
48300.466132
30
0.0
11
184922.936315
21
47578.470406
31
0.0
0
LINE
8
0
10
183400.126680
20
51117.648129
30
0.0
11
183744.687520
21
50395.652404
31
0.0
0
LINE
8
0
10
183400.126680
20
51117.648129
30
0.0
11
183264.752482
21
51053.042972
31
0.0
0
LINE
8
0
10
183744.687520
20
50395.652404
30
0.0
11
183609.313321
21
50331.047246
31
0.0
0
LINE
8
0
10
183264.752482
20
51053.042972
30
0.0
11
183609.313321
21
50331.047246
31
0.0
0
LINE
8
0
10
182350.520986
20
53663.931866
30
0.0
11
182436.661196
21
53483.432935
31
0.0
0
LINE
8
0
10
182350.520986
20
53663.931866
30
0.0
11
182085.936473
21
53870.075106
31
0.0
0
LINE
8
0
10
182436.661196
20
53483.432935
30
0.0
11
182430.497312
21
53148.079380
31
0.0
0
LINE
8
0
10
182085.936473
20
53870.075106
30
0.0
11
182430.497312
21
53148.079380
31
0.0
0
LINE
8
0
10
182085.936473
20
53870.075106
30
0.0
11
182430.497312
21
53148.079380
31
0.0
0
LINE
8
0
10
182085.936473
20
53870.075106
30
0.0
11
181950.562274
21
53805.469948
31
0.0
0
LINE
8
0
10
182430.497312
20
53148.079380
30
0.0
11
182295.123114
21
53083.474223
31
0.0
0
LINE
8
0
10
181950.562274
20
53805.469948
30
0.0
11
182295.123114
21
53083.474223
31
0.0
0
LINE
8
0
10
188884.873223
20
39308.475680
30
0.0
11
188876.259202
21
39326.525573
31
0.0
0
LINE
8
0
10
188884.873223
20
39308.475680
30
0.0
11
188975.122689
21
39351.545785
31
0.0
0
LINE
8
0
10
188876.259202
20
39326.525574
30
0.0
11
188966.508668
21
39369.595678
31
0.0
0
LINE
8
0
10
188975.122689
20
39351.545785
30
0.0
11
188966.508668
21
39369.595678
31
0.0
0
LINE
8
0
10
188936.556560
20
39200.176362
30
0.0
11
188927.942539
21
39218.226255
31
0.0
0
LINE
8
0
10
188936.556560
20
39200.176362
30
0.0
11
189026.806026
21
39243.246467
31
0.0
0
LINE
8
0
10
188927.942539
20
39218.226255
30
0.0
11
189018.192005
21
39261.296360
31
0.0
0
LINE
8
0
10
189026.806026
20
39243.246467
30
0.0
11
189018.192005
21
39261.296360
31
0.0
0
LINE
8
0
10
188988.240298
20
39091.875822
30
0.0
11
188979.626277
21
39109.925715
31
0.0
0
LINE
8
0
10
188988.240298
20
39091.875822
30
0.0
11
189078.489764
21
39134.945926
31
0.0
0
LINE
8
0
10
188979.626277
20
39109.925715
30
0.0
11
189069.875743
21
39152.995820
31
0.0
0
LINE
8
0
10
189078.489764
20
39134.945926
30
0.0
11
189069.875743
21
39152.995820
31
0.0
0
LINE
8
0
10
189039.923848
20
38983.578363
30
0.0
11
189031.309827
21
39001.628256
31
0.0
0
LINE
8
0
10
189039.923848
20
38983.578363
30
0.0
11
189130.173313
21
39026.648468
31
0.0
0
LINE
8
0
10
189031.309827
20
39001.628256
30
0.0
11
189121.559293
21
39044.698361
31
0.0
0
LINE
8
0
10
189130.173313
20
39026.648468
30
0.0
11
189121.559293
21
39044.698361
31
0.0
0
LINE
8
0
10
189091.608791
20
38875.277982
30
0.0
11
189082.994770
21
38893.327875
31
0.0
0
LINE
8
0
10
189091.608791
20
38875.277982
30
0.0
11
189181.858257
21
38918.348087
31
0.0
0
LINE
8
0
10
189082.994770
20
38893.327875
30
0.0
11
189173.244236
21
38936.397980
31
0.0
0
LINE
8
0
10
189181.858257
20
38918.348087
30
0.0
11
189173.244236
21
38936.397980
31
0.0
0
LINE
8
0
10
189143.293836
20
38766.977952
30
0.0
11
189134.679815
21
38785.027845
31
0.0
0
LINE
8
0
10
189143.293836
20
38766.977952
30
0.0
11
189233.543301
21
38810.048057
31
0.0
0
LINE
8
0
10
189134.679815
20
38785.027845
30
0.0
11
189224.929280
21
38828.097950
31
0.0
0
LINE
8
0
10
189233.543301
20
38810.048057
30
0.0
11
189224.929280
21
38828.097950
31
0.0
0
LINE
8
0
10
189194.977386
20
38658.680493
30
0.0
11
189186.363365
21
38676.730386
31
0.0
0
LINE
8
0
10
189194.977386
20
38658.680493
30
0.0
11
189285.226851
21
38701.750598
31
0.0
0
LINE
8
0
10
189186.363365
20
38676.730386
30
0.0
11
189276.612830
21
38719.800491
31
0.0
0
LINE
8
0
10
189285.226851
20
38701.750598
30
0.0
11
189276.612830
21
38719.800491
31
0.0
0
LINE
8
0
10
189246.662194
20
38550.380394
30
0.0
11
189238.048173
21
38568.430288
31
0.0
0
LINE
8
0
10
189246.662194
20
38550.380394
30
0.0
11
189336.911660
21
38593.450499
31
0.0
0
LINE
8
0
10
189238.048173
20
38568.430288
30
0.0
11
189328.297639
21
38611.500392
31
0.0
0
LINE
8
0
10
189336.911660
20
38593.450499
30
0.0
11
189328.297639
21
38611.500392
31
0.0
0
LINE
8
0
10
189298.346098
20
38442.079474
30
0.0
11
189289.732077
21
38460.129368
31
0.0
0
LINE
8
0
10
189298.346098
20
38442.079474
30
0.0
11
189388.595563
21
38485.149579
31
0.0
0
LINE
8
0
10
189289.732077
20
38460.129368
30
0.0
11
189379.981542
21
38503.199473
31
0.0
0
LINE
8
0
10
189388.595563
20
38485.149579
30
0.0
11
189379.981542
21
38503.199473
31
0.0
0
LINE
8
0
10
189350.028764
20
38333.781594
30
0.0
11
189341.414743
21
38351.831487
31
0.0
0
LINE
8
0
10
189350.028764
20
38333.781594
30
0.0
11
189440.278230
21
38376.851699
31
0.0
0
LINE
8
0
10
189341.414743
20
38351.831487
30
0.0
11
189431.664209
21
38394.901592
31
0.0
0
LINE
8
0
10
189440.278230
20
38376.851699
30
0.0
11
189431.664209
21
38394.901592
31
0.0
0
LINE
8
0
10
189401.713546
20
38225.481552
30
0.0
11
189393.099525
21
38243.531445
31
0.0
0
LINE
8
0
10
189401.713546
20
38225.481552
30
0.0
11
189491.963012
21
38268.551657
31
0.0
0
LINE
8
0
10
189393.099525
20
38243.531445
30
0.0
11
189483.348991
21
38286.601550
31
0.0
0
LINE
8
0
10
189491.963012
20
38268.551657
30
0.0
11
189483.348991
21
38286.601550
31
0.0
0
LINE
8
0
10
189453.397938
20
38117.182693
30
0.0
11
189444.783917
21
38135.232587
31
0.0
0
LINE
8
0
10
189453.397938
20
38117.182693
30
0.0
11
189543.647403
21
38160.252798
31
0.0
0
LINE
8
0
10
189444.783917
20
38135.232587
30
0.0
11
189535.033382
21
38178.302691
31
0.0
0
LINE
8
0
10
189543.647403
20
38160.252798
30
0.0
11
189535.033382
21
38178.302691
31
0.0
0
LINE
8
0
10
189505.082302
20
38008.883725
30
0.0
11
189496.468281
21
38026.933618
31
0.0
0
LINE
8
0
10
189505.082302
20
38008.883725
30
0.0
11
189595.331767
21
38051.953830
31
0.0
0
LINE
8
0
10
189496.468281
20
38026.933618
30
0.0
11
189586.717746
21
38070.003723
31
0.0
0
LINE
8
0
10
189595.331767
20
38051.953830
30
0.0
11
189586.717746
21
38070.003723
31
0.0
0
LINE
8
0
10
189556.767084
20
37900.583682
30
0.0
11
189548.153063
21
37918.633576
31
0.0
0
LINE
8
0
10
189556.767084
20
37900.583682
30
0.0
11
189647.016549
21
37943.653787
31
0.0
0
LINE
8
0
10
189548.153063
20
37918.633576
30
0.0
11
189638.402528
21
37961.703680
31
0.0
0
LINE
8
0
10
189647.016549
20
37943.653787
30
0.0
11
189638.402528
21
37961.703680
31
0.0
0
LINE
8
0
10
189608.449685
20
37792.285771
30
0.0
11
189599.835664
21
37810.335664
31
0.0
0
LINE
8
0
10
189608.449685
20
37792.285771
30
0.0
11
189698.699151
21
37835.355876
31
0.0
0
LINE
8
0
10
189599.835664
20
37810.335664
30
0.0
11
189690.085130
21
37853.405769
31
0.0
0
LINE
8
0
10
189698.699151
20
37835.355876
30
0.0
11
189690.085130
21
37853.405769
31
0.0
0
LINE
8
0
10
189660.133680
20
37683.984826
30
0.0
11
189651.519659
21
37702.034719
31
0.0
0
LINE
8
0
10
189660.133680
20
37683.984826
30
0.0
11
189750.383146
21
37727.054931
31
0.0
0
LINE
8
0
10
189651.519659
20
37702.034719
30
0.0
11
189741.769125
21
37745.104824
31
0.0
0
LINE
8
0
10
189750.383146
20
37727.054931
30
0.0
11
189741.769125
21
37745.104824
31
0.0
0
LINE
8
0
10
189711.818462
20
37575.684783
30
0.0
11
189703.204441
21
37593.734676
31
0.0
0
LINE
8
0
10
189711.818462
20
37575.684783
30
0.0
11
189802.067928
21
37618.754888
31
0.0
0
LINE
8
0
10
189703.204441
20
37593.734676
30
0.0
11
189793.453907
21
37636.804781
31
0.0
0
LINE
8
0
10
189802.067928
20
37618.754888
30
0.0
11
189793.453907
21
37636.804781
31
0.0
0
LINE
8
0
10
189763.502046
20
37467.387341
30
0.0
11
189754.888025
21
37485.437234
31
0.0
0
LINE
8
0
10
189763.502046
20
37467.387341
30
0.0
11
189853.751512
21
37510.457446
31
0.0
0
LINE
8
0
10
189754.888025
20
37485.437234
30
0.0
11
189845.137491
21
37528.507339
31
0.0
0
LINE
8
0
10
189853.751512
20
37510.457446
30
0.0
11
189845.137491
21
37528.507339
31
0.0
0
LINE
8
0
10
157148.356757
20
42990.444511
30
0.0
11
157306.556208
21
43112.808451
31
0.0
0
LINE
8
0
10
157148.356757
20
42990.444511
30
0.0
11
157002.830535
21
42688.249014
31
0.0
0
LINE
8
0
10
157306.556208
20
43112.808451
30
0.0
11
157635.628340
21
43177.704771
31
0.0
0
LINE
8
0
10
157002.830535
20
42688.249014
30
0.0
11
157635.628340
21
43177.704771
31
0.0
0
LINE
8
0
10
157002.830535
20
42688.249014
30
0.0
11
157635.628340
21
43177.704771
31
0.0
0
LINE
8
0
10
157002.830535
20
42688.249014
30
0.0
11
157094.603489
21
42569.599426
31
0.0
0
LINE
8
0
10
157635.628340
20
43177.704771
30
0.0
11
157727.401294
21
43059.055183
31
0.0
0
LINE
8
0
10
157094.603489
20
42569.599426
30
0.0
11
157727.401294
21
43059.055183
31
0.0
0
LINE
8
0
10
160944.872325
20
45926.969237
30
0.0
11
161103.071776
21
46049.333177
31
0.0
0
LINE
8
0
10
160944.872325
20
45926.969237
30
0.0
11
160799.346102
21
45624.773740
31
0.0
0
LINE
8
0
10
161103.071776
20
46049.333177
30
0.0
11
161432.143907
21
46114.229497
31
0.0
0
LINE
8
0
10
160799.346102
20
45624.773740
30
0.0
11
161432.143907
21
46114.229497
31
0.0
0
LINE
8
0
10
163682.167685
20
46147.869159
30
0.0
11
163840.367136
21
46270.233098
31
0.0
0
LINE
8
0
10
163682.167685
20
46147.869159
30
0.0
11
163536.641462
21
45845.673661
31
0.0
0
LINE
8
0
10
163840.367136
20
46270.233098
30
0.0
11
164169.439267
21
46335.129418
31
0.0
0
LINE
8
0
10
163536.641462
20
45845.673661
30
0.0
11
164169.439267
21
46335.129418
31
0.0
0
LINE
8
0
10
163058.858713
20
45755.010103
30
0.0
11
163536.642263
21
45845.673559
31
0.0
0
LINE
8
0
10
163058.858591
20
45755.010119
30
0.0
11
163039.892993
21
45606.684462
31
0.0
0
LINE
8
0
10
163536.640605
20
45845.673771
30
0.0
11
163498.583059
21
45548.034314
31
0.0
0
LINE
8
0
10
163039.892998
20
45606.684502
30
0.0
11
163498.583059
21
45548.034314
31
0.0
0
LINE
8
0
10
161432.143907
20
46114.229497
30
0.0
11
161810.242264
21
45914.662891
31
0.0
0
LINE
8
0
10
161432.143907
20
46114.229497
30
0.0
11
161394.086371
21
45816.590039
31
0.0
0
LINE
8
0
10
161810.241396
20
45914.663002
30
0.0
11
161791.208652
21
45765.812176
31
0.0
0
LINE
8
0
10
161394.086371
20
45816.590039
30
0.0
11
161791.208652
21
45765.812176
31
0.0
0
LINE
8
0
10
180546.305107
20
55399.243179
30
0.0
11
180704.504558
21
55521.607118
31
0.0
0
LINE
8
0
10
180546.305107
20
55399.243179
30
0.0
11
180400.778885
21
55097.047682
31
0.0
0
LINE
8
0
10
180704.504558
20
55521.607118
30
0.0
11
181033.576690
21
55586.503439
31
0.0
0
LINE
8
0
10
180400.778885
20
55097.047682
30
0.0
11
181033.576690
21
55586.503439
31
0.0
0
LINE
8
0
10
180400.778885
20
55097.047682
30
0.0
11
181033.576690
21
55586.503439
31
0.0
0
LINE
8
0
10
180400.778885
20
55097.047682
30
0.0
11
180492.551839
21
54978.398093
31
0.0
0
LINE
8
0
10
181033.576690
20
55586.503439
30
0.0
11
181125.349644
21
55467.853850
31
0.0
0
LINE
8
0
10
180492.551839
20
54978.398093
30
0.0
11
181125.349644
21
55467.853850
31
0.0
0
LINE
8
0
10
167478.683252
20
49084.393885
30
0.0
11
167636.882704
21
49206.757824
31
0.0
0
LINE
8
0
10
167478.683252
20
49084.393885
30
0.0
11
167333.157030
21
48782.198387
31
0.0
0
LINE
8
0
10
167636.882704
20
49206.757824
30
0.0
11
167965.954835
21
49271.654144
31
0.0
0
LINE
8
0
10
167333.157030
20
48782.198387
30
0.0
11
167965.954835
21
49271.654144
31
0.0
0
LINE
8
0
10
167965.955503
20
49271.654059
30
0.0
11
168344.053859
21
49072.087452
31
0.0
0
LINE
8
0
10
167965.955503
20
49271.654059
30
0.0
11
167927.897967
21
48974.014600
31
0.0
0
LINE
8
0
10
168344.052992
20
49072.087563
30
0.0
11
168325.020248
21
48923.236738
31
0.0
0
LINE
8
0
10
167927.897967
20
48974.014600
30
0.0
11
168325.020248
21
48923.236738
31
0.0
0
LINE
8
0
10
170215.978612
20
49305.293806
30
0.0
11
170374.178063
21
49427.657745
31
0.0
0
LINE
8
0
10
170215.978612
20
49305.293806
30
0.0
11
170070.452389
21
49003.098308
31
0.0
0
LINE
8
0
10
170374.178063
20
49427.657745
30
0.0
11
170703.250194
21
49492.554065
31
0.0
0
LINE
8
0
10
170070.452389
20
49003.098308
30
0.0
11
170703.250194
21
49492.554065
31
0.0
0
LINE
8
0
10
169592.670309
20
48912.434665
30
0.0
11
170070.453859
21
49003.098121
31
0.0
0
LINE
8
0
10
169592.670187
20
48912.434681
30
0.0
11
169573.704589
21
48764.109024
31
0.0
0
LINE
8
0
10
170070.452200
20
49003.098333
30
0.0
11
170032.394655
21
48705.458875
31
0.0
0
LINE
8
0
10
169573.704594
20
48764.109064
30
0.0
11
170032.394655
21
48705.458875
31
0.0
0
LINE
8
0
10
174012.494180
20
52241.818532
30
0.0
11
174170.693631
21
52364.182471
31
0.0
0
LINE
8
0
10
174012.494180
20
52241.818532
30
0.0
11
173866.967957
21
51939.623035
31
0.0
0
LINE
8
0
10
174170.693631
20
52364.182471
30
0.0
11
174499.765762
21
52429.078792
31
0.0
0
LINE
8
0
10
173866.967957
20
51939.623035
30
0.0
11
174499.765762
21
52429.078792
31
0.0
0
LINE
8
0
10
174499.765762
20
52429.078792
30
0.0
11
174877.864119
21
52229.512185
31
0.0
0
LINE
8
0
10
174499.765762
20
52429.078792
30
0.0
11
174461.708226
21
52131.439333
31
0.0
0
LINE
8
0
10
174877.863251
20
52229.512296
30
0.0
11
174858.830507
21
52080.661470
31
0.0
0
LINE
8
0
10
174461.708226
20
52131.439333
30
0.0
11
174858.830507
21
52080.661470
31
0.0
0
LINE
8
0
10
176126.480568
20
52069.859398
30
0.0
11
176604.264118
21
52160.522853
31
0.0
0
LINE
8
0
10
176126.480446
20
52069.859413
30
0.0
11
176107.514848
21
51921.533757
31
0.0
0
LINE
8
0
10
176604.262459
20
52160.523065
30
0.0
11
176566.204914
21
51862.883608
31
0.0
0
LINE
8
0
10
176107.514853
20
51921.533796
30
0.0
11
176566.204914
21
51862.883608
31
0.0
0
LINE
8
0
10
176749.789539
20
52462.718453
30
0.0
11
176907.988991
21
52585.082392
31
0.0
0
LINE
8
0
10
176749.789539
20
52462.718453
30
0.0
11
176604.263317
21
52160.522956
31
0.0
0
LINE
8
0
10
176907.988991
20
52585.082392
30
0.0
11
177237.061122
21
52649.978713
31
0.0
0
LINE
8
0
10
176604.263317
20
52160.522956
30
0.0
11
177237.061122
21
52649.978713
31
0.0
0
LINE
8
0
10
155507.415798
20
41721.166195
30
0.0
11
155864.136048
21
41776.017520
31
0.0
0
LINE
8
0
10
155507.415318
20
41721.165823
30
0.0
11
155690.928534
21
41483.914883
31
0.0
0
LINE
8
0
10
155864.135502
20
41776.017098
30
0.0
11
155940.661139
21
41677.082647
31
0.0
0
LINE
8
0
10
155690.928534
20
41483.914883
30
0.0
11
155940.661139
21
41677.082647
31
0.0
0
LINE
8
0
10
155908.534454
20
40957.031725
30
0.0
11
155388.585260
21
41629.253276
31
0.0
0
LINE
8
0
10
155908.534454
20
40957.031725
30
0.0
11
156027.184042
21
41048.804679
31
0.0
0
LINE
8
0
10
155388.585260
20
41629.253276
30
0.0
11
155507.234849
21
41721.026231
31
0.0
0
LINE
8
0
10
156027.184042
20
41048.804679
30
0.0
11
155507.234849
21
41721.026231
31
0.0
0
LINE
8
0
10
155606.338956
20
41102.557947
30
0.0
11
155483.975017
21
41260.757399
31
0.0
0
LINE
8
0
10
155606.338956
20
41102.557947
30
0.0
11
155908.534454
21
40957.031725
31
0.0
0
LINE
8
0
10
155483.975017
20
41260.757399
30
0.0
11
155388.585260
21
41629.253276
31
0.0
0
LINE
8
0
10
155908.534454
20
40957.031725
30
0.0
11
155388.585260
21
41629.253276
31
0.0
0
LINE
8
0
10
160799.346102
20
45624.773740
30
0.0
11
161432.143907
21
46114.229497
31
0.0
0
LINE
8
0
10
160799.346102
20
45624.773740
30
0.0
11
160891.119057
21
45506.124152
31
0.0
0
LINE
8
0
10
161432.143907
20
46114.229497
30
0.0
11
161523.916862
21
45995.579909
31
0.0
0
LINE
8
0
10
160891.119057
20
45506.124152
30
0.0
11
161523.916862
21
45995.579909
31
0.0
0
LINE
8
0
10
159046.614541
20
44458.706874
30
0.0
11
159204.813992
21
44581.070814
31
0.0
0
LINE
8
0
10
159046.614541
20
44458.706874
30
0.0
11
158901.088319
21
44156.511377
31
0.0
0
LINE
8
0
10
159204.813992
20
44581.070814
30
0.0
11
159533.886124
21
44645.967134
31
0.0
0
LINE
8
0
10
158901.088319
20
44156.511377
30
0.0
11
159533.886124
21
44645.967134
31
0.0
0
LINE
8
0
10
158901.088319
20
44156.511377
30
0.0
11
159533.886124
21
44645.967134
31
0.0
0
LINE
8
0
10
158901.088319
20
44156.511377
30
0.0
11
158992.861273
21
44037.861789
31
0.0
0
LINE
8
0
10
159533.886124
20
44645.967134
30
0.0
11
159625.659078
21
44527.317546
31
0.0
0
LINE
8
0
10
158992.861273
20
44037.861789
30
0.0
11
159625.659078
21
44527.317546
31
0.0
0
LINE
8
0
10
167333.157030
20
48782.198387
30
0.0
11
167965.954835
21
49271.654144
31
0.0
0
LINE
8
0
10
167333.157030
20
48782.198387
30
0.0
11
167424.929984
21
48663.548799
31
0.0
0
LINE
8
0
10
167965.954835
20
49271.654144
30
0.0
11
168057.727789
21
49153.004556
31
0.0
0
LINE
8
0
10
167424.929984
20
48663.548799
30
0.0
11
168057.727789
21
49153.004556
31
0.0
0
LINE
8
0
10
165580.425468
20
47616.131522
30
0.0
11
165738.624920
21
47738.495461
31
0.0
0
LINE
8
0
10
165580.425468
20
47616.131522
30
0.0
11
165434.899246
21
47313.936024
31
0.0
0
LINE
8
0
10
165738.624920
20
47738.495461
30
0.0
11
166067.697051
21
47803.391781
31
0.0
0
LINE
8
0
10
165434.899246
20
47313.936024
30
0.0
11
166067.697051
21
47803.391781
31
0.0
0
LINE
8
0
10
163536.641462
20
45845.673661
30
0.0
11
164169.439267
21
46335.129418
31
0.0
0
LINE
8
0
10
163536.641462
20
45845.673661
30
0.0
11
163628.414416
21
45727.024073
31
0.0
0
LINE
8
0
10
164169.439267
20
46335.129418
30
0.0
11
164261.212221
21
46216.479830
31
0.0
0
LINE
8
0
10
163628.414416
20
45727.024073
30
0.0
11
164261.212221
21
46216.479830
31
0.0
0
LINE
8
0
10
165434.899246
20
47313.936024
30
0.0
11
166067.697051
21
47803.391781
31
0.0
0
LINE
8
0
10
165434.899246
20
47313.936024
30
0.0
11
165526.672200
21
47195.286436
31
0.0
0
LINE
8
0
10
166067.697051
20
47803.391781
30
0.0
11
166159.470005
21
47684.742193
31
0.0
0
LINE
8
0
10
165526.672200
20
47195.286436
30
0.0
11
166159.470005
21
47684.742193
31
0.0
0
LINE
8
0
10
173866.967957
20
51939.623035
30
0.0
11
174499.765762
21
52429.078792
31
0.0
0
LINE
8
0
10
173866.967957
20
51939.623035
30
0.0
11
173958.740912
21
51820.973446
31
0.0
0
LINE
8
0
10
174499.765762
20
52429.078792
30
0.0
11
174591.538717
21
52310.429203
31
0.0
0
LINE
8
0
10
173958.740912
20
51820.973446
30
0.0
11
174591.538717
21
52310.429203
31
0.0
0
LINE
8
0
10
172114.236396
20
50773.556169
30
0.0
11
172272.435847
21
50895.920108
31
0.0
0
LINE
8
0
10
172114.236396
20
50773.556169
30
0.0
11
171968.710173
21
50471.360672
31
0.0
0
LINE
8
0
10
172272.435847
20
50895.920108
30
0.0
11
172601.507978
21
50960.816429
31
0.0
0
LINE
8
0
10
171968.710173
20
50471.360672
30
0.0
11
172601.507978
21
50960.816429
31
0.0
0
LINE
8
0
10
170070.452389
20
49003.098308
30
0.0
11
170703.250194
21
49492.554065
31
0.0
0
LINE
8
0
10
170070.452389
20
49003.098308
30
0.0
11
170162.225344
21
48884.448720
31
0.0
0
LINE
8
0
10
170703.250194
20
49492.554065
30
0.0
11
170795.023149
21
49373.904477
31
0.0
0
LINE
8
0
10
170162.225344
20
48884.448720
30
0.0
11
170795.023149
21
49373.904477
31
0.0
0
LINE
8
0
10
171968.710173
20
50471.360672
30
0.0
11
172601.507978
21
50960.816429
31
0.0
0
LINE
8
0
10
171968.710173
20
50471.360672
30
0.0
11
172060.483128
21
50352.711083
31
0.0
0
LINE
8
0
10
172601.507978
20
50960.816429
30
0.0
11
172693.280933
21
50842.166840
31
0.0
0
LINE
8
0
10
172060.483128
20
50352.711083
30
0.0
11
172693.280933
21
50842.166840
31
0.0
0
LINE
8
0
10
178648.047323
20
53930.980816
30
0.0
11
178806.246775
21
54053.344755
31
0.0
0
LINE
8
0
10
178648.047323
20
53930.980816
30
0.0
11
178502.521101
21
53628.785319
31
0.0
0
LINE
8
0
10
178806.246775
20
54053.344755
30
0.0
11
179135.318906
21
54118.241076
31
0.0
0
LINE
8
0
10
178502.521101
20
53628.785319
30
0.0
11
179135.318906
21
54118.241076
31
0.0
0
LINE
8
0
10
176604.263317
20
52160.522956
30
0.0
11
177237.061122
21
52649.978713
31
0.0
0
LINE
8
0
10
176604.263317
20
52160.522956
30
0.0
11
176696.036271
21
52041.873367
31
0.0
0
LINE
8
0
10
177237.061122
20
52649.978713
30
0.0
11
177328.834076
21
52531.329124
31
0.0
0
LINE
8
0
10
176696.036271
20
52041.873367
30
0.0
11
177328.834076
21
52531.329124
31
0.0
0
LINE
8
0
10
178502.521101
20
53628.785319
30
0.0
11
179135.318906
21
54118.241076
31
0.0
0
LINE
8
0
10
178502.521101
20
53628.785319
30
0.0
11
178594.294055
21
53510.135730
31
0.0
0
LINE
8
0
10
179135.318906
20
54118.241076
30
0.0
11
179227.091860
21
53999.591487
31
0.0
0
LINE
8
0
10
178594.294055
20
53510.135730
30
0.0
11
179227.091860
21
53999.591487
31
0.0
0
LINE
8
0
10
177072.007832
20
13965.971443
30
0.0
11
176771.662727
21
13983.714226
31
0.0
0
LINE
8
0
10
177072.007316
20
13965.971625
30
0.0
11
177114.670261
21
14086.623707
31
0.0
0
LINE
8
0
10
176771.662727
20
13983.714226
30
0.0
11
176793.145775
21
14200.316264
31
0.0
0
LINE
8
0
10
176793.145839
20
14200.316446
30
0.0
11
177114.670261
21
14086.623707
31
0.0
0
LINE
8
0
10
174450.081038
20
17209.998986
30
0.0
11
174442.179579
21
17203.869796
31
0.0
0
LINE
8
0
10
174450.081038
20
17209.998986
30
0.0
11
173598.701127
21
18308.114890
31
0.0
0
LINE
8
0
10
174442.179580
20
17203.869796
30
0.0
11
173590.799674
21
18301.985705
31
0.0
0
LINE
8
0
10
173598.701127
20
18308.114890
30
0.0
11
173590.799674
21
18301.985705
31
0.0
0
LINE
8
0
10
173610.412377
20
18317.199613
30
0.0
11
173582.898094
21
18295.856684
31
0.0
0
LINE
8
0
10
173610.412377
20
18317.199613
30
0.0
11
173553.249953
21
18390.946826
31
0.0
0
LINE
8
0
10
173582.898094
20
18295.856684
30
0.0
11
173525.735428
21
18369.604210
31
0.0
0
LINE
8
0
10
173553.249710
20
18390.947139
30
0.0
11
173525.735428
21
18369.604210
31
0.0
0
LINE
8
0
10
174433.029450
20
17196.775854
30
0.0
11
174460.603370
21
17218.041682
31
0.0
0
LINE
8
0
10
174433.029450
20
17196.775854
30
0.0
11
174477.356405
21
17139.313894
31
0.0
0
LINE
8
0
10
174460.603370
20
17218.041682
30
0.0
11
174504.930324
21
17160.579723
31
0.0
0
LINE
8
0
10
174504.930324
20
17160.579723
30
0.0
11
174477.356405
21
17139.313894
31
0.0
0
LINE
8
0
10
173154.120481
20
18906.228673
30
0.0
11
173126.606199
21
18884.885744
31
0.0
0
LINE
8
0
10
173154.120482
20
18906.228673
30
0.0
11
173096.958036
21
18979.975915
31
0.0
0
LINE
8
0
10
173126.606199
20
18884.885744
30
0.0
11
173069.443533
21
18958.633270
31
0.0
0
LINE
8
0
10
173096.957815
20
18979.976199
30
0.0
11
173069.443533
21
18958.633270
31
0.0
0
LINE
8
0
10
173552.456644
20
18390.560026
30
0.0
11
173552.376323
21
18390.664150
31
0.0
0
LINE
8
0
10
173536.537899
20
18378.451677
30
0.0
11
173552.376323
21
18390.664150
31
0.0
0
LINE
8
0
10
173552.456644
20
18390.560026
30
0.0
11
173536.618221
21
18378.347554
31
0.0
0
LINE
8
0
10
173138.405720
20
18893.882183
30
0.0
11
173154.244144
21
18906.094656
31
0.0
0
LINE
8
0
10
173154.244144
20
18906.094656
30
0.0
11
173154.303073
21
18906.018276
31
0.0
0
LINE
8
0
10
173138.464649
20
18893.805803
30
0.0
11
173154.303073
21
18906.018276
31
0.0
0
LINE
8
0
10
173138.473257
20
18893.934291
30
0.0
11
173536.359447
21
18378.240930
31
0.0
0
LINE
8
0
10
173536.418380
20
18378.164553
30
0.0
11
173138.464649
21
18893.805803
31
0.0
0
LINE
8
0
10
173154.311681
20
18906.146765
30
0.0
11
173552.197872
21
18390.453403
31
0.0
0
LINE
8
0
10
173154.303073
20
18906.018276
30
0.0
11
173552.256804
21
18390.377026
31
0.0
0
LINE
8
0
10
171226.970365
20
21360.685411
30
0.0
11
171234.888838
21
21366.792604
31
0.0
0
LINE
8
0
10
171226.970365
20
21360.685411
30
0.0
11
172075.834539
21
20260.623638
31
0.0
0
LINE
8
0
10
171234.888838
20
21366.792604
30
0.0
11
172083.753006
21
20266.730826
31
0.0
0
LINE
8
0
10
172083.753006
20
20266.730826
30
0.0
11
172075.834539
21
20260.623638
31
0.0
0
LINE
8
0
10
172067.916200
20
20254.516284
30
0.0
11
172095.489729
21
20275.782616
31
0.0
0
LINE
8
0
10
172067.916200
20
20254.516284
30
0.0
11
172124.928065
21
20180.652117
31
0.0
0
LINE
8
0
10
172095.489729
20
20275.782616
30
0.0
11
172152.501353
21
20201.918761
31
0.0
0
LINE
8
0
10
172152.501594
20
20201.918448
30
0.0
11
172124.928065
21
20180.652117
31
0.0
0
LINE
8
0
10
171245.318149
20
21374.955562
30
0.0
11
171217.804256
21
21353.612129
31
0.0
0
LINE
8
0
10
171245.318149
20
21374.955562
30
0.0
11
171200.842710
21
21432.302672
31
0.0
0
LINE
8
0
10
171217.804256
20
21353.612129
30
0.0
11
171173.328817
21
21410.959239
31
0.0
0
LINE
8
0
10
171200.842710
20
21432.302672
30
0.0
11
171173.328817
21
21410.959239
31
0.0
0
LINE
8
0
10
172523.344236
20
19664.819048
30
0.0
11
172550.917765
21
19686.085379
31
0.0
0
LINE
8
0
10
172523.344236
20
19664.819048
30
0.0
11
172580.356102
21
19590.954881
31
0.0
0
LINE
8
0
10
172550.917766
20
19686.085379
30
0.0
11
172607.929412
21
19612.221497
31
0.0
0
LINE
8
0
10
172607.929631
20
19612.221212
30
0.0
11
172580.356102
21
19590.954881
31
0.0
0
LINE
8
0
10
172152.008162
20
20201.144231
30
0.0
11
172136.206725
21
20188.883938
31
0.0
0
LINE
8
0
10
172136.126134
20
20188.987854
30
0.0
11
172151.927570
21
20201.248145
31
0.0
0
LINE
8
0
10
172550.760018
20
19686.314993
30
0.0
11
172550.819134
21
19686.238757
31
0.0
0
LINE
8
0
10
172550.819134
20
19686.238757
30
0.0
11
172535.017697
21
19673.978465
31
0.0
0
LINE
8
0
10
172550.760018
20
19686.314993
30
0.0
11
172534.958581
21
19674.054700
31
0.0
0
LINE
8
0
10
172550.886546
20
19686.291029
30
0.0
11
172151.759327
21
20201.024481
31
0.0
0
LINE
8
0
10
172151.700215
20
20201.100719
30
0.0
11
172550.760018
21
19686.314993
31
0.0
0
LINE
8
0
10
172535.085108
20
19674.030736
30
0.0
11
172135.957890
21
20188.764188
31
0.0
0
LINE
8
0
10
172534.958581
20
19674.054700
30
0.0
11
172135.898778
21
20188.840426
31
0.0
0
LINE
8
0
10
175020.252481
20
16456.502422
30
0.0
11
175028.170954
21
16462.609615
31
0.0
0
LINE
8
0
10
175020.252482
20
16456.502423
30
0.0
11
175869.116656
21
15356.440649
31
0.0
0
LINE
8
0
10
175028.170954
20
16462.609615
30
0.0
11
175877.035122
21
15362.547837
31
0.0
0
LINE
8
0
10
175877.035122
20
15362.547837
30
0.0
11
175869.116656
21
15356.440649
31
0.0
0
LINE
8
0
10
175861.198316
20
15350.333296
30
0.0
11
175888.771845
21
15371.599627
31
0.0
0
LINE
8
0
10
175861.198316
20
15350.333296
30
0.0
11
175918.210182
21
15276.469128
31
0.0
0
LINE
8
0
10
175888.771845
20
15371.599627
30
0.0
11
175945.783469
21
15297.735773
31
0.0
0
LINE
8
0
10
175945.783711
20
15297.735460
30
0.0
11
175918.210181
21
15276.469128
31
0.0
0
LINE
8
0
10
175038.600266
20
16470.772574
30
0.0
11
175011.086372
21
16449.429141
31
0.0
0
LINE
8
0
10
175038.600266
20
16470.772574
30
0.0
11
174994.124827
21
16528.119684
31
0.0
0
LINE
8
0
10
175011.086372
20
16449.429141
30
0.0
11
174966.610933
21
16506.776250
31
0.0
0
LINE
8
0
10
174994.124827
20
16528.119684
30
0.0
11
174966.610933
21
16506.776250
31
0.0
0
LINE
8
0
10
176316.626353
20
14760.636059
30
0.0
11
176344.199882
21
14781.902391
31
0.0
0
LINE
8
0
10
176316.626353
20
14760.636059
30
0.0
11
176373.638218
21
14686.771892
31
0.0
0
LINE
8
0
10
176344.199882
20
14781.902391
30
0.0
11
176401.211528
21
14708.038508
31
0.0
0
LINE
8
0
10
176401.211747
20
14708.038224
30
0.0
11
176373.638218
21
14686.771892
31
0.0
0
LINE
8
0
10
175945.290279
20
15296.961242
30
0.0
11
175929.488841
21
15284.700950
31
0.0
0
LINE
8
0
10
175929.408251
20
15284.804865
30
0.0
11
175945.209686
21
15297.065157
31
0.0
0
LINE
8
0
10
176344.042135
20
14782.132004
30
0.0
11
176344.101251
21
14782.055769
31
0.0
0
LINE
8
0
10
176344.101251
20
14782.055769
30
0.0
11
176328.299813
21
14769.795476
31
0.0
0
LINE
8
0
10
176344.042135
20
14782.132004
30
0.0
11
176328.240698
21
14769.871712
31
0.0
0
LINE
8
0
10
176344.168662
20
14782.108040
30
0.0
11
175945.041443
21
15296.841492
31
0.0
0
LINE
8
0
10
175944.982331
20
15296.917730
30
0.0
11
176344.042135
21
14782.132004
31
0.0
0
LINE
8
0
10
176328.367225
20
14769.847747
30
0.0
11
175929.240006
21
15284.581200
31
0.0
0
LINE
8
0
10
176328.240698
20
14769.871712
30
0.0
11
175929.180894
21
15284.657438
31
0.0
0
LINE
8
0
10
166863.360841
20
27018.566603
30
0.0
11
166855.459382
21
27012.437413
31
0.0
0
LINE
8
0
10
166863.360841
20
27018.566603
30
0.0
11
166011.980930
21
28116.682507
31
0.0
0
LINE
8
0
10
166855.459383
20
27012.437413
30
0.0
11
166004.079477
21
28110.553322
31
0.0
0
LINE
8
0
10
166011.980930
20
28116.682507
30
0.0
11
166004.079477
21
28110.553322
31
0.0
0
LINE
8
0
10
166023.692180
20
28125.767230
30
0.0
11
165996.177897
21
28104.424301
31
0.0
0
LINE
8
0
10
166023.692180
20
28125.767230
30
0.0
11
165966.529756
21
28199.514444
31
0.0
0
LINE
8
0
10
165996.177897
20
28104.424301
30
0.0
11
165939.015231
21
28178.171827
31
0.0
0
LINE
8
0
10
165966.529513
20
28199.514756
30
0.0
11
165939.015231
21
28178.171827
31
0.0
0
LINE
8
0
10
166846.309253
20
27005.343471
30
0.0
11
166873.883173
21
27026.609299
31
0.0
0
LINE
8
0
10
166846.309253
20
27005.343471
30
0.0
11
166890.636208
21
26947.881512
31
0.0
0
LINE
8
0
10
166873.883173
20
27026.609299
30
0.0
11
166918.210127
21
26969.147340
31
0.0
0
LINE
8
0
10
166918.210127
20
26969.147340
30
0.0
11
166890.636208
21
26947.881512
31
0.0
0
LINE
8
0
10
165567.400284
20
28714.796290
30
0.0
11
165539.886002
21
28693.453361
31
0.0
0
LINE
8
0
10
165567.400285
20
28714.796290
30
0.0
11
165510.237839
21
28788.543532
31
0.0
0
LINE
8
0
10
165539.886002
20
28693.453361
30
0.0
11
165482.723336
21
28767.200887
31
0.0
0
LINE
8
0
10
165510.237618
20
28788.543816
30
0.0
11
165482.723336
21
28767.200887
31
0.0
0
LINE
8
0
10
165965.736447
20
28199.127644
30
0.0
11
165965.656126
21
28199.231768
31
0.0
0
LINE
8
0
10
165949.817702
20
28187.019294
30
0.0
11
165965.656126
21
28199.231768
31
0.0
0
LINE
8
0
10
165965.736447
20
28199.127644
30
0.0
11
165949.898024
21
28186.915172
31
0.0
0
LINE
8
0
10
165551.685523
20
28702.449800
30
0.0
11
165567.523947
21
28714.662273
31
0.0
0
LINE
8
0
10
165567.523947
20
28714.662273
30
0.0
11
165567.582876
21
28714.585893
31
0.0
0
LINE
8
0
10
165551.744452
20
28702.373420
30
0.0
11
165567.582876
21
28714.585893
31
0.0
0
LINE
8
0
10
165551.753060
20
28702.501909
30
0.0
11
165949.639250
21
28186.808547
31
0.0
0
LINE
8
0
10
165949.698183
20
28186.732171
30
0.0
11
165551.744452
21
28702.373420
31
0.0
0
LINE
8
0
10
165567.591484
20
28714.714382
30
0.0
11
165965.477675
21
28199.021021
31
0.0
0
LINE
8
0
10
165567.582876
20
28714.585893
30
0.0
11
165965.536607
21
28198.944644
31
0.0
0
LINE
8
0
10
163640.250168
20
31169.253028
30
0.0
11
163648.168641
21
31175.360221
31
0.0
0
LINE
8
0
10
163640.250168
20
31169.253029
30
0.0
11
164489.114342
21
30069.191255
31
0.0
0
LINE
8
0
10
163648.168641
20
31175.360221
30
0.0
11
164497.032809
21
30075.298443
31
0.0
0
LINE
8
0
10
164497.032809
20
30075.298443
30
0.0
11
164489.114342
21
30069.191255
31
0.0
0
LINE
8
0
10
164481.196003
20
30063.083902
30
0.0
11
164508.769532
21
30084.350233
31
0.0
0
LINE
8
0
10
164481.196003
20
30063.083902
30
0.0
11
164538.207868
21
29989.219734
31
0.0
0
LINE
8
0
10
164508.769532
20
30084.350233
30
0.0
11
164565.781156
21
30010.486379
31
0.0
0
LINE
8
0
10
164565.781397
20
30010.486066
30
0.0
11
164538.207868
21
29989.219734
31
0.0
0
LINE
8
0
10
163658.597952
20
31183.523180
30
0.0
11
163631.084059
21
31162.179746
31
0.0
0
LINE
8
0
10
163658.597952
20
31183.523180
30
0.0
11
163614.122513
21
31240.870290
31
0.0
0
LINE
8
0
10
163631.084059
20
31162.179746
30
0.0
11
163586.608620
21
31219.526856
31
0.0
0
LINE
8
0
10
163614.122513
20
31240.870290
30
0.0
11
163586.608620
21
31219.526856
31
0.0
0
LINE
8
0
10
164936.624039
20
29473.386665
30
0.0
11
164964.197568
21
29494.652997
31
0.0
0
LINE
8
0
10
164936.624039
20
29473.386665
30
0.0
11
164993.635905
21
29399.522498
31
0.0
0
LINE
8
0
10
164964.197569
20
29494.652997
30
0.0
11
165021.209215
21
29420.789114
31
0.0
0
LINE
8
0
10
165021.209434
20
29420.788830
30
0.0
11
164993.635905
21
29399.522498
31
0.0
0
LINE
8
0
10
164565.287965
20
30009.711848
30
0.0
11
164549.486528
21
29997.451556
31
0.0
0
LINE
8
0
10
164549.405937
20
29997.555471
30
0.0
11
164565.207373
21
30009.815763
31
0.0
0
LINE
8
0
10
164964.039821
20
29494.882610
30
0.0
11
164964.098937
21
29494.806375
31
0.0
0
LINE
8
0
10
164964.098937
20
29494.806375
30
0.0
11
164948.297500
21
29482.546082
31
0.0
0
LINE
8
0
10
164964.039821
20
29494.882610
30
0.0
11
164948.238384
21
29482.622318
31
0.0
0
LINE
8
0
10
164964.166349
20
29494.858646
30
0.0
11
164565.039130
21
30009.592098
31
0.0
0
LINE
8
0
10
164564.980018
20
30009.668336
30
0.0
11
164964.039821
21
29494.882610
31
0.0
0
LINE
8
0
10
164948.364911
20
29482.598353
30
0.0
11
164549.237693
21
29997.331806
31
0.0
0
LINE
8
0
10
164948.238384
20
29482.622318
30
0.0
11
164549.178581
21
29997.408044
31
0.0
0
LINE
8
0
10
167433.532284
20
26265.070040
30
0.0
11
167441.450757
21
26271.177233
31
0.0
0
LINE
8
0
10
167433.532285
20
26265.070040
30
0.0
11
168282.396459
21
25165.008266
31
0.0
0
LINE
8
0
10
167441.450757
20
26271.177233
30
0.0
11
168290.314925
21
25171.115455
31
0.0
0
LINE
8
0
10
168290.314925
20
25171.115455
30
0.0
11
168282.396459
21
25165.008266
31
0.0
0
LINE
8
0
10
168274.478119
20
25158.900913
30
0.0
11
168302.051648
21
25180.167244
31
0.0
0
LINE
8
0
10
168274.478119
20
25158.900913
30
0.0
11
168331.489985
21
25085.036746
31
0.0
0
LINE
8
0
10
168302.051648
20
25180.167244
30
0.0
11
168359.063272
21
25106.303390
31
0.0
0
LINE
8
0
10
168359.063514
20
25106.303077
30
0.0
11
168331.489984
21
25085.036746
31
0.0
0
LINE
8
0
10
167451.880069
20
26279.340191
30
0.0
11
167424.366175
21
26257.996758
31
0.0
0
LINE
8
0
10
167451.880069
20
26279.340191
30
0.0
11
167407.404630
21
26336.687301
31
0.0
0
LINE
8
0
10
167424.366175
20
26257.996758
30
0.0
11
167379.890736
21
26315.343868
31
0.0
0
LINE
8
0
10
167407.404630
20
26336.687301
30
0.0
11
167379.890736
21
26315.343868
31
0.0
0
LINE
8
0
10
168729.906156
20
24569.203677
30
0.0
11
168757.479685
21
24590.470008
31
0.0
0
LINE
8
0
10
168729.906156
20
24569.203677
30
0.0
11
168786.918021
21
24495.339510
31
0.0
0
LINE
8
0
10
168757.479685
20
24590.470008
30
0.0
11
168814.491331
21
24516.606125
31
0.0
0
LINE
8
0
10
168814.491550
20
24516.605841
30
0.0
11
168786.918021
21
24495.339509
31
0.0
0
LINE
8
0
10
168358.570082
20
25105.528860
30
0.0
11
168342.768644
21
25093.268567
31
0.0
0
LINE
8
0
10
168342.688054
20
25093.372483
30
0.0
11
168358.489489
21
25105.632774
31
0.0
0
LINE
8
0
10
168757.321938
20
24590.699622
30
0.0
11
168757.381054
21
24590.623386
31
0.0
0
LINE
8
0
10
168757.381054
20
24590.623386
30
0.0
11
168741.579616
21
24578.363094
31
0.0
0
LINE
8
0
10
168757.321938
20
24590.699622
30
0.0
11
168741.520501
21
24578.439329
31
0.0
0
LINE
8
0
10
168757.448465
20
24590.675657
30
0.0
11
168358.321246
21
25105.409110
31
0.0
0
LINE
8
0
10
168358.262134
20
25105.485348
30
0.0
11
168757.321938
21
24590.699622
31
0.0
0
LINE
8
0
10
168741.647028
20
24578.415365
30
0.0
11
168342.519809
21
25093.148817
31
0.0
0
LINE
8
0
10
168741.520501
20
24578.439329
30
0.0
11
168342.460697
21
25093.225055
31
0.0
0
LINE
8
0
10
170656.642957
20
22114.383615
30
0.0
11
170648.741499
21
22108.254425
31
0.0
0
LINE
8
0
10
170656.642957
20
22114.383615
30
0.0
11
169805.263046
21
23212.499519
31
0.0
0
LINE
8
0
10
170648.741499
20
22108.254425
30
0.0
11
169797.361594
21
23206.370333
31
0.0
0
LINE
8
0
10
169805.263046
20
23212.499519
30
0.0
11
169797.361594
21
23206.370333
31
0.0
0
LINE
8
0
10
169816.974296
20
23221.584241
30
0.0
11
169789.460013
21
23200.241312
31
0.0
0
LINE
8
0
10
169816.974296
20
23221.584241
30
0.0
11
169759.811872
21
23295.331455
31
0.0
0
LINE
8
0
10
169789.460014
20
23200.241312
30
0.0
11
169732.297347
21
23273.988838
31
0.0
0
LINE
8
0
10
169759.811630
20
23295.331767
30
0.0
11
169732.297347
21
23273.988838
31
0.0
0
LINE
8
0
10
170639.591370
20
22101.160482
30
0.0
11
170667.165289
21
22122.426311
31
0.0
0
LINE
8
0
10
170639.591370
20
22101.160482
30
0.0
11
170683.918324
21
22043.698523
31
0.0
0
LINE
8
0
10
170667.165289
20
22122.426311
30
0.0
11
170711.492244
21
22064.964352
31
0.0
0
LINE
8
0
10
170711.492244
20
22064.964352
30
0.0
11
170683.918324
21
22043.698523
31
0.0
0
LINE
8
0
10
169360.682401
20
23810.613301
30
0.0
11
169333.168118
21
23789.270372
31
0.0
0
LINE
8
0
10
169360.682401
20
23810.613302
30
0.0
11
169303.519955
21
23884.360544
31
0.0
0
LINE
8
0
10
169333.168118
20
23789.270372
30
0.0
11
169276.005452
21
23863.017899
31
0.0
0
LINE
8
0
10
169303.519735
20
23884.360828
30
0.0
11
169276.005452
21
23863.017898
31
0.0
0
LINE
8
0
10
169759.018563
20
23294.944655
30
0.0
11
169758.938242
21
23295.048779
31
0.0
0
LINE
8
0
10
169743.099818
20
23282.836306
30
0.0
11
169758.938242
21
23295.048779
31
0.0
0
LINE
8
0
10
169759.018563
20
23294.944655
30
0.0
11
169743.180140
21
23282.732183
31
0.0
0
LINE
8
0
10
169344.967639
20
23798.266812
30
0.0
11
169360.806063
21
23810.479285
31
0.0
0
LINE
8
0
10
169360.806063
20
23810.479285
30
0.0
11
169360.864992
21
23810.402905
31
0.0
0
LINE
8
0
10
169345.026568
20
23798.190431
30
0.0
11
169360.864992
21
23810.402905
31
0.0
0
LINE
8
0
10
169345.035176
20
23798.318920
30
0.0
11
169742.921367
21
23282.625559
31
0.0
0
LINE
8
0
10
169742.980299
20
23282.549182
30
0.0
11
169345.026568
21
23798.190431
31
0.0
0
LINE
8
0
10
169360.873601
20
23810.531393
30
0.0
11
169758.759791
21
23294.838032
31
0.0
0
LINE
8
0
10
169360.864992
20
23810.402905
30
0.0
11
169758.818724
21
23294.761655
31
0.0
0
LINE
8
0
10
159846.968052
20
36073.436017
30
0.0
11
159854.886524
21
36079.543210
31
0.0
0
LINE
8
0
10
159846.968052
20
36073.436017
30
0.0
11
160695.832226
21
34973.374244
31
0.0
0
LINE
8
0
10
159854.886524
20
36079.543210
30
0.0
11
160703.750693
21
34979.481432
31
0.0
0
LINE
8
0
10
160703.750693
20
34979.481432
30
0.0
11
160695.832226
21
34973.374244
31
0.0
0
LINE
8
0
10
160687.913886
20
34967.266890
30
0.0
11
160715.487415
21
34988.533222
31
0.0
0
LINE
8
0
10
160687.913886
20
34967.266890
30
0.0
11
160744.925752
21
34893.402723
31
0.0
0
LINE
8
0
10
160715.487416
20
34988.533222
30
0.0
11
160772.499040
21
34914.669367
31
0.0
0
LINE
8
0
10
160772.499281
20
34914.669054
30
0.0
11
160744.925752
21
34893.402723
31
0.0
0
LINE
8
0
10
159865.315836
20
36087.706168
30
0.0
11
159837.801942
21
36066.362735
31
0.0
0
LINE
8
0
10
159865.315836
20
36087.706168
30
0.0
11
159820.840397
21
36145.053278
31
0.0
0
LINE
8
0
10
159837.801942
20
36066.362735
30
0.0
11
159793.326503
21
36123.709845
31
0.0
0
LINE
8
0
10
159820.840397
20
36145.053278
30
0.0
11
159793.326503
21
36123.709845
31
0.0
0
LINE
8
0
10
161143.341923
20
34377.569654
30
0.0
11
161170.915452
21
34398.835985
31
0.0
0
LINE
8
0
10
161143.341923
20
34377.569654
30
0.0
11
161200.353789
21
34303.705487
31
0.0
0
LINE
8
0
10
161170.915452
20
34398.835985
30
0.0
11
161227.927098
21
34324.972103
31
0.0
0
LINE
8
0
10
161227.927318
20
34324.971818
30
0.0
11
161200.353789
21
34303.705487
31
0.0
0
LINE
8
0
10
160772.005849
20
34913.894837
30
0.0
11
160756.204412
21
34901.634544
31
0.0
0
LINE
8
0
10
160756.123821
20
34901.738460
30
0.0
11
160771.925257
21
34913.998751
31
0.0
0
LINE
8
0
10
161170.757705
20
34399.065599
30
0.0
11
161170.816821
21
34398.989363
31
0.0
0
LINE
8
0
10
161170.816821
20
34398.989363
30
0.0
11
161155.015384
21
34386.729071
31
0.0
0
LINE
8
0
10
161170.757705
20
34399.065599
30
0.0
11
161154.956268
21
34386.805306
31
0.0
0
LINE
8
0
10
161170.884232
20
34399.041635
30
0.0
11
160771.757014
21
34913.775087
31
0.0
0
LINE
8
0
10
160771.697902
20
34913.851325
30
0.0
11
161170.757705
21
34399.065599
31
0.0
0
LINE
8
0
10
161155.082795
20
34386.781342
30
0.0
11
160755.955576
21
34901.514794
31
0.0
0
LINE
8
0
10
161154.956268
20
34386.805306
30
0.0
11
160755.896465
21
34901.591032
31
0.0
0
LINE
8
0
10
163070.078724
20
31922.749592
30
0.0
11
163062.177266
21
31916.620402
31
0.0
0
LINE
8
0
10
163070.078724
20
31922.749592
30
0.0
11
162218.698813
21
33020.865496
31
0.0
0
LINE
8
0
10
163062.177266
20
31916.620402
30
0.0
11
162210.797361
21
33014.736311
31
0.0
0
LINE
8
0
10
162218.698813
20
33020.865496
30
0.0
11
162210.797361
21
33014.736311
31
0.0
0
LINE
8
0
10
162230.410063
20
33029.950219
30
0.0
11
162202.895781
21
33008.607290
31
0.0
0
LINE
8
0
10
162230.410063
20
33029.950219
30
0.0
11
162173.247639
21
33103.697432
31
0.0
0
LINE
8
0
10
162202.895781
20
33008.607290
30
0.0
11
162145.733115
21
33082.354816
31
0.0
0
LINE
8
0
10
162173.247397
20
33103.697745
30
0.0
11
162145.733115
21
33082.354816
31
0.0
0
LINE
8
0
10
163053.027137
20
31909.526460
30
0.0
11
163080.601056
21
31930.792288
31
0.0
0
LINE
8
0
10
163053.027137
20
31909.526460
30
0.0
11
163097.354092
21
31852.064500
31
0.0
0
LINE
8
0
10
163080.601056
20
31930.792288
30
0.0
11
163124.928011
21
31873.330329
31
0.0
0
LINE
8
0
10
163124.928011
20
31873.330329
30
0.0
11
163097.354092
21
31852.064500
31
0.0
0
LINE
8
0
10
161774.118168
20
33618.979279
30
0.0
11
161746.603886
21
33597.636350
31
0.0
0
LINE
8
0
10
161774.118168
20
33618.979279
30
0.0
11
161716.955722
21
33692.726521
31
0.0
0
LINE
8
0
10
161746.603886
20
33597.636350
30
0.0
11
161689.441220
21
33671.383876
31
0.0
0
LINE
8
0
10
161716.955502
20
33692.726805
30
0.0
11
161689.441220
21
33671.383876
31
0.0
0
LINE
8
0
10
162172.454331
20
33103.310632
30
0.0
11
162172.374010
21
33103.414756
31
0.0
0
LINE
8
0
10
162156.535585
20
33091.202283
30
0.0
11
162172.374010
21
33103.414756
31
0.0
0
LINE
8
0
10
162172.454331
20
33103.310632
30
0.0
11
162156.615908
21
33091.098160
31
0.0
0
LINE
8
0
10
161758.403406
20
33606.632789
30
0.0
11
161774.241831
21
33618.845262
31
0.0
0
LINE
8
0
10
161774.241831
20
33618.845262
30
0.0
11
161774.300760
21
33618.768882
31
0.0
0
LINE
8
0
10
161758.462335
20
33606.556409
30
0.0
11
161774.300760
21
33618.768882
31
0.0
0
LINE
8
0
10
161758.470943
20
33606.684897
30
0.0
11
162156.357134
21
33090.991536
31
0.0
0
LINE
8
0
10
162156.416066
20
33090.915159
30
0.0
11
161758.462335
21
33606.556409
31
0.0
0
LINE
8
0
10
161774.309368
20
33618.897371
30
0.0
11
162172.195559
21
33103.204009
31
0.0
0
LINE
8
0
10
161774.300760
20
33618.768882
30
0.0
11
162172.254491
21
33103.127632
31
0.0
0
LINE
8
0
10
159276.796608
20
36826.932580
30
0.0
11
159268.895150
21
36820.803391
31
0.0
0
LINE
8
0
10
159276.796608
20
36826.932581
30
0.0
11
158425.416697
21
37925.048485
31
0.0
0
LINE
8
0
10
159268.895150
20
36820.803391
30
0.0
11
158417.515245
21
37918.919299
31
0.0
0
LINE
8
0
10
158425.416697
20
37925.048485
30
0.0
11
158417.515245
21
37918.919299
31
0.0
0
LINE
8
0
10
158437.127947
20
37934.133207
30
0.0
11
158409.613664
21
37912.790278
31
0.0
0
LINE
8
0
10
158437.127947
20
37934.133207
30
0.0
11
158379.965523
21
38007.880421
31
0.0
0
LINE
8
0
10
158409.613665
20
37912.790278
30
0.0
11
158352.450998
21
37986.537804
31
0.0
0
LINE
8
0
10
158379.965281
20
38007.880733
30
0.0
11
158352.450998
21
37986.537804
31
0.0
0
LINE
8
0
10
159259.745021
20
36813.709448
30
0.0
11
159287.318940
21
36834.975277
31
0.0
0
LINE
8
0
10
159259.745021
20
36813.709448
30
0.0
11
159304.071976
21
36756.247489
31
0.0
0
LINE
8
0
10
159287.318940
20
36834.975277
30
0.0
11
159331.645895
21
36777.513317
31
0.0
0
LINE
8
0
10
159331.645895
20
36777.513317
30
0.0
11
159304.071976
21
36756.247489
31
0.0
0
LINE
8
0
10
157980.836052
20
38523.162267
30
0.0
11
157953.321769
21
38501.819338
31
0.0
0
LINE
8
0
10
157980.836052
20
38523.162267
30
0.0
11
157923.673606
21
38596.909509
31
0.0
0
LINE
8
0
10
157953.321769
20
38501.819338
30
0.0
11
157896.159103
21
38575.566864
31
0.0
0
LINE
8
0
10
157923.673386
20
38596.909793
30
0.0
11
157896.159103
21
38575.566864
31
0.0
0
LINE
8
0
10
158379.172214
20
38007.493621
30
0.0
11
158379.091893
21
38007.597745
31
0.0
0
LINE
8
0
10
158363.253469
20
37995.385272
30
0.0
11
158379.091893
21
38007.597745
31
0.0
0
LINE
8
0
10
158379.172214
20
38007.493621
30
0.0
11
158363.333791
21
37995.281149
31
0.0
0
LINE
8
0
10
157965.121290
20
38510.815777
30
0.0
11
157980.959714
21
38523.028251
31
0.0
0
LINE
8
0
10
157980.959714
20
38523.028251
30
0.0
11
157981.018643
21
38522.951870
31
0.0
0
LINE
8
0
10
157965.180219
20
38510.739397
30
0.0
11
157981.018643
21
38522.951870
31
0.0
0
LINE
8
0
10
157965.188827
20
38510.867886
30
0.0
11
158363.075018
21
37995.174525
31
0.0
0
LINE
8
0
10
158363.133950
20
37995.098148
30
0.0
11
157965.180219
21
38510.739397
31
0.0
0
LINE
8
0
10
157981.027252
20
38523.080359
30
0.0
11
158378.913442
21
38007.386998
31
0.0
0
LINE
8
0
10
157981.018643
20
38522.951870
30
0.0
11
158378.972375
21
38007.310621
31
0.0
0
LINE
8
0
10
156053.685936
20
40977.619006
30
0.0
11
156061.604408
21
40983.726199
31
0.0
0
LINE
8
0
10
156053.685936
20
40977.619006
30
0.0
11
156902.550110
21
39877.557232
31
0.0
0
LINE
8
0
10
156061.604408
20
40983.726199
30
0.0
11
156910.468576
21
39883.664421
31
0.0
0
LINE
8
0
10
156910.468576
20
39883.664421
30
0.0
11
156902.550110
21
39877.557232
31
0.0
0
LINE
8
0
10
156894.631770
20
39871.449879
30
0.0
11
156922.205299
21
39892.716210
31
0.0
0
LINE
8
0
10
156894.631770
20
39871.449879
30
0.0
11
156951.643636
21
39797.585712
31
0.0
0
LINE
8
0
10
156922.205299
20
39892.716210
30
0.0
11
156979.216923
21
39818.852356
31
0.0
0
LINE
8
0
10
156979.217165
20
39818.852043
30
0.0
11
156951.643635
21
39797.585712
31
0.0
0
LINE
8
0
10
156072.033720
20
40991.889157
30
0.0
11
156044.519826
21
40970.545724
31
0.0
0
LINE
8
0
10
156072.033720
20
40991.889157
30
0.0
11
156027.558281
21
41049.236267
31
0.0
0
LINE
8
0
10
156044.519826
20
40970.545724
30
0.0
11
156000.044387
21
41027.892834
31
0.0
0
LINE
8
0
10
156027.558281
20
41049.236267
30
0.0
11
156000.044387
21
41027.892834
31
0.0
0
LINE
8
0
10
157350.059807
20
39281.752643
30
0.0
11
157377.633336
21
39303.018974
31
0.0
0
LINE
8
0
10
157350.059807
20
39281.752643
30
0.0
11
157407.071672
21
39207.888475
31
0.0
0
LINE
8
0
10
157377.633336
20
39303.018974
30
0.0
11
157434.644982
21
39229.155091
31
0.0
0
LINE
8
0
10
157434.645201
20
39229.154807
30
0.0
11
157407.071672
21
39207.888475
31
0.0
0
LINE
8
0
10
156978.723733
20
39818.077826
30
0.0
11
156962.922295
21
39805.817533
31
0.0
0
LINE
8
0
10
156962.841705
20
39805.921448
30
0.0
11
156978.643140
21
39818.181740
31
0.0
0
LINE
8
0
10
157377.475589
20
39303.248588
30
0.0
11
157377.534705
21
39303.172352
31
0.0
0
LINE
8
0
10
157377.534705
20
39303.172352
30
0.0
11
157361.733267
21
39290.912059
31
0.0
0
LINE
8
0
10
157377.475589
20
39303.248588
30
0.0
11
157361.674152
21
39290.988295
31
0.0
0
LINE
8
0
10
157377.602116
20
39303.224623
30
0.0
11
156978.474897
21
39817.958075
31
0.0
0
LINE
8
0
10
156978.415785
20
39818.034314
30
0.0
11
157377.475589
21
39303.248588
31
0.0
0
LINE
8
0
10
157361.800679
20
39290.964331
30
0.0
11
156962.673460
21
39805.697783
31
0.0
0
LINE
8
0
10
157361.674152
20
39290.988295
30
0.0
11
156962.614348
21
39805.774021
31
0.0
0
LINE
8
0
10
156484.464930
20
40461.064401
30
0.0
11
156500.266368
21
40473.324694
31
0.0
0
LINE
8
0
10
156085.653961
20
40975.969871
30
0.0
11
156101.455398
21
40988.230163
31
0.0
0
LINE
8
0
10
156085.586550
20
40975.917600
30
0.0
11
156484.713769
21
40461.184147
31
0.0
0
LINE
8
0
10
156101.387987
20
40988.177892
30
0.0
11
156500.515206
21
40473.444440
31
0.0
0
LINE
8
0
10
156113.128867
20
40997.389570
30
0.0
11
156085.555338
21
40976.123238
31
0.0
0
LINE
8
0
10
156113.128867
20
40997.389570
30
0.0
11
156056.117002
21
41071.253737
31
0.0
0
LINE
8
0
10
156085.555338
20
40976.123238
30
0.0
11
156028.543692
21
41049.987121
31
0.0
0
LINE
8
0
10
156028.543473
20
41049.987405
30
0.0
11
156056.117002
21
41071.253737
31
0.0
0
LINE
8
0
10
157391.154954
20
39287.253055
30
0.0
11
157418.668848
21
39308.596489
31
0.0
0
LINE
8
0
10
157391.154954
20
39287.253055
30
0.0
11
157435.630393
21
39229.905946
31
0.0
0
LINE
8
0
10
157418.668848
20
39308.596489
30
0.0
11
157463.144287
21
39251.249379
31
0.0
0
LINE
8
0
10
157435.630393
20
39229.905946
30
0.0
11
157463.144287
21
39251.249379
31
0.0
0
LINE
8
0
10
156568.556904
20
40407.692333
30
0.0
11
156540.983375
21
40386.426002
31
0.0
0
LINE
8
0
10
156568.556904
20
40407.692333
30
0.0
11
156511.545038
21
40481.556500
31
0.0
0
LINE
8
0
10
156540.983375
20
40386.426002
30
0.0
11
156483.971751
21
40460.289856
31
0.0
0
LINE
8
0
10
156483.971509
20
40460.290169
30
0.0
11
156511.545039
21
40481.556501
31
0.0
0
LINE
8
0
10
157409.502739
20
39301.523206
30
0.0
11
157401.584266
21
39295.416014
31
0.0
0
LINE
8
0
10
157409.502739
20
39301.523206
30
0.0
11
156560.638564
21
40401.584980
31
0.0
0
LINE
8
0
10
157401.584266
20
39295.416014
30
0.0
11
156552.720098
21
40395.477792
31
0.0
0
LINE
8
0
10
156552.720098
20
40395.477792
30
0.0
11
156560.638564
21
40401.584980
31
0.0
0
LINE
8
0
10
172147.471412
20
18245.378317
30
0.0
11
172152.113259
21
18256.193264
31
0.0
0
LINE
8
0
10
172170.587052
20
18248.378588
30
0.0
11
173563.252321
21
16447.787343
31
0.0
0
LINE
8
0
10
174572.721908
20
16581.617335
30
0.0
11
173566.270573
21
16428.016682
31
0.0
0
LINE
8
0
10
173566.270573
20
16428.016682
30
0.0
11
173554.634468
21
16426.240826
31
0.0
0
LINE
8
0
10
173554.633725
20
16426.240251
30
0.0
11
173547.432270
21
16435.551085
31
0.0
0
LINE
8
0
10
173547.432270
20
16435.551085
30
0.0
11
172154.766876
21
18236.142492
31
0.0
0
LINE
8
0
10
172154.766876
20
18236.142492
30
0.0
11
172147.566534
21
18245.451889
31
0.0
0
LINE
8
0
10
172147.471412
20
18245.378317
30
0.0
11
172152.113259
21
18256.193264
31
0.0
0
LINE
8
0
10
172152.113259
20
18256.193264
30
0.0
11
172553.741198
21
19191.938271
31
0.0
0
LINE
8
0
10
172152.113259
20
18256.193264
30
0.0
11
172147.471412
21
18245.378317
31
0.0
0
LINE
8
0
10
173563.253189
20
16447.787757
30
0.0
11
174558.767900
21
16599.719305
31
0.0
0
LINE
8
0
10
173563.252321
20
16447.787343
30
0.0
11
172170.587052
21
18248.378588
31
0.0
0
LINE
8
0
10
172170.587052
20
18248.378588
30
0.0
11
173563.252445
21
16447.787182
31
0.0
0
LINE
8
0
10
172567.738434
20
19173.841803
30
0.0
11
172170.491930
21
18248.305017
31
0.0
0
LINE
8
0
10
168354.150180
20
23149.611878
30
0.0
11
168358.792026
21
23160.426824
31
0.0
0
LINE
8
0
10
168377.265819
20
23152.612149
30
0.0
11
169769.931088
21
21352.020903
31
0.0
0
LINE
8
0
10
170779.400675
20
21485.850896
30
0.0
11
169772.949340
21
21332.250243
31
0.0
0
LINE
8
0
10
169772.949340
20
21332.250243
30
0.0
11
169761.313235
21
21330.474386
31
0.0
0
LINE
8
0
10
169761.312492
20
21330.473811
30
0.0
11
169754.111038
21
21339.784646
31
0.0
0
LINE
8
0
10
169754.111038
20
21339.784646
30
0.0
11
168361.445644
21
23140.376052
31
0.0
0
LINE
8
0
10
168361.445644
20
23140.376052
30
0.0
11
168354.245301
21
23149.685449
31
0.0
0
LINE
8
0
10
168354.150180
20
23149.611878
30
0.0
11
168358.792026
21
23160.426824
31
0.0
0
LINE
8
0
10
168358.792026
20
23160.426824
30
0.0
11
168760.419966
21
24096.171831
31
0.0
0
LINE
8
0
10
168358.792026
20
23160.426824
30
0.0
11
168354.150180
21
23149.611878
31
0.0
0
LINE
8
0
10
169769.931956
20
21352.021317
30
0.0
11
170765.446667
21
21503.952866
31
0.0
0
LINE
8
0
10
169769.931088
20
21352.020903
30
0.0
11
168377.265819
21
23152.612149
31
0.0
0
LINE
8
0
10
168377.265819
20
23152.612149
30
0.0
11
169769.931213
21
21352.020743
31
0.0
0
LINE
8
0
10
168774.417201
20
24078.075364
30
0.0
11
168377.170697
21
23152.538577
31
0.0
0
LINE
8
0
10
164560.868022
20
28053.794919
30
0.0
11
164565.509869
21
28064.609866
31
0.0
0
LINE
8
0
10
164583.983662
20
28056.795190
30
0.0
11
165976.648931
21
26256.203945
31
0.0
0
LINE
8
0
10
166986.118518
20
26390.033938
30
0.0
11
165979.667183
21
26236.433284
31
0.0
0
LINE
8
0
10
165979.667183
20
26236.433284
30
0.0
11
165968.031078
21
26234.657428
31
0.0
0
LINE
8
0
10
165968.030335
20
26234.656853
30
0.0
11
165960.828880
21
26243.967687
31
0.0
0
LINE
8
0
10
165960.828880
20
26243.967687
30
0.0
11
164568.163487
21
28044.559094
31
0.0
0
LINE
8
0
10
164568.163487
20
28044.559094
30
0.0
11
164560.963144
21
28053.868491
31
0.0
0
LINE
8
0
10
164560.868022
20
28053.794919
30
0.0
11
164565.509869
21
28064.609866
31
0.0
0
LINE
8
0
10
164565.509869
20
28064.609866
30
0.0
11
164967.137808
21
29000.354873
31
0.0
0
LINE
8
0
10
164565.509869
20
28064.609866
30
0.0
11
164560.868022
21
28053.794919
31
0.0
0
LINE
8
0
10
165976.649799
20
26256.204359
30
0.0
11
166972.164510
21
26408.135908
31
0.0
0
LINE
8
0
10
165976.648931
20
26256.203945
30
0.0
11
164583.983662
21
28056.795190
31
0.0
0
LINE
8
0
10
164583.983662
20
28056.795190
30
0.0
11
165976.649055
21
26256.203784
31
0.0
0
LINE
8
0
10
164981.135044
20
28982.258406
30
0.0
11
164583.888540
21
28056.721619
31
0.0
0
LINE
8
0
10
160767.585906
20
32957.977908
30
0.0
11
160772.227753
21
32968.792854
31
0.0
0
LINE
8
0
10
160790.701546
20
32960.978179
30
0.0
11
162183.366815
21
31160.386933
31
0.0
0
LINE
8
0
10
163192.836402
20
31294.216926
30
0.0
11
162186.385067
21
31140.616273
31
0.0
0
LINE
8
0
10
162186.385067
20
31140.616273
30
0.0
11
162174.748962
21
31138.840416
31
0.0
0
LINE
8
0
10
162174.748219
20
31138.839841
30
0.0
11
162167.546764
21
31148.150676
31
0.0
0
LINE
8
0
10
162167.546764
20
31148.150676
30
0.0
11
160774.881370
21
32948.742082
31
0.0
0
LINE
8
0
10
160774.881370
20
32948.742082
30
0.0
11
160767.681028
21
32958.051479
31
0.0
0
LINE
8
0
10
160767.585906
20
32957.977908
30
0.0
11
160772.227753
21
32968.792854
31
0.0
0
LINE
8
0
10
160772.227753
20
32968.792854
30
0.0
11
161173.855692
21
33904.537861
31
0.0
0
LINE
8
0
10
160772.227753
20
32968.792854
30
0.0
11
160767.585906
21
32957.977908
31
0.0
0
LINE
8
0
10
162183.367683
20
31160.387347
30
0.0
11
163178.882394
21
31312.318896
31
0.0
0
LINE
8
0
10
162183.366815
20
31160.386933
30
0.0
11
160790.701546
21
32960.978179
31
0.0
0
LINE
8
0
10
160790.701546
20
32960.978179
30
0.0
11
162183.366939
21
31160.386772
31
0.0
0
LINE
8
0
10
161187.852928
20
33886.441394
30
0.0
11
160790.606424
21
32960.904607
31
0.0
0
LINE
8
0
10
156974.303790
20
37862.160896
30
0.0
11
156978.945637
21
37872.975843
31
0.0
0
LINE
8
0
10
156997.419429
20
37865.161167
30
0.0
11
158390.084699
21
36064.569922
31
0.0
0
LINE
8
0
10
159399.554286
20
36198.399914
30
0.0
11
158393.102950
21
36044.799261
31
0.0
0
LINE
8
0
10
158393.102950
20
36044.799261
30
0.0
11
158381.466846
21
36043.023405
31
0.0
0
LINE
8
0
10
158381.466103
20
36043.022830
30
0.0
11
158374.264648
21
36052.333664
31
0.0
0
LINE
8
0
10
158374.264648
20
36052.333664
30
0.0
11
156981.599254
21
37852.925071
31
0.0
0
LINE
8
0
10
156981.599254
20
37852.925071
30
0.0
11
156974.398911
21
37862.234468
31
0.0
0
LINE
8
0
10
156974.303790
20
37862.160896
30
0.0
11
156978.945637
21
37872.975843
31
0.0
0
LINE
8
0
10
156978.945637
20
37872.975843
30
0.0
11
157380.573576
21
38808.720850
31
0.0
0
LINE
8
0
10
156978.945637
20
37872.975843
30
0.0
11
156974.303790
21
37862.160896
31
0.0
0
LINE
8
0
10
158390.085566
20
36064.570336
30
0.0
11
159385.600278
21
36216.501885
31
0.0
0
LINE
8
0
10
158390.084699
20
36064.569922
30
0.0
11
156997.419429
21
37865.161167
31
0.0
0
LINE
8
0
10
156997.419429
20
37865.161167
30
0.0
11
158390.084823
21
36064.569761
31
0.0
0
LINE
8
0
10
157394.570812
20
38790.624382
30
0.0
11
156997.324308
21
37865.087596
31
0.0
0
LINE
8
0
10
176771.728412
20
13983.841290
30
0.0
11
176282.272655
21
14616.639095
31
0.0
0
LINE
8
0
10
176771.728412
20
13983.841290
30
0.0
11
176890.378000
21
14075.614244
31
0.0
0
LINE
8
0
10
176282.272655
20
14616.639095
30
0.0
11
176400.922243
21
14708.412049
31
0.0
0
LINE
8
0
10
176890.378000
20
14075.614244
30
0.0
11
176400.922243
21
14708.412049
31
0.0
0
LINE
8
0
10
176469.532914
20
14129.367512
30
0.0
11
176347.168975
21
14287.566963
31
0.0
0
LINE
8
0
10
176469.532914
20
14129.367512
30
0.0
11
176771.728412
21
13983.841290
31
0.0
0
LINE
8
0
10
176347.168975
20
14287.566963
30
0.0
11
176282.272655
21
14616.639095
31
0.0
0
LINE
8
0
10
176771.728412
20
13983.841290
30
0.0
11
176282.272655
21
14616.639095
31
0.0
0
LINE
8
0
10
174572.891856
20
16581.459007
30
0.0
11
174450.527917
21
16739.658458
31
0.0
0
LINE
8
0
10
174572.891856
20
16581.459007
30
0.0
11
174875.087353
21
16435.932784
31
0.0
0
LINE
8
0
10
174450.527917
20
16739.658458
30
0.0
11
174385.631597
21
17068.730589
31
0.0
0
LINE
8
0
10
174875.087353
20
16435.932784
30
0.0
11
174385.631597
21
17068.730589
31
0.0
0
LINE
8
0
10
174875.087353
20
16435.932784
30
0.0
11
174385.631597
21
17068.730589
31
0.0
0
LINE
8
0
10
174875.087353
20
16435.932784
30
0.0
11
174993.736942
21
16527.705739
31
0.0
0
LINE
8
0
10
174385.631597
20
17068.730589
30
0.0
11
174504.281185
21
17160.503544
31
0.0
0
LINE
8
0
10
174993.736942
20
16527.705739
30
0.0
11
174504.281185
21
17160.503544
31
0.0
0
LINE
8
0
10
172978.446295
20
18888.024278
30
0.0
11
172488.990538
21
19520.822083
31
0.0
0
LINE
8
0
10
172978.446295
20
18888.024278
30
0.0
11
173097.095884
21
18979.797233
31
0.0
0
LINE
8
0
10
172488.990538
20
19520.822083
30
0.0
11
172607.640127
21
19612.595038
31
0.0
0
LINE
8
0
10
173097.095884
20
18979.797233
30
0.0
11
172607.640127
21
19612.595038
31
0.0
0
LINE
8
0
10
172676.250798
20
19033.550501
30
0.0
11
172553.886859
21
19191.749952
31
0.0
0
LINE
8
0
10
172676.250798
20
19033.550501
30
0.0
11
172978.446295
21
18888.024278
31
0.0
0
LINE
8
0
10
172553.886859
20
19191.749952
30
0.0
11
172488.990538
21
19520.822083
31
0.0
0
LINE
8
0
10
172978.446295
20
18888.024278
30
0.0
11
172488.990538
21
19520.822083
31
0.0
0
LINE
8
0
10
170779.570623
20
21485.692567
30
0.0
11
170657.206684
21
21643.892018
31
0.0
0
LINE
8
0
10
170779.570623
20
21485.692567
30
0.0
11
171081.766121
21
21340.166345
31
0.0
0
LINE
8
0
10
170657.206684
20
21643.892018
30
0.0
11
170592.310364
21
21972.964150
31
0.0
0
LINE
8
0
10
171081.766121
20
21340.166345
30
0.0
11
170592.310364
21
21972.964150
31
0.0
0
LINE
8
0
10
171081.766121
20
21340.166345
30
0.0
11
170592.310364
21
21972.964150
31
0.0
0
LINE
8
0
10
171081.766121
20
21340.166345
30
0.0
11
171200.415709
21
21431.939299
31
0.0
0
LINE
8
0
10
170592.310364
20
21972.964150
30
0.0
11
170710.959952
21
22064.737104
31
0.0
0
LINE
8
0
10
171200.415709
20
21431.939299
30
0.0
11
170710.959952
21
22064.737104
31
0.0
0
LINE
8
0
10
169185.125063
20
23792.257839
30
0.0
11
168695.669306
21
24425.055644
31
0.0
0
LINE
8
0
10
169185.125063
20
23792.257839
30
0.0
11
169303.774651
21
23884.030794
31
0.0
0
LINE
8
0
10
168695.669306
20
24425.055644
30
0.0
11
168814.318894
21
24516.828598
31
0.0
0
LINE
8
0
10
169303.774651
20
23884.030794
30
0.0
11
168814.318894
21
24516.828598
31
0.0
0
LINE
8
0
10
168882.929565
20
23937.784062
30
0.0
11
168760.565626
21
24095.983513
31
0.0
0
LINE
8
0
10
168882.929565
20
23937.784062
30
0.0
11
169185.125063
21
23792.257839
31
0.0
0
LINE
8
0
10
168760.565626
20
24095.983513
30
0.0
11
168695.669306
21
24425.055644
31
0.0
0
LINE
8
0
10
169185.125063
20
23792.257839
30
0.0
11
168695.669306
21
24425.055644
31
0.0
0
LINE
8
0
10
166986.288466
20
26389.875609
30
0.0
11
166863.924527
21
26548.075060
31
0.0
0
LINE
8
0
10
166986.288466
20
26389.875609
30
0.0
11
167288.483964
21
26244.349386
31
0.0
0
LINE
8
0
10
166863.924527
20
26548.075060
30
0.0
11
166799.028207
21
26877.147191
31
0.0
0
LINE
8
0
10
167288.483964
20
26244.349386
30
0.0
11
166799.028207
21
26877.147191
31
0.0
0
LINE
8
0
10
167288.483964
20
26244.349386
30
0.0
11
166799.028207
21
26877.147191
31
0.0
0
LINE
8
0
10
167288.483964
20
26244.349386
30
0.0
11
167407.133552
21
26336.122341
31
0.0
0
LINE
8
0
10
166799.028207
20
26877.147191
30
0.0
11
166917.677795
21
26968.920146
31
0.0
0
LINE
8
0
10
167407.133552
20
26336.122341
30
0.0
11
166917.677795
21
26968.920146
31
0.0
0
LINE
8
0
10
165391.842905
20
28696.440881
30
0.0
11
164902.387148
21
29329.238686
31
0.0
0
LINE
8
0
10
165391.842905
20
28696.440881
30
0.0
11
165510.492494
21
28788.213835
31
0.0
0
LINE
8
0
10
164902.387148
20
29329.238686
30
0.0
11
165021.036737
21
29421.011640
31
0.0
0
LINE
8
0
10
165510.492494
20
28788.213835
30
0.0
11
165021.036737
21
29421.011640
31
0.0
0
LINE
8
0
10
165089.647408
20
28841.967103
30
0.0
11
164967.283469
21
29000.166554
31
0.0
0
LINE
8
0
10
165089.647408
20
28841.967103
30
0.0
11
165391.842905
21
28696.440881
31
0.0
0
LINE
8
0
10
164967.283469
20
29000.166554
30
0.0
11
164902.387148
21
29329.238686
31
0.0
0
LINE
8
0
10
165391.842905
20
28696.440881
30
0.0
11
164902.387148
21
29329.238686
31
0.0
0
LINE
8
0
10
163193.006350
20
31294.058597
30
0.0
11
163070.642411
21
31452.258048
31
0.0
0
LINE
8
0
10
163193.006350
20
31294.058597
30
0.0
11
163495.201847
21
31148.532375
31
0.0
0
LINE
8
0
10
163070.642411
20
31452.258048
30
0.0
11
163005.746090
21
31781.330180
31
0.0
0
LINE
8
0
10
163495.201847
20
31148.532375
30
0.0
11
163005.746090
21
31781.330180
31
0.0
0
LINE
8
0
10
163495.201847
20
31148.532375
30
0.0
11
163005.746090
21
31781.330180
31
0.0
0
LINE
8
0
10
163495.201847
20
31148.532375
30
0.0
11
163613.851436
21
31240.305329
31
0.0
0
LINE
8
0
10
163005.746090
20
31781.330180
30
0.0
11
163124.395679
21
31873.103134
31
0.0
0
LINE
8
0
10
163613.851436
20
31240.305329
30
0.0
11
163124.395679
21
31873.103134
31
0.0
0
LINE
8
0
10
161598.560789
20
33600.623869
30
0.0
11
161109.105032
21
34233.421674
31
0.0
0
LINE
8
0
10
161598.560789
20
33600.623869
30
0.0
11
161717.210378
21
33692.396823
31
0.0
0
LINE
8
0
10
161109.105032
20
34233.421674
30
0.0
11
161227.754621
21
34325.194628
31
0.0
0
LINE
8
0
10
161717.210378
20
33692.396823
30
0.0
11
161227.754621
21
34325.194628
31
0.0
0
LINE
8
0
10
161296.365292
20
33746.150091
30
0.0
11
161174.001353
21
33904.349543
31
0.0
0
LINE
8
0
10
161296.365292
20
33746.150091
30
0.0
11
161598.560789
21
33600.623869
31
0.0
0
LINE
8
0
10
161174.001353
20
33904.349543
30
0.0
11
161109.105032
21
34233.421674
31
0.0
0
LINE
8
0
10
161598.560789
20
33600.623869
30
0.0
11
161109.105032
21
34233.421674
31
0.0
0
LINE
8
0
10
159399.724234
20
36198.241586
30
0.0
11
159277.360295
21
36356.441037
31
0.0
0
LINE
8
0
10
159399.724234
20
36198.241586
30
0.0
11
159701.919731
21
36052.715363
31
0.0
0
LINE
8
0
10
159277.360295
20
36356.441037
30
0.0
11
159212.463974
21
36685.513168
31
0.0
0
LINE
8
0
10
159701.919731
20
36052.715363
30
0.0
11
159212.463974
21
36685.513168
31
0.0
0
LINE
8
0
10
159701.919731
20
36052.715363
30
0.0
11
159212.463974
21
36685.513168
31
0.0
0
LINE
8
0
10
159701.919731
20
36052.715363
30
0.0
11
159820.569320
21
36144.488318
31
0.0
0
LINE
8
0
10
159212.463974
20
36685.513168
30
0.0
11
159331.113563
21
36777.286123
31
0.0
0
LINE
8
0
10
159820.569320
20
36144.488318
30
0.0
11
159331.113563
21
36777.286123
31
0.0
0
LINE
8
0
10
157805.278673
20
38504.806858
30
0.0
11
157315.822916
21
39137.604663
31
0.0
0
LINE
8
0
10
157805.278673
20
38504.806858
30
0.0
11
157923.928261
21
38596.579812
31
0.0
0
LINE
8
0
10
157315.822916
20
39137.604663
30
0.0
11
157434.472504
21
39229.377617
31
0.0
0
LINE
8
0
10
157923.928261
20
38596.579812
30
0.0
11
157434.472504
21
39229.377617
31
0.0
0
LINE
8
0
10
157503.083176
20
38650.333080
30
0.0
11
157380.719236
21
38808.532531
31
0.0
0
LINE
8
0
10
157503.083176
20
38650.333080
30
0.0
11
157805.278673
21
38504.806858
31
0.0
0
LINE
8
0
10
157380.719236
20
38808.532531
30
0.0
11
157315.822916
21
39137.604663
31
0.0
0
LINE
8
0
10
157805.278673
20
38504.806858
30
0.0
11
157315.822916
21
39137.604663
31
0.0
0
LINE
8
0
10
192166.696821
20
35139.007415
30
0.0
11
191204.115111
21
37155.911833
31
0.0
0
LINE
8
0
10
192189.816464
20
35136.998754
30
0.0
11
192182.990466
21
35127.409262
31
0.0
0
LINE
8
0
10
192182.990466
20
35127.409262
30
0.0
11
191592.583697
21
34297.977349
31
0.0
0
LINE
8
0
10
191217.095713
20
37175.147575
30
0.0
11
192184.746553
21
35147.621775
31
0.0
0
LINE
8
0
10
192184.746553
20
35147.621775
30
0.0
11
192189.816464
21
35136.998754
31
0.0
0
LINE
8
0
10
190189.583086
20
37238.983647
30
0.0
11
191205.937463
21
37176.154520
31
0.0
0
LINE
8
0
10
191205.937463
20
37176.154520
30
0.0
11
191217.684059
21
37175.428367
31
0.0
0
LINE
8
0
10
191583.135010
20
34319.191629
30
0.0
11
192166.696821
21
35139.007415
31
0.0
0
LINE
8
0
10
192166.696821
20
35139.007415
30
0.0
11
191204.115111
21
37155.911833
31
0.0
0
LINE
8
0
10
191204.115111
20
37155.911833
30
0.0
11
192166.696821
21
35139.007415
31
0.0
0
LINE
8
0
10
191204.703456
20
37156.192625
30
0.0
11
190199.568757
21
37218.328174
31
0.0
0
LINE
8
0
10
191204.703456
20
37156.192625
30
0.0
11
192166.696821
21
35139.007415
31
0.0
0
LINE
8
0
10
192184.746553
20
35147.621775
30
0.0
11
191222.753187
21
37164.806985
31
0.0
0
LINE
8
0
10
191222.753187
20
37164.806985
30
0.0
11
191217.684059
21
37175.428367
31
0.0
0
LINE
8
0
10
194793.937077
20
29633.865745
30
0.0
11
193831.355366
21
31650.770163
31
0.0
0
LINE
8
0
10
194817.056719
20
29631.857083
30
0.0
11
194810.230721
21
29622.267592
31
0.0
0
LINE
8
0
10
194810.230721
20
29622.267592
30
0.0
11
194219.823952
21
28792.835679
31
0.0
0
LINE
8
0
10
193844.335969
20
31670.005905
30
0.0
11
194811.986808
21
29642.480105
31
0.0
0
LINE
8
0
10
194811.986808
20
29642.480105
30
0.0
11
194817.056719
21
29631.857083
31
0.0
0
LINE
8
0
10
192816.823341
20
31733.841977
30
0.0
11
193833.177718
21
31671.012849
31
0.0
0
LINE
8
0
10
193833.177718
20
31671.012849
30
0.0
11
193844.924314
21
31670.286697
31
0.0
0
LINE
8
0
10
194210.375265
20
28814.049959
30
0.0
11
194793.937076
21
29633.865745
31
0.0
0
LINE
8
0
10
194793.937077
20
29633.865745
30
0.0
11
193831.355366
21
31650.770163
31
0.0
0
LINE
8
0
10
193831.355366
20
31650.770163
30
0.0
11
194793.937077
21
29633.865745
31
0.0
0
LINE
8
0
10
193831.943711
20
31651.050955
30
0.0
11
192826.809012
21
31713.186503
31
0.0
0
LINE
8
0
10
193831.943711
20
31651.050955
30
0.0
11
194793.937077
21
29633.865745
31
0.0
0
LINE
8
0
10
194811.986808
20
29642.480105
30
0.0
11
193849.993442
21
31659.665315
31
0.0
0
LINE
8
0
10
193849.993442
20
31659.665315
30
0.0
11
193844.924314
21
31670.286697
31
0.0
0
LINE
8
0
10
197421.179482
20
24128.719569
30
0.0
11
196458.597771
21
26145.623987
31
0.0
0
LINE
8
0
10
197444.299124
20
24126.710908
30
0.0
11
197437.473126
21
24117.121416
31
0.0
0
LINE
8
0
10
197437.473126
20
24117.121416
30
0.0
11
196847.066357
21
23287.689503
31
0.0
0
LINE
8
0
10
196471.578374
20
26164.859729
30
0.0
11
197439.229213
21
24137.333929
31
0.0
0
LINE
8
0
10
197439.229213
20
24137.333929
30
0.0
11
197444.299124
21
24126.710908
31
0.0
0
LINE
8
0
10
195444.065746
20
26228.695801
30
0.0
11
196460.420123
21
26165.866673
31
0.0
0
LINE
8
0
10
196460.420123
20
26165.866673
30
0.0
11
196472.166719
21
26165.140521
31
0.0
0
LINE
8
0
10
196837.617671
20
23308.903783
30
0.0
11
197421.179482
21
24128.719569
31
0.0
0
LINE
8
0
10
197421.179482
20
24128.719569
30
0.0
11
196458.597771
21
26145.623987
31
0.0
0
LINE
8
0
10
196458.597771
20
26145.623987
30
0.0
11
197421.179482
21
24128.719569
31
0.0
0
LINE
8
0
10
196459.186116
20
26145.904779
30
0.0
11
195454.051417
21
26208.040328
31
0.0
0
LINE
8
0
10
196459.186116
20
26145.904779
30
0.0
11
197421.179482
21
24128.719569
31
0.0
0
LINE
8
0
10
197439.229213
20
24137.333929
30
0.0
11
196477.235848
21
26154.519139
31
0.0
0
LINE
8
0
10
196477.235848
20
26154.519139
30
0.0
11
196472.166719
21
26165.140521
31
0.0
0
LINE
8
0
10
195179.777903
20
26434.485983
30
0.0
11
195524.338742
21
25712.490257
31
0.0
0
LINE
8
0
10
195179.777903
20
26434.485983
30
0.0
11
195044.403704
21
26369.880826
31
0.0
0
LINE
8
0
10
195524.338742
20
25712.490257
30
0.0
11
195388.964543
21
25647.885100
31
0.0
0
LINE
8
0
10
195044.403704
20
26369.880826
30
0.0
11
195388.964543
21
25647.885100
31
0.0
0
LINE
8
0
10
195444.331829
20
26228.406835
30
0.0
11
195530.472039
21
26047.907903
31
0.0
0
LINE
8
0
10
195444.331829
20
26228.406835
30
0.0
11
195179.747316
21
26434.550074
31
0.0
0
LINE
8
0
10
195530.472039
20
26047.907903
30
0.0
11
195524.308155
21
25712.554349
31
0.0
0
LINE
8
0
10
195179.747316
20
26434.550074
30
0.0
11
195524.308155
21
25712.554349
31
0.0
0
LINE
8
0
10
194130.684794
20
28981.034053
30
0.0
11
194216.825004
21
28800.535122
31
0.0
0
LINE
8
0
10
194130.684794
20
28981.034053
30
0.0
11
193866.100280
21
29187.177293
31
0.0
0
LINE
8
0
10
194216.825004
20
28800.535122
30
0.0
11
194210.661120
21
28465.181567
31
0.0
0
LINE
8
0
10
193866.100280
20
29187.177293
30
0.0
11
194210.661120
21
28465.181567
31
0.0
0
LINE
8
0
10
193866.130867
20
29187.113202
30
0.0
11
194210.691706
21
28465.117476
31
0.0
0
LINE
8
0
10
193866.130867
20
29187.113202
30
0.0
11
193730.756668
21
29122.508044
31
0.0
0
LINE
8
0
10
194210.691706
20
28465.117476
30
0.0
11
194075.317508
21
28400.512319
31
0.0
0
LINE
8
0
10
193730.756668
20
29122.508044
30
0.0
11
194075.317508
21
28400.512319
31
0.0
0
LINE
8
0
10
192817.061527
20
31733.611466
30
0.0
11
192903.201737
21
31553.112535
31
0.0
0
LINE
8
0
10
192817.061527
20
31733.611466
30
0.0
11
192552.477014
21
31939.754706
31
0.0
0
LINE
8
0
10
192903.201737
20
31553.112535
30
0.0
11
192897.037853
21
31217.758980
31
0.0
0
LINE
8
0
10
192552.477014
20
31939.754706
30
0.0
11
192897.037853
21
31217.758980
31
0.0
0
LINE
8
0
10
192552.507600
20
31939.690615
30
0.0
11
192897.068440
21
31217.694889
31
0.0
0
LINE
8
0
10
192552.507600
20
31939.690615
30
0.0
11
192417.133402
21
31875.085457
31
0.0
0
LINE
8
0
10
192897.068440
20
31217.694889
30
0.0
11
192761.694241
21
31153.089732
31
0.0
0
LINE
8
0
10
192417.133402
20
31875.085457
30
0.0
11
192761.694241
21
31153.089732
31
0.0
0
LINE
8
0
10
191503.442388
20
34486.180229
30
0.0
11
191589.582598
21
34305.681298
31
0.0
0
LINE
8
0
10
191503.442388
20
34486.180229
30
0.0
11
191238.857875
21
34692.323469
31
0.0
0
LINE
8
0
10
191589.582598
20
34305.681298
30
0.0
11
191583.418714
21
33970.327743
31
0.0
0
LINE
8
0
10
191238.857875
20
34692.323469
30
0.0
11
191583.418714
21
33970.327743
31
0.0
0
LINE
8
0
10
191238.888462
20
34692.259378
30
0.0
11
191583.449301
21
33970.263652
31
0.0
0
LINE
8
0
10
191238.888462
20
34692.259378
30
0.0
11
191103.514263
21
34627.654220
31
0.0
0
LINE
8
0
10
191583.449301
20
33970.263652
30
0.0
11
191448.075102
21
33905.658494
31
0.0
0
LINE
8
0
10
191103.514263
20
34627.654220
30
0.0
11
191448.075102
21
33905.658494
31
0.0
0
LINE
8
0
10
190189.812839
20
37238.770806
30
0.0
11
190275.953049
21
37058.271875
31
0.0
0
LINE
8
0
10
190189.812839
20
37238.770806
30
0.0
11
189925.228326
21
37444.914046
31
0.0
0
LINE
8
0
10
190275.953049
20
37058.271875
30
0.0
11
190269.789165
21
36722.918320
31
0.0
0
LINE
8
0
10
189925.228326
20
37444.914046
30
0.0
11
190269.789165
21
36722.918320
31
0.0
0
LINE
8
0
10
189925.258912
20
37444.849955
30
0.0
11
190269.819752
21
36722.854229
31
0.0
0
LINE
8
0
10
189925.258912
20
37444.849955
30
0.0
11
189789.884714
21
37380.244798
31
0.0
0
LINE
8
0
10
190269.819752
20
36722.854229
30
0.0
11
190134.445553
21
36658.249072
31
0.0
0
LINE
8
0
10
189789.884714
20
37380.244798
30
0.0
11
190134.445553
21
36658.249072
31
0.0
0
LINE
8
0
10
182756.161267
20
14646.619414
30
0.0
11
182034.165541
21
14302.058574
31
0.0
0
LINE
8
0
10
182756.161267
20
14646.619414
30
0.0
11
182691.556109
21
14781.993612
31
0.0
0
LINE
8
0
10
182034.165541
20
14302.058574
30
0.0
11
181969.560384
21
14437.432773
31
0.0
0
LINE
8
0
10
182691.556109
20
14781.993612
30
0.0
11
181969.560384
21
14437.432773
31
0.0
0
LINE
8
0
10
182550.082118
20
14382.065487
30
0.0
11
182369.583187
21
14295.925277
31
0.0
0
LINE
8
0
10
182550.082118
20
14382.065487
30
0.0
11
182756.225358
21
14646.650000
31
0.0
0
LINE
8
0
10
182369.583187
20
14295.925277
30
0.0
11
182034.229632
21
14302.089161
31
0.0
0
LINE
8
0
10
182756.225358
20
14646.650000
30
0.0
11
182034.229632
21
14302.089161
31
0.0
0
LINE
8
0
10
180520.277223
20
12415.963318
30
0.0
11
180510.687731
21
12422.789316
31
0.0
0
LINE
8
0
10
180510.687731
20
12422.789316
30
0.0
11
179681.255818
21
13013.196085
31
0.0
0
LINE
8
0
10
182482.830430
20
13352.605534
30
0.0
11
182472.209049
21
13347.536405
31
0.0
0
LINE
8
0
10
182472.209049
20
13347.536405
30
0.0
11
180530.900244
21
12421.033229
31
0.0
0
LINE
8
0
10
180530.900244
20
12421.033229
30
0.0
11
180520.277223
21
12415.963318
31
0.0
0
LINE
8
0
10
182546.421397
20
14380.318466
30
0.0
11
182483.609414
21
13364.241432
31
0.0
0
LINE
8
0
10
182483.609414
20
13364.241432
30
0.0
11
182482.883261
21
13352.494836
31
0.0
0
LINE
8
0
10
179702.054725
20
13022.940443
30
0.0
11
180522.285884
21
12439.082960
31
0.0
0
LINE
8
0
10
180522.285884
20
12439.082960
30
0.0
11
182463.594688
21
13365.586136
31
0.0
0
LINE
8
0
10
182463.647520
20
13365.475439
30
0.0
11
182525.774088
21
14370.464870
31
0.0
0
LINE
8
0
10
185436.623549
20
15925.877085
30
0.0
11
184714.627823
21
15581.316245
31
0.0
0
LINE
8
0
10
185436.623549
20
15925.877085
30
0.0
11
185372.018392
21
16061.251283
31
0.0
0
LINE
8
0
10
184714.627823
20
15581.316245
30
0.0
11
184650.022666
21
15716.690444
31
0.0
0
LINE
8
0
10
185372.018392
20
16061.251283
30
0.0
11
184650.022666
21
15716.690444
31
0.0
0
LINE
8
0
10
185230.544400
20
15661.323158
30
0.0
11
185050.045469
21
15575.182948
31
0.0
0
LINE
8
0
10
185230.544400
20
15661.323158
30
0.0
11
185436.687640
21
15925.907671
31
0.0
0
LINE
8
0
10
185050.045469
20
15575.182948
30
0.0
11
184714.691914
21
15581.346832
31
0.0
0
LINE
8
0
10
185436.687640
20
15925.907671
30
0.0
11
184714.691914
21
15581.346832
31
0.0
0
LINE
8
0
10
185881.862387
20
14974.693541
30
0.0
11
185872.272896
21
14981.519539
31
0.0
0
LINE
8
0
10
185872.272896
20
14981.519539
30
0.0
11
185042.840983
21
15571.926308
31
0.0
0
LINE
8
0
10
187844.415595
20
15911.335757
30
0.0
11
187833.794213
21
15906.266629
31
0.0
0
LINE
8
0
10
187833.794213
20
15906.266629
30
0.0
11
185892.485409
21
14979.763452
31
0.0
0
LINE
8
0
10
185892.485409
20
14979.763452
30
0.0
11
185881.862387
21
14974.693541
31
0.0
0
LINE
8
0
10
187908.009759
20
16939.100405
30
0.0
11
187845.194579
21
15922.971656
31
0.0
0
LINE
8
0
10
187845.194579
20
15922.971656
30
0.0
11
187844.468426
21
15911.225060
31
0.0
0
LINE
8
0
10
185063.639890
20
15581.670666
30
0.0
11
185883.871049
21
14997.813184
31
0.0
0
LINE
8
0
10
185883.871049
20
14997.813184
30
0.0
11
187825.179853
21
15924.316360
31
0.0
0
LINE
8
0
10
187825.232684
20
15924.205663
30
0.0
11
187887.362450
21
16929.246809
31
0.0
0
LINE
8
0
10
191243.168386
20
17533.290537
30
0.0
11
191233.578894
21
17540.116535
31
0.0
0
LINE
8
0
10
191233.578894
20
17540.116535
30
0.0
11
190404.146981
21
18130.523304
31
0.0
0
LINE
8
0
10
193205.721593
20
18469.932753
30
0.0
11
193195.100212
21
18464.863624
31
0.0
0
LINE
8
0
10
193195.100212
20
18464.863624
30
0.0
11
191253.791407
21
17538.360448
31
0.0
0
LINE
8
0
10
191253.791407
20
17538.360448
30
0.0
11
191243.168386
21
17533.290537
31
0.0
0
LINE
8
0
10
193269.315757
20
19497.697401
30
0.0
11
193206.500577
21
18481.568651
31
0.0
0
LINE
8
0
10
193206.500577
20
18481.568651
30
0.0
11
193205.774424
21
18469.822056
31
0.0
0
LINE
8
0
10
190424.945888
20
18140.267662
30
0.0
11
191245.177047
21
17556.410179
31
0.0
0
LINE
8
0
10
191245.177047
20
17556.410179
30
0.0
11
193186.485851
21
18482.913356
31
0.0
0
LINE
8
0
10
193186.538683
20
18482.802658
30
0.0
11
193248.668448
21
19487.843805
31
0.0
0
LINE
8
0
10
193272.787639
20
19499.354301
30
0.0
11
193092.288707
21
19413.214091
31
0.0
0
LINE
8
0
10
193272.787639
20
19499.354301
30
0.0
11
193478.930878
21
19763.938814
31
0.0
0
LINE
8
0
10
193092.288707
20
19413.214091
30
0.0
11
192756.935153
21
19419.377975
31
0.0
0
LINE
8
0
10
193478.930878
20
19763.938814
30
0.0
11
192756.935153
21
19419.377975
31
0.0
0
LINE
8
0
10
193478.866787
20
19763.908228
30
0.0
11
192756.871061
21
19419.347388
31
0.0
0
LINE
8
0
10
193478.866787
20
19763.908228
30
0.0
11
193414.261630
21
19899.282426
31
0.0
0
LINE
8
0
10
192756.871061
20
19419.347388
30
0.0
11
192692.265904
21
19554.721587
31
0.0
0
LINE
8
0
10
193414.261630
20
19899.282426
30
0.0
11
192692.265904
21
19554.721587
31
0.0
0
LINE
8
0
10
190798.208714
20
18484.607308
30
0.0
11
190076.212988
21
18140.046469
31
0.0
0
LINE
8
0
10
190798.208714
20
18484.607308
30
0.0
11
190733.603556
21
18619.981507
31
0.0
0
LINE
8
0
10
190076.212988
20
18140.046469
30
0.0
11
190011.607831
21
18275.420667
31
0.0
0
LINE
8
0
10
190733.603556
20
18619.981507
30
0.0
11
190011.607831
21
18275.420667
31
0.0
0
LINE
8
0
10
190592.129565
20
18220.053381
30
0.0
11
190411.630634
21
18133.913171
31
0.0
0
LINE
8
0
10
190592.129565
20
18220.053381
30
0.0
11
190798.272805
21
18484.637895
31
0.0
0
LINE
8
0
10
190411.630634
20
18133.913171
30
0.0
11
190076.277079
21
18140.077055
31
0.0
0
LINE
8
0
10
190798.272805
20
18484.637895
30
0.0
11
190076.277079
21
18140.077055
31
0.0
0
LINE
8
0
10
180075.461232
20
13367.348658
30
0.0
11
179353.465506
21
13022.787819
31
0.0
0
LINE
8
0
10
180075.461232
20
13367.348658
30
0.0
11
180010.856075
21
13502.722857
31
0.0
0
LINE
8
0
10
179353.465506
20
13022.787819
30
0.0
11
179288.860349
21
13158.162018
31
0.0
0
LINE
8
0
10
180010.856075
20
13502.722857
30
0.0
11
179288.860349
21
13158.162018
31
0.0
0
LINE
8
0
10
179869.382083
20
13102.794732
30
0.0
11
179688.883152
21
13016.654522
31
0.0
0
LINE
8
0
10
179869.382083
20
13102.794732
30
0.0
11
180075.525323
21
13367.379245
31
0.0
0
LINE
8
0
10
179688.883152
20
13016.654522
30
0.0
11
179353.529597
21
13022.818405
31
0.0
0
LINE
8
0
10
180075.525323
20
13367.379245
30
0.0
11
179353.529597
21
13022.818405
31
0.0
0
LINE
8
0
10
179353.507314
20
13022.806418
30
0.0
11
179113.465162
21
13243.850077
31
0.0
0
LINE
8
0
10
179353.506291
20
13022.806780
30
0.0
11
179438.817153
21
13264.067205
31
0.0
0
LINE
8
0
10
179113.465087
20
13243.850104
30
0.0
11
179155.978905
21
13364.079832
31
0.0
0
LINE
8
0
10
179155.978893
20
13364.079799
30
0.0
11
179438.817153
21
13264.067205
31
0.0
0
LINE
8
0
10
196493.380736
20
23681.951386
30
0.0
11
196837.941576
21
22959.955660
31
0.0
0
LINE
8
0
10
196493.380736
20
23681.951386
30
0.0
11
196358.006538
21
23617.346228
31
0.0
0
LINE
8
0
10
196837.941576
20
22959.955660
30
0.0
11
196702.567377
21
22895.350502
31
0.0
0
LINE
8
0
10
196358.006538
20
23617.346228
30
0.0
11
196702.567377
21
22895.350502
31
0.0
0
LINE
8
0
10
196757.934663
20
23475.872237
30
0.0
11
196844.074873
21
23295.373306
31
0.0
0
LINE
8
0
10
196757.934663
20
23475.872237
30
0.0
11
196493.350150
21
23682.015477
31
0.0
0
LINE
8
0
10
196844.074873
20
23295.373306
30
0.0
11
196837.910989
21
22960.019751
31
0.0
0
LINE
8
0
10
196493.350150
20
23682.015477
30
0.0
11
196837.910989
21
22960.019751
31
0.0
0
LINE
8
0
10
196159.514712
20
21043.204304
30
0.0
11
195437.518986
21
20698.643464
31
0.0
0
LINE
8
0
10
196159.514712
20
21043.204304
30
0.0
11
196094.909554
21
21178.578502
31
0.0
0
LINE
8
0
10
195437.518986
20
20698.643464
30
0.0
11
195372.913829
21
20834.017663
31
0.0
0
LINE
8
0
10
196094.909554
20
21178.578502
30
0.0
11
195372.913829
21
20834.017663
31
0.0
0
LINE
8
0
10
195953.435563
20
20778.650377
30
0.0
11
195772.936632
21
20692.510167
31
0.0
0
LINE
8
0
10
195953.435563
20
20778.650377
30
0.0
11
196159.578803
21
21043.234890
31
0.0
0
LINE
8
0
10
195772.936632
20
20692.510167
30
0.0
11
195437.583077
21
20698.674051
31
0.0
0
LINE
8
0
10
196159.578803
20
21043.234890
30
0.0
11
195437.583077
21
20698.674051
31
0.0
0
LINE
8
0
10
187911.320733
20
16940.680515
30
0.0
11
187730.821802
21
16854.540305
31
0.0
0
LINE
8
0
10
187911.320733
20
16940.680515
30
0.0
11
188117.463973
21
17205.265028
31
0.0
0
LINE
8
0
10
187730.821802
20
16854.540305
30
0.0
11
187395.468247
21
16860.704189
31
0.0
0
LINE
8
0
10
188117.463973
20
17205.265028
30
0.0
11
187395.468247
21
16860.704189
31
0.0
0
LINE
8
0
10
188117.463973
20
17205.265028
30
0.0
11
187395.468247
21
16860.704189
31
0.0
0
LINE
8
0
10
188117.463973
20
17205.265028
30
0.0
11
188052.858816
21
17340.639227
31
0.0
0
LINE
8
0
10
187395.468247
20
16860.704189
30
0.0
11
187330.863090
21
16996.078387
31
0.0
0
LINE
8
0
10
188052.858816
20
17340.639227
30
0.0
11
187330.863090
21
16996.078387
31
0.0
0
LINE
8
0
10
196837.941576
20
22959.955660
30
0.0
11
196602.454299
21
22678.233836
31
0.0
0
LINE
8
0
10
196837.941576
20
22959.955660
30
0.0
11
196596.723171
21
23045.385262
31
0.0
0
LINE
8
0
10
196602.454509
20
22678.234428
30
0.0
11
196481.823621
21
22720.956910
31
0.0
0
LINE
8
0
10
196596.723171
20
23045.385262
30
0.0
11
196481.823621
21
22720.956910
31
0.0
0
LINE
8
0
10
196134.570691
20
21357.112152
30
0.0
11
196159.598525
21
21043.242975
31
0.0
0
LINE
8
0
10
196134.570717
20
21357.112224
30
0.0
11
196014.361928
21
21399.685212
31
0.0
0
LINE
8
0
10
196159.598872
20
21043.243955
30
0.0
11
195918.380465
21
21128.673552
31
0.0
0
LINE
8
0
10
196014.361960
20
21399.685201
30
0.0
11
195918.380465
21
21128.673552
31
0.0
0
LINE
8
0
10
181701.437884
20
54417.339303
30
0.0
11
181670.059403
21
54402.241424
31
0.0
0
LINE
8
0
10
181701.437884
20
54417.339303
30
0.0
11
181662.564683
21
54497.987452
31
0.0
0
LINE
8
0
10
181670.059403
20
54402.241424
30
0.0
11
181631.186367
21
54482.889232
31
0.0
0
LINE
8
0
10
181631.186203
20
54482.889573
30
0.0
11
181662.564683
21
54497.987453
31
0.0
0
LINE
8
0
10
181926.709467
20
53871.535264
30
0.0
11
181958.047250
21
53886.717350
31
0.0
0
LINE
8
0
10
181926.709467
20
53871.535264
30
0.0
11
181957.095461
21
53808.881982
31
0.0
0
LINE
8
0
10
181958.047250
20
53886.717350
30
0.0
11
181988.433244
21
53824.064067
31
0.0
0
LINE
8
0
10
181957.095461
20
53808.881982
30
0.0
11
181988.433244
21
53824.064067
31
0.0
0
LINE
8
0
10
181418.320504
20
55004.048514
30
0.0
11
181386.942023
21
54988.950635
31
0.0
0
LINE
8
0
10
181418.320504
20
55004.048514
30
0.0
11
181379.447303
21
55084.696663
31
0.0
0
LINE
8
0
10
181386.942023
20
54988.950635
30
0.0
11
181348.068972
21
55069.598473
31
0.0
0
LINE
8
0
10
181348.068822
20
55069.598784
30
0.0
11
181379.447303
21
55084.696663
31
0.0
0
LINE
8
0
10
182365.015496
20
53013.546993
30
0.0
11
182333.588028
21
52998.551305
31
0.0
0
LINE
8
0
10
182365.015496
20
53013.546993
30
0.0
11
182324.800946
21
53097.742619
31
0.0
0
LINE
8
0
10
182333.588028
20
52998.551305
30
0.0
11
182293.373632
21
53082.746606
31
0.0
0
LINE
8
0
10
182293.373477
20
53082.746931
30
0.0
11
182324.800946
21
53097.742619
31
0.0
0
LINE
8
0
10
182664.538031
20
52386.827472
30
0.0
11
182633.110563
21
52371.831785
31
0.0
0
LINE
8
0
10
182664.538031
20
52386.827472
30
0.0
11
182624.323481
21
52471.023098
31
0.0
0
LINE
8
0
10
182633.110563
20
52371.831784
30
0.0
11
182592.896182
21
52456.027054
31
0.0
0
LINE
8
0
10
182592.896012
20
52456.027411
30
0.0
11
182624.323481
21
52471.023098
31
0.0
0
LINE
8
0
10
183233.281538
20
51118.542712
30
0.0
11
183264.666908
21
51133.626312
31
0.0
0
LINE
8
0
10
183233.281538
20
51118.542712
30
0.0
11
183264.711037
21
51053.129798
31
0.0
0
LINE
8
0
10
183264.666908
20
51133.626312
30
0.0
11
183296.096407
21
51068.213398
31
0.0
0
LINE
8
0
10
183264.711037
20
51053.129798
30
0.0
11
183296.096407
21
51068.213398
31
0.0
0
LINE
8
0
10
184992.310426
20
47508.290757
30
0.0
11
184960.882957
21
47493.295069
31
0.0
0
LINE
8
0
10
184992.310426
20
47508.290757
30
0.0
11
184952.095875
21
47592.486383
31
0.0
0
LINE
8
0
10
184960.882957
20
47493.295069
30
0.0
11
184920.668562
21
47577.490371
31
0.0
0
LINE
8
0
10
184920.668407
20
47577.490695
30
0.0
11
184952.095876
21
47592.486383
31
0.0
0
LINE
8
0
10
185291.832961
20
46881.571237
30
0.0
11
185260.405492
21
46866.575549
31
0.0
0
LINE
8
0
10
185291.832961
20
46881.571237
30
0.0
11
185251.618410
21
46965.766863
31
0.0
0
LINE
8
0
10
185260.405492
20
46866.575549
30
0.0
11
185220.191112
21
46950.770818
31
0.0
0
LINE
8
0
10
185220.190942
20
46950.771175
30
0.0
11
185251.618410
21
46965.766863
31
0.0
0
LINE
8
0
10
185860.576468
20
45613.286477
30
0.0
11
185891.961838
21
45628.370077
31
0.0
0
LINE
8
0
10
185860.576468
20
45613.286477
30
0.0
11
185892.005967
21
45547.873563
31
0.0
0
LINE
8
0
10
185891.961838
20
45628.370077
30
0.0
11
185923.391337
21
45562.957163
31
0.0
0
LINE
8
0
10
185892.005967
20
45547.873563
30
0.0
11
185923.391337
21
45562.957163
31
0.0
0
LINE
8
0
10
184536.031381
20
48383.532691
30
0.0
11
184567.456855
21
48398.532559
31
0.0
0
LINE
8
0
10
184536.031381
20
48383.532691
30
0.0
11
184576.191135
21
48299.311313
31
0.0
0
LINE
8
0
10
184567.456855
20
48398.532558
30
0.0
11
184607.616764
21
48314.310856
31
0.0
0
LINE
8
0
10
184576.191290
20
48299.310988
30
0.0
11
184607.616764
21
48314.310856
31
0.0
0
LINE
8
0
10
184237.210504
20
49010.587067
30
0.0
11
184268.635978
21
49025.586934
31
0.0
0
LINE
8
0
10
184237.210504
20
49010.587066
30
0.0
11
184277.370243
21
48926.365720
31
0.0
0
LINE
8
0
10
184268.635978
20
49025.586934
30
0.0
11
184308.795887
21
48941.365231
31
0.0
0
LINE
8
0
10
184277.370413
20
48926.365364
30
0.0
11
184308.795887
21
48941.365231
31
0.0
0
LINE
8
0
10
183671.860862
20
50280.388622
30
0.0
11
183640.393525
21
50265.476779
31
0.0
0
LINE
8
0
10
183671.860862
20
50280.388622
30
0.0
11
183640.777098
21
50345.966533
31
0.0
0
LINE
8
0
10
183640.393525
20
50265.476779
30
0.0
11
183609.309761
21
50331.054690
31
0.0
0
LINE
8
0
10
183609.309761
20
50331.054690
30
0.0
11
183640.777098
21
50345.966533
31
0.0
0
LINE
8
0
10
187163.289655
20
42878.353264
30
0.0
11
187194.715129
21
42893.353131
31
0.0
0
LINE
8
0
10
187163.289655
20
42878.353264
30
0.0
11
187203.449409
21
42794.131885
31
0.0
0
LINE
8
0
10
187194.715129
20
42893.353131
30
0.0
11
187234.875038
21
42809.131428
31
0.0
0
LINE
8
0
10
187203.449564
20
42794.131561
30
0.0
11
187234.875038
21
42809.131428
31
0.0
0
LINE
8
0
10
186864.468778
20
43505.407639
30
0.0
11
186895.894252
21
43520.407506
31
0.0
0
LINE
8
0
10
186864.468778
20
43505.407639
30
0.0
11
186904.628517
21
43421.186293
31
0.0
0
LINE
8
0
10
186895.894252
20
43520.407506
30
0.0
11
186936.054161
21
43436.185804
31
0.0
0
LINE
8
0
10
186904.628687
20
43421.185936
30
0.0
11
186936.054161
21
43436.185804
31
0.0
0
LINE
8
0
10
186299.119137
20
44775.209195
30
0.0
11
186267.651799
21
44760.297352
31
0.0
0
LINE
8
0
10
186299.119137
20
44775.209195
30
0.0
11
186268.035373
21
44840.787106
31
0.0
0
LINE
8
0
10
186267.651799
20
44760.297352
30
0.0
11
186236.568035
21
44825.875263
31
0.0
0
LINE
8
0
10
186236.568035
20
44825.875263
30
0.0
11
186268.035373
21
44840.787106
31
0.0
0
LINE
8
0
10
187619.568700
20
42003.111330
30
0.0
11
187588.141232
21
41988.115642
31
0.0
0
LINE
8
0
10
187619.568700
20
42003.111330
30
0.0
11
187579.354150
21
42087.306956
31
0.0
0
LINE
8
0
10
187588.141231
20
41988.115642
30
0.0
11
187547.926836
21
42072.310944
31
0.0
0
LINE
8
0
10
187547.926681
20
42072.311268
30
0.0
11
187579.354150
21
42087.306956
31
0.0
0
LINE
8
0
10
187919.091235
20
41376.391809
30
0.0
11
187887.663767
21
41361.396122
31
0.0
0
LINE
8
0
10
187919.091235
20
41376.391809
30
0.0
11
187878.876685
21
41460.587435
31
0.0
0
LINE
8
0
10
187887.663766
20
41361.396122
30
0.0
11
187847.449386
21
41445.591391
31
0.0
0
LINE
8
0
10
187847.449216
20
41445.591748
30
0.0
11
187878.876685
21
41460.587435
31
0.0
0
LINE
8
0
10
188487.834742
20
40108.107049
30
0.0
11
188519.220112
21
40123.190649
31
0.0
0
LINE
8
0
10
188487.834742
20
40108.107049
30
0.0
11
188519.264241
21
40042.694135
31
0.0
0
LINE
8
0
10
188519.220112
20
40123.190649
30
0.0
11
188550.649611
21
40057.777735
31
0.0
0
LINE
8
0
10
188519.264241
20
40042.694135
30
0.0
11
188550.649611
21
40057.777735
31
0.0
0
LINE
8
0
10
162456.907578
20
45720.705184
30
0.0
11
162452.667817
21
45686.142917
31
0.0
0
LINE
8
0
10
162456.907578
20
45720.705185
30
0.0
11
162377.044293
21
45730.705784
31
0.0
0
LINE
8
0
10
162452.667817
20
45686.142917
30
0.0
11
162372.804871
21
45696.143474
31
0.0
0
LINE
8
0
10
162372.804532
20
45696.143516
30
0.0
11
162377.044293
21
45730.705783
31
0.0
0
LINE
8
0
10
162978.628411
20
45621.048000
30
0.0
11
162982.784732
21
45655.620616
31
0.0
0
LINE
8
0
10
162978.628411
20
45621.048000
30
0.0
11
163040.764541
21
45613.436530
31
0.0
0
LINE
8
0
10
162982.784732
20
45655.620616
30
0.0
11
163044.920861
21
45648.009146
31
0.0
0
LINE
8
0
10
163040.764541
20
45613.436530
30
0.0
11
163044.920861
21
45648.009146
31
0.0
0
LINE
8
0
10
161875.750441
20
45793.190062
30
0.0
11
161871.510679
21
45758.627795
31
0.0
0
LINE
8
0
10
161875.750441
20
45793.190062
30
0.0
11
161795.887156
21
45803.190662
31
0.0
0
LINE
8
0
10
161871.510679
20
45758.627795
30
0.0
11
161791.647702
21
45768.628356
31
0.0
0
LINE
8
0
10
161791.647394
20
45768.628394
30
0.0
11
161795.887156
21
45803.190661
31
0.0
0
LINE
8
0
10
168990.719174
20
48878.129746
30
0.0
11
168986.479413
21
48843.567478
31
0.0
0
LINE
8
0
10
168990.719174
20
48878.129746
30
0.0
11
168910.855889
21
48888.130346
31
0.0
0
LINE
8
0
10
168986.479413
20
48843.567479
30
0.0
11
168906.616466
21
48853.568036
31
0.0
0
LINE
8
0
10
168906.616128
20
48853.568078
30
0.0
11
168910.855889
21
48888.130345
31
0.0
0
LINE
8
0
10
169512.440007
20
48778.472562
30
0.0
11
169516.596327
21
48813.045178
31
0.0
0
LINE
8
0
10
169512.440007
20
48778.472562
30
0.0
11
169574.576136
21
48770.861091
31
0.0
0
LINE
8
0
10
169516.596327
20
48813.045178
30
0.0
11
169578.732457
21
48805.433708
31
0.0
0
LINE
8
0
10
169574.576136
20
48770.861091
30
0.0
11
169578.732457
21
48805.433708
31
0.0
0
LINE
8
0
10
168409.562036
20
48950.614623
30
0.0
11
168405.322275
21
48916.052356
31
0.0
0
LINE
8
0
10
168409.562036
20
48950.614624
30
0.0
11
168329.698751
21
48960.615223
31
0.0
0
LINE
8
0
10
168405.322275
20
48916.052357
30
0.0
11
168325.459298
21
48926.052918
31
0.0
0
LINE
8
0
10
168325.458990
20
48926.052956
30
0.0
11
168329.698751
21
48960.615223
31
0.0
0
LINE
8
0
10
175524.530101
20
52035.554393
30
0.0
11
175520.290340
21
52000.992126
31
0.0
0
LINE
8
0
10
175524.530101
20
52035.554394
30
0.0
11
175444.666817
21
52045.554993
31
0.0
0
LINE
8
0
10
175520.290340
20
52000.992126
30
0.0
11
175440.427394
21
52010.992683
31
0.0
0
LINE
8
0
10
175440.427055
20
52010.992725
30
0.0
11
175444.666816
21
52045.554992
31
0.0
0
LINE
8
0
10
176046.250934
20
51935.897209
30
0.0
11
176050.407255
21
51970.469825
31
0.0
0
LINE
8
0
10
176046.250934
20
51935.897209
30
0.0
11
176108.387064
21
51928.285739
31
0.0
0
LINE
8
0
10
176050.407255
20
51970.469825
30
0.0
11
176112.543384
21
51962.858355
31
0.0
0
LINE
8
0
10
176108.387064
20
51928.285739
30
0.0
11
176112.543384
21
51962.858355
31
0.0
0
LINE
8
0
10
174943.372964
20
52108.039271
30
0.0
11
174939.133202
21
52073.477004
31
0.0
0
LINE
8
0
10
174943.372964
20
52108.039271
30
0.0
11
174863.509679
21
52118.039871
31
0.0
0
LINE
8
0
10
174939.133202
20
52073.477004
30
0.0
11
174859.270225
21
52083.477565
31
0.0
0
LINE
8
0
10
174859.269918
20
52083.477603
30
0.0
11
174863.509679
21
52118.039870
31
0.0
0
LINE
8
0
10
179875.990985
20
54544.592470
30
0.0
11
179897.257316
21
54517.018941
31
0.0
0
LINE
8
0
10
179875.990985
20
54544.592470
30
0.0
11
179802.126818
21
54487.580605
31
0.0
0
LINE
8
0
10
179897.257316
20
54517.018941
30
0.0
11
179823.393462
21
54460.007317
31
0.0
0
LINE
8
0
10
179823.393149
20
54460.007076
30
0.0
11
179802.126817
21
54487.580605
31
0.0
0
LINE
8
0
10
180435.910512
20
54933.760605
30
0.0
11
180414.567078
21
54961.274498
31
0.0
0
LINE
8
0
10
180435.910512
20
54933.760605
30
0.0
11
180493.257621
21
54978.236043
31
0.0
0
LINE
8
0
10
180414.567078
20
54961.274498
30
0.0
11
180471.914188
21
55005.749937
31
0.0
0
LINE
8
0
10
180493.257621
20
54978.236043
30
0.0
11
180471.914188
21
55005.749937
31
0.0
0
LINE
8
0
10
179279.766518
20
54084.051911
30
0.0
11
179301.003284
21
54056.455604
31
0.0
0
LINE
8
0
10
179279.766518
20
54084.051911
30
0.0
11
179205.842730
21
54027.118730
31
0.0
0
LINE
8
0
10
179301.003284
20
54056.455604
30
0.0
11
179227.079780
21
53999.522642
31
0.0
0
LINE
8
0
10
179227.079496
20
53999.522423
30
0.0
11
179205.842730
21
54027.118730
31
0.0
0
LINE
8
0
10
173342.180057
20
51387.167823
30
0.0
11
173363.446389
21
51359.594294
31
0.0
0
LINE
8
0
10
173342.180057
20
51387.167823
30
0.0
11
173268.315890
21
51330.155957
31
0.0
0
LINE
8
0
10
173363.446389
20
51359.594294
30
0.0
11
173289.582534
21
51302.582670
31
0.0
0
LINE
8
0
10
173289.582221
20
51302.582428
30
0.0
11
173268.315890
21
51330.155957
31
0.0
0
LINE
8
0
10
173902.099584
20
51776.335957
30
0.0
11
173880.756151
21
51803.849851
31
0.0
0
LINE
8
0
10
173902.099584
20
51776.335957
30
0.0
11
173959.446694
21
51820.811396
31
0.0
0
LINE
8
0
10
173880.756151
20
51803.849851
30
0.0
11
173938.103261
21
51848.325290
31
0.0
0
LINE
8
0
10
173959.446694
20
51820.811396
30
0.0
11
173938.103261
21
51848.325290
31
0.0
0
LINE
8
0
10
172745.955591
20
50926.627264
30
0.0
11
172767.192357
21
50899.030956
31
0.0
0
LINE
8
0
10
172745.955591
20
50926.627264
30
0.0
11
172672.031802
21
50869.694083
31
0.0
0
LINE
8
0
10
172767.192357
20
50899.030956
30
0.0
11
172693.268853
21
50842.097995
31
0.0
0
LINE
8
0
10
172693.268568
20
50842.097775
30
0.0
11
172672.031802
21
50869.694083
31
0.0
0
LINE
8
0
10
166808.369130
20
48229.743176
30
0.0
11
166829.635461
21
48202.169647
31
0.0
0
LINE
8
0
10
166808.369130
20
48229.743176
30
0.0
11
166734.504963
21
48172.731310
31
0.0
0
LINE
8
0
10
166829.635461
20
48202.169647
30
0.0
11
166755.771607
21
48145.158023
31
0.0
0
LINE
8
0
10
166755.771294
20
48145.157781
30
0.0
11
166734.504963
21
48172.731310
31
0.0
0
LINE
8
0
10
167368.288657
20
48618.911310
30
0.0
11
167346.945224
21
48646.425204
31
0.0
0
LINE
8
0
10
167368.288657
20
48618.911310
30
0.0
11
167425.635767
21
48663.386749
31
0.0
0
LINE
8
0
10
167346.945224
20
48646.425204
30
0.0
11
167404.292334
21
48690.900643
31
0.0
0
LINE
8
0
10
167425.635767
20
48663.386749
30
0.0
11
167404.292334
21
48690.900643
31
0.0
0
LINE
8
0
10
166212.144663
20
47769.202617
30
0.0
11
166233.381429
21
47741.606309
31
0.0
0
LINE
8
0
10
166212.144663
20
47769.202616
30
0.0
11
166138.220875
21
47712.269435
31
0.0
0
LINE
8
0
10
166233.381430
20
47741.606309
30
0.0
11
166159.457926
21
47684.673347
31
0.0
0
LINE
8
0
10
166159.457641
20
47684.673128
30
0.0
11
166138.220875
21
47712.269435
31
0.0
0
LINE
8
0
10
160274.558202
20
45072.318529
30
0.0
11
160295.824534
21
45044.744999
31
0.0
0
LINE
8
0
10
160274.558202
20
45072.318528
30
0.0
11
160200.694035
21
45015.306663
31
0.0
0
LINE
8
0
10
160295.824534
20
45044.744999
30
0.0
11
160221.960680
21
44987.733375
31
0.0
0
LINE
8
0
10
160221.960367
20
44987.733134
30
0.0
11
160200.694035
21
45015.306663
31
0.0
0
LINE
8
0
10
160834.477729
20
45461.486663
30
0.0
11
160813.134296
21
45489.000557
31
0.0
0
LINE
8
0
10
160834.477729
20
45461.486663
30
0.0
11
160891.824839
21
45505.962102
31
0.0
0
LINE
8
0
10
160813.134296
20
45489.000557
30
0.0
11
160870.481406
21
45533.475995
31
0.0
0
LINE
8
0
10
160891.824839
20
45505.962102
30
0.0
11
160870.481406
21
45533.475995
31
0.0
0
LINE
8
0
10
159678.333736
20
44611.777969
30
0.0
11
159699.570502
21
44584.181662
31
0.0
0
LINE
8
0
10
159678.333736
20
44611.777969
30
0.0
11
159604.409947
21
44554.844788
31
0.0
0
LINE
8
0
10
159699.570502
20
44584.181662
30
0.0
11
159625.646998
21
44527.248700
31
0.0
0
LINE
8
0
10
159625.646713
20
44527.248481
30
0.0
11
159604.409947
21
44554.844788
31
0.0
0
LINE
8
0
10
177924.818118
20
52991.378818
30
0.0
11
177903.475189
21
53018.893101
31
0.0
0
LINE
8
0
10
177924.818118
20
52991.378818
30
0.0
11
177998.565331
21
53048.541242
31
0.0
0
LINE
8
0
10
177903.475189
20
53018.893101
30
0.0
11
177977.222715
21
53076.055767
31
0.0
0
LINE
8
0
10
177998.565644
20
53048.541485
30
0.0
11
177977.222715
21
53076.055767
31
0.0
0
LINE
8
0
10
177364.797681
20
52602.342187
30
0.0
11
177386.063509
21
52574.768267
31
0.0
0
LINE
8
0
10
177364.797681
20
52602.342187
30
0.0
11
177307.335722
21
52558.015232
31
0.0
0
LINE
8
0
10
177386.063509
20
52574.768267
30
0.0
11
177328.601550
21
52530.441313
31
0.0
0
LINE
8
0
10
177328.601550
20
52530.441313
30
0.0
11
177307.335722
21
52558.015232
31
0.0
0
LINE
8
0
10
178520.419531
20
53452.754545
30
0.0
11
178499.076602
21
53480.268827
31
0.0
0
LINE
8
0
10
178520.419531
20
53452.754545
30
0.0
11
178594.166773
21
53509.916991
31
0.0
0
LINE
8
0
10
178499.076602
20
53480.268827
30
0.0
11
178572.824128
21
53537.431493
31
0.0
0
LINE
8
0
10
178594.167057
20
53509.917211
30
0.0
11
178572.824128
21
53537.431493
31
0.0
0
LINE
8
0
10
171391.007190
20
49833.954171
30
0.0
11
171369.664261
21
49861.468454
31
0.0
0
LINE
8
0
10
171391.007190
20
49833.954171
30
0.0
11
171464.754404
21
49891.116595
31
0.0
0
LINE
8
0
10
171369.664261
20
49861.468453
30
0.0
11
171443.411787
21
49918.631120
31
0.0
0
LINE
8
0
10
171464.754716
20
49891.116837
30
0.0
11
171443.411787
21
49918.631120
31
0.0
0
LINE
8
0
10
170830.986754
20
49444.917539
30
0.0
11
170852.252582
21
49417.343620
31
0.0
0
LINE
8
0
10
170830.986754
20
49444.917539
30
0.0
11
170773.524794
21
49400.590585
31
0.0
0
LINE
8
0
10
170852.252582
20
49417.343620
30
0.0
11
170794.790623
21
49373.016665
31
0.0
0
LINE
8
0
10
170794.790623
20
49373.016665
30
0.0
11
170773.524794
21
49400.590585
31
0.0
0
LINE
8
0
10
171986.608604
20
50295.329898
30
0.0
11
171965.265675
21
50322.844180
31
0.0
0
LINE
8
0
10
171986.608604
20
50295.329897
30
0.0
11
172060.355846
21
50352.492344
31
0.0
0
LINE
8
0
10
171965.265675
20
50322.844180
30
0.0
11
172039.013201
21
50380.006846
31
0.0
0
LINE
8
0
10
172060.356130
20
50352.492564
30
0.0
11
172039.013201
21
50380.006846
31
0.0
0
LINE
8
0
10
164857.196263
20
46676.529524
30
0.0
11
164835.853334
21
46704.043806
31
0.0
0
LINE
8
0
10
164857.196263
20
46676.529524
30
0.0
11
164930.943477
21
46733.691948
31
0.0
0
LINE
8
0
10
164835.853334
20
46704.043806
30
0.0
11
164909.600860
21
46761.206472
31
0.0
0
LINE
8
0
10
164930.943789
20
46733.692190
30
0.0
11
164909.600860
21
46761.206473
31
0.0
0
LINE
8
0
10
164297.175826
20
46287.492892
30
0.0
11
164318.441655
21
46259.918973
31
0.0
0
LINE
8
0
10
164297.175826
20
46287.492892
30
0.0
11
164239.713867
21
46243.165937
31
0.0
0
LINE
8
0
10
164318.441655
20
46259.918973
30
0.0
11
164260.979695
21
46215.592018
31
0.0
0
LINE
8
0
10
164260.979695
20
46215.592018
30
0.0
11
164239.713867
21
46243.165937
31
0.0
0
LINE
8
0
10
165452.797676
20
47137.905250
30
0.0
11
165431.454747
21
47165.419533
31
0.0
0
LINE
8
0
10
165452.797677
20
47137.905250
30
0.0
11
165526.544919
21
47195.067696
31
0.0
0
LINE
8
0
10
165431.454747
20
47165.419533
30
0.0
11
165505.202274
21
47222.582199
31
0.0
0
LINE
8
0
10
165526.545203
20
47195.067917
30
0.0
11
165505.202273
21
47222.582199
31
0.0
0
LINE
8
0
10
158323.385335
20
43519.104877
30
0.0
11
158302.042406
21
43546.619159
31
0.0
0
LINE
8
0
10
158323.385335
20
43519.104877
30
0.0
11
158397.132549
21
43576.267301
31
0.0
0
LINE
8
0
10
158302.042406
20
43546.619159
30
0.0
11
158375.789932
21
43603.781825
31
0.0
0
LINE
8
0
10
158397.132862
20
43576.267543
30
0.0
11
158375.789932
21
43603.781825
31
0.0
0
LINE
8
0
10
157763.364899
20
43130.068245
30
0.0
11
157784.630727
21
43102.494326
31
0.0
0
LINE
8
0
10
157763.364899
20
43130.068245
30
0.0
11
157705.902940
21
43085.741290
31
0.0
0
LINE
8
0
10
157784.630727
20
43102.494326
30
0.0
11
157727.168768
21
43058.167371
31
0.0
0
LINE
8
0
10
157727.168768
20
43058.167371
30
0.0
11
157705.902940
21
43085.741290
31
0.0
0
LINE
8
0
10
158918.986749
20
43980.480603
30
0.0
11
158897.643820
21
44007.994886
31
0.0
0
LINE
8
0
10
158918.986749
20
43980.480603
30
0.0
11
158992.733991
21
44037.643049
31
0.0
0
LINE
8
0
10
158897.643820
20
44007.994885
30
0.0
11
158971.391346
21
44065.157552
31
0.0
0
LINE
8
0
10
158992.734275
20
44037.643269
30
0.0
11
158971.391346
21
44065.157552
31
0.0
0
LINE
8
0
10
196279.525714
20
22034.246321
30
0.0
11
196246.654766
21
22045.737933
31
0.0
0
LINE
8
0
10
196279.525714
20
22034.246321
30
0.0
11
196310.265773
21
22122.281738
31
0.0
0
LINE
8
0
10
196246.654766
20
22045.737933
30
0.0
11
196277.394695
21
22133.772978
31
0.0
0
LINE
8
0
10
196277.394826
20
22133.773350
30
0.0
11
196310.265773
21
22122.281738
31
0.0
0
LINE
8
0
10
196044.961802
20
21465.808672
30
0.0
11
196077.864768
21
21454.409058
31
0.0
0
LINE
8
0
10
196044.961802
20
21465.808672
30
0.0
11
196021.211536
21
21397.281475
31
0.0
0
LINE
8
0
10
196077.864768
20
21454.409058
30
0.0
11
196054.114503
21
21385.881861
31
0.0
0
LINE
8
0
10
196021.211536
20
21397.281475
30
0.0
11
196054.114503
21
21385.881861
31
0.0
0
LINE
8
0
10
196502.934422
20
22674.927296
30
0.0
11
196470.063475
21
22686.418909
31
0.0
0
LINE
8
0
10
196502.934422
20
22674.927296
30
0.0
11
196533.674482
21
22762.962714
31
0.0
0
LINE
8
0
10
196470.063475
20
22686.418909
30
0.0
11
196500.803416
21
22774.453987
31
0.0
0
LINE
8
0
10
196500.803534
20
22774.454326
30
0.0
11
196533.674482
21
22762.962714
31
0.0
0
LINE
8
0
10
177840.933361
20
13825.832566
30
0.0
11
177829.190807
21
13793.050425
31
0.0
0
LINE
8
0
10
177840.933361
20
13825.832566
30
0.0
11
177753.159389
21
13857.310210
31
0.0
0
LINE
8
0
10
177829.190807
20
13793.050425
30
0.0
11
177741.416463
21
13824.528203
31
0.0
0
LINE
8
0
10
177753.159017
20
13857.310343
30
0.0
11
177741.416463
21
13824.528202
31
0.0
0
LINE
8
0
10
177202.343072
20
14055.148955
30
0.0
11
177190.600518
21
14022.366814
31
0.0
0
LINE
8
0
10
177202.343072
20
14055.148955
30
0.0
11
177114.569066
21
14086.626612
31
0.0
0
LINE
8
0
10
177190.600518
20
14022.366814
30
0.0
11
177102.826174
21
14053.844592
31
0.0
0
LINE
8
0
10
177114.568728
20
14086.626733
30
0.0
11
177102.826174
21
14053.844592
31
0.0
0
LINE
8
0
10
179073.520155
20
13349.344190
30
0.0
11
179085.354369
21
13382.093355
31
0.0
0
LINE
8
0
10
179073.520155
20
13349.344190
30
0.0
11
179141.732202
21
13324.703399
31
0.0
0
LINE
8
0
10
179085.354369
20
13382.093355
30
0.0
11
179153.566416
21
13357.452564
31
0.0
0
LINE
8
0
10
179153.566416
20
13357.452564
30
0.0
11
179141.732202
21
13324.703399
31
0.0
0
LINE
8
0
10
190203.787103
20
36588.137654
30
0.0
11
190172.359634
21
36573.141966
31
0.0
0
LINE
8
0
10
190203.787102
20
36588.137653
30
0.0
11
190163.572552
21
36672.333279
31
0.0
0
LINE
8
0
10
190172.359634
20
36573.141966
30
0.0
11
190132.145238
21
36657.337267
31
0.0
0
LINE
8
0
10
190132.145083
20
36657.337592
30
0.0
11
190163.572552
21
36672.333280
31
0.0
0
LINE
8
0
10
190503.309637
20
35961.418133
30
0.0
11
190471.882169
21
35946.422445
31
0.0
0
LINE
8
0
10
190503.309637
20
35961.418133
30
0.0
11
190463.095087
21
36045.613759
31
0.0
0
LINE
8
0
10
190471.882169
20
35946.422445
30
0.0
11
190431.667789
21
36030.617715
31
0.0
0
LINE
8
0
10
190431.667618
20
36030.618071
30
0.0
11
190463.095087
21
36045.613759
31
0.0
0
LINE
8
0
10
191072.053145
20
34693.133373
30
0.0
11
191103.438514
21
34708.216973
31
0.0
0
LINE
8
0
10
191072.053145
20
34693.133373
30
0.0
11
191103.482643
21
34627.720459
31
0.0
0
LINE
8
0
10
191103.438514
20
34708.216973
30
0.0
11
191134.868013
21
34642.804059
31
0.0
0
LINE
8
0
10
191103.482643
20
34627.720459
30
0.0
11
191134.868013
21
34642.804059
31
0.0
0
LINE
8
0
10
192374.756745
20
31958.220247
30
0.0
11
192406.182219
21
31973.220115
31
0.0
0
LINE
8
0
10
192374.756745
20
31958.220247
30
0.0
11
192414.916499
21
31873.998869
31
0.0
0
LINE
8
0
10
192406.182219
20
31973.220115
30
0.0
11
192446.342128
21
31888.998412
31
0.0
0
LINE
8
0
10
192414.916654
20
31873.998545
30
0.0
11
192446.342128
21
31888.998412
31
0.0
0
LINE
8
0
10
192075.935868
20
32585.274623
30
0.0
11
192107.361342
21
32600.274490
31
0.0
0
LINE
8
0
10
192075.935868
20
32585.274623
30
0.0
11
192116.095607
21
32501.053277
31
0.0
0
LINE
8
0
10
192107.361342
20
32600.274490
30
0.0
11
192147.521251
21
32516.052787
31
0.0
0
LINE
8
0
10
192116.095777
20
32501.052920
30
0.0
11
192147.521251
21
32516.052787
31
0.0
0
LINE
8
0
10
191510.586227
20
33855.076179
30
0.0
11
191479.118889
21
33840.164336
31
0.0
0
LINE
8
0
10
191510.586227
20
33855.076179
30
0.0
11
191479.502463
21
33920.654089
31
0.0
0
LINE
8
0
10
191479.118889
20
33840.164336
30
0.0
11
191448.035125
21
33905.742246
31
0.0
0
LINE
8
0
10
191448.035125
20
33905.742246
30
0.0
11
191479.502463
21
33920.654089
31
0.0
0
LINE
8
0
10
192831.035790
20
31082.978313
30
0.0
11
192799.608322
21
31067.982626
31
0.0
0
LINE
8
0
10
192831.035790
20
31082.978313
30
0.0
11
192790.821240
21
31167.173939
31
0.0
0
LINE
8
0
10
192799.608322
20
31067.982626
30
0.0
11
192759.393926
21
31152.177927
31
0.0
0
LINE
8
0
10
192759.393771
20
31152.178252
30
0.0
11
192790.821240
21
31167.173939
31
0.0
0
LINE
8
0
10
193130.558325
20
30456.258793
30
0.0
11
193099.130857
21
30441.263105
31
0.0
0
LINE
8
0
10
193130.558325
20
30456.258793
30
0.0
11
193090.343775
21
30540.454419
31
0.0
0
LINE
8
0
10
193099.130857
20
30441.263105
30
0.0
11
193058.916476
21
30525.458375
31
0.0
0
LINE
8
0
10
193058.916306
20
30525.458731
30
0.0
11
193090.343775
21
30540.454419
31
0.0
0
LINE
8
0
10
193699.301832
20
29187.974033
30
0.0
11
193730.687202
21
29203.057633
31
0.0
0
LINE
8
0
10
193699.301832
20
29187.974033
30
0.0
11
193730.731331
21
29122.561119
31
0.0
0
LINE
8
0
10
193730.687202
20
29203.057633
30
0.0
11
193762.116701
21
29137.644719
31
0.0
0
LINE
8
0
10
193730.731331
20
29122.561119
30
0.0
11
193762.116701
21
29137.644719
31
0.0
0
LINE
8
0
10
195458.306093
20
25577.773682
30
0.0
11
195426.878624
21
25562.777994
31
0.0
0
LINE
8
0
10
195458.306093
20
25577.773682
30
0.0
11
195418.091542
21
25661.969308
31
0.0
0
LINE
8
0
10
195426.878624
20
25562.777994
30
0.0
11
195386.664228
21
25646.973296
31
0.0
0
LINE
8
0
10
195386.664074
20
25646.973620
30
0.0
11
195418.091542
21
25661.969308
31
0.0
0
LINE
8
0
10
195757.828628
20
24951.054162
30
0.0
11
195726.401159
21
24936.058474
31
0.0
0
LINE
8
0
10
195757.828628
20
24951.054161
30
0.0
11
195717.614077
21
25035.249787
31
0.0
0
LINE
8
0
10
195726.401159
20
24936.058474
30
0.0
11
195686.186779
21
25020.253743
31
0.0
0
LINE
8
0
10
195686.186609
20
25020.254100
30
0.0
11
195717.614077
21
25035.249788
31
0.0
0
LINE
8
0
10
196326.572135
20
23682.769401
30
0.0
11
196357.957504
21
23697.853001
31
0.0
0
LINE
8
0
10
196326.572135
20
23682.769401
30
0.0
11
196358.001634
21
23617.356487
31
0.0
0
LINE
8
0
10
196357.957504
20
23697.853001
30
0.0
11
196389.387003
21
23632.440087
31
0.0
0
LINE
8
0
10
196358.001634
20
23617.356487
30
0.0
11
196389.387003
21
23632.440087
31
0.0
0
LINE
8
0
10
195002.027048
20
26453.015616
30
0.0
11
195033.452522
21
26468.015483
31
0.0
0
LINE
8
0
10
195002.027048
20
26453.015616
30
0.0
11
195042.186802
21
26368.794237
31
0.0
0
LINE
8
0
10
195033.452522
20
26468.015483
30
0.0
11
195073.612431
21
26383.793780
31
0.0
0
LINE
8
0
10
195042.186957
20
26368.793913
30
0.0
11
195073.612431
21
26383.793780
31
0.0
0
LINE
8
0
10
194703.206171
20
27080.069991
30
0.0
11
194734.631645
21
27095.069859
31
0.0
0
LINE
8
0
10
194703.206171
20
27080.069991
30
0.0
11
194743.365910
21
26995.848645
31
0.0
0
LINE
8
0
10
194734.631645
20
27095.069859
30
0.0
11
194774.791554
21
27010.848156
31
0.0
0
LINE
8
0
10
194743.366080
20
26995.848288
30
0.0
11
194774.791554
21
27010.848156
31
0.0
0
LINE
8
0
10
194137.856529
20
28349.871547
30
0.0
11
194106.389191
21
28334.959704
31
0.0
0
LINE
8
0
10
194137.856529
20
28349.871547
30
0.0
11
194106.772765
21
28415.449458
31
0.0
0
LINE
8
0
10
194106.389191
20
28334.959704
30
0.0
11
194075.305427
21
28400.537615
31
0.0
0
LINE
8
0
10
194075.305427
20
28400.537615
30
0.0
11
194106.772765
21
28415.449458
31
0.0
0
LINE
8
0
10
184592.372165
20
15674.664272
30
0.0
11
184596.691356
21
15665.645148
31
0.0
0
LINE
8
0
10
184592.372165
20
15674.664272
30
0.0
11
183383.487746
21
15095.995179
31
0.0
0
LINE
8
0
10
184596.691356
20
15665.645148
30
0.0
11
183387.806933
21
15086.976062
31
0.0
0
LINE
8
0
10
183383.487745
20
15095.995179
30
0.0
11
183387.806933
21
15086.976062
31
0.0
0
LINE
8
0
10
182772.646987
20
14820.305894
30
0.0
11
182787.687176
21
14788.899701
31
0.0
0
LINE
8
0
10
182772.646987
20
14820.305894
30
0.0
11
182691.463539
21
14781.457691
31
0.0
0
LINE
8
0
10
182787.687176
20
14788.899701
30
0.0
11
182706.503415
21
14750.051348
31
0.0
0
LINE
8
0
10
182691.463227
20
14781.457542
30
0.0
11
182706.503415
21
14750.051348
31
0.0
0
LINE
8
0
10
183296.116605
20
15069.659600
30
0.0
11
183296.003806
21
15069.605958
31
0.0
0
LINE
8
0
10
183304.591666
20
15051.543600
30
0.0
11
183296.003806
21
15069.605958
31
0.0
0
LINE
8
0
10
183304.591666
20
15051.543600
30
0.0
11
183304.704464
21
15051.597243
31
0.0
0
LINE
8
0
10
183296.116605
20
15069.659600
30
0.0
11
183304.704464
21
15051.597243
31
0.0
0
LINE
8
0
10
182781.477112
20
14802.354177
30
0.0
11
182781.394832
21
14802.315042
31
0.0
0
LINE
8
0
10
182781.394832
20
14802.315042
30
0.0
11
182772.806973
21
14820.377400
31
0.0
0
LINE
8
0
10
182772.806973
20
14820.377400
30
0.0
11
182772.889253
21
14820.416535
31
0.0
0
LINE
8
0
10
182781.477112
20
14802.354177
30
0.0
11
182772.889253
21
14820.416535
31
0.0
0
LINE
8
0
10
183304.840321
20
15051.362869
30
0.0
11
183304.758044
21
15051.323730
31
0.0
0
LINE
8
0
10
182781.375538
20
14802.355603
30
0.0
11
183304.758044
21
15051.323730
31
0.0
0
LINE
8
0
10
182772.787679
20
14820.417961
30
0.0
11
183296.170185
21
15069.386088
31
0.0
0
LINE
8
0
10
183296.170185
20
15069.386088
30
0.0
11
183296.252462
21
15069.425227
31
0.0
0
LINE
8
0
10
183377.085750
20
15109.363051
30
0.0
11
183392.125939
21
15077.956857
31
0.0
0
LINE
8
0
10
183377.085750
20
15109.363051
30
0.0
11
183295.902334
21
15070.514863
31
0.0
0
LINE
8
0
10
183392.125939
20
15077.956857
30
0.0
11
183310.942178
21
15039.108505
31
0.0
0
LINE
8
0
10
183295.901990
20
15070.514698
30
0.0
11
183310.942178
21
15039.108505
31
0.0
0
LINE
8
0
10
184601.689448
20
15655.201588
30
0.0
11
184586.734110
21
15686.648275
31
0.0
0
LINE
8
0
10
184601.689448
20
15655.201588
30
0.0
11
184664.904717
21
15685.265349
31
0.0
0
LINE
8
0
10
184586.734110
20
15686.648275
30
0.0
11
184649.949379
21
15716.712036
31
0.0
0
LINE
8
0
10
184649.949379
20
15716.712036
30
0.0
11
184664.904717
21
15685.265349
31
0.0
0
LINE
8
0
10
180083.620677
20
13511.854806
30
0.0
11
180079.325854
21
13520.885559
31
0.0
0
LINE
8
0
10
180083.620677
20
13511.854806
30
0.0
11
181293.864366
21
14087.675675
31
0.0
0
LINE
8
0
10
180079.325854
20
13520.885559
30
0.0
11
181289.569546
21
14096.706421
31
0.0
0
LINE
8
0
10
181289.569546
20
14096.706421
30
0.0
11
181293.864366
21
14087.675675
31
0.0
0
LINE
8
0
10
181903.063399
20
14366.727242
30
0.0
11
181888.108062
21
14398.173929
31
0.0
0
LINE
8
0
10
181903.063399
20
14366.727242
30
0.0
11
181984.328562
21
14405.405024
31
0.0
0
LINE
8
0
10
181888.108062
20
14398.173930
30
0.0
11
181969.372912
21
14436.851562
31
0.0
0
LINE
8
0
10
181969.373225
20
14436.851711
30
0.0
11
181984.328562
21
14405.405023
31
0.0
0
LINE
8
0
10
181373.639130
20
14130.027394
30
0.0
11
181373.751783
21
14130.081343
31
0.0
0
LINE
8
0
10
181365.111616
20
14148.118738
30
0.0
11
181373.751783
21
14130.081343
31
0.0
0
LINE
8
0
10
181365.111616
20
14148.118738
30
0.0
11
181364.998964
21
14148.064788
31
0.0
0
LINE
8
0
10
181373.639130
20
14130.027394
30
0.0
11
181364.998964
21
14148.064788
31
0.0
0
LINE
8
0
10
181887.869666
20
14398.055181
30
0.0
11
181887.951843
21
14398.094531
31
0.0
0
LINE
8
0
10
181887.951843
20
14398.094531
30
0.0
11
181896.592010
21
14380.057136
31
0.0
0
LINE
8
0
10
181896.592010
20
14380.057136
30
0.0
11
181896.509832
21
14380.017786
31
0.0
0
LINE
8
0
10
181887.869666
20
14398.055181
30
0.0
11
181896.509832
21
14380.017786
31
0.0
0
LINE
8
0
10
181365.095715
20
14147.811752
30
0.0
11
181365.177894
21
14147.851097
31
0.0
0
LINE
8
0
10
181887.932446
20
14398.135044
30
0.0
11
181365.177894
21
14147.851097
31
0.0
0
LINE
8
0
10
181896.572613
20
14380.097648
30
0.0
11
181373.818061
21
14129.813702
31
0.0
0
LINE
8
0
10
181373.818061
20
14129.813702
30
0.0
11
181373.735882
21
14129.774357
31
0.0
0
LINE
8
0
10
181298.159367
20
14078.645014
30
0.0
11
181283.204030
21
14110.091702
31
0.0
0
LINE
8
0
10
181298.159367
20
14078.645014
30
0.0
11
181379.424530
21
14117.322796
31
0.0
0
LINE
8
0
10
181283.204030
20
14110.091702
30
0.0
11
181364.468849
21
14148.769319
31
0.0
0
LINE
8
0
10
181364.469193
20
14148.769483
30
0.0
11
181379.424530
21
14117.322796
31
0.0
0
LINE
8
0
10
180073.555660
20
13532.806500
30
0.0
11
180088.595848
21
13501.400307
31
0.0
0
LINE
8
0
10
180073.555660
20
13532.806500
30
0.0
11
180010.421792
21
13502.572169
31
0.0
0
LINE
8
0
10
180088.595848
20
13501.400307
30
0.0
11
180025.461980
21
13471.165976
31
0.0
0
LINE
8
0
10
180010.421792
20
13502.572169
30
0.0
11
180025.461980
21
13471.165976
31
0.0
0
LINE
8
0
10
189953.905323
20
18233.419865
30
0.0
11
189958.224513
21
18224.400741
31
0.0
0
LINE
8
0
10
189953.905323
20
18233.419865
30
0.0
11
188745.020903
21
17654.750772
31
0.0
0
LINE
8
0
10
189958.224513
20
18224.400741
30
0.0
11
188749.340090
21
17645.731655
31
0.0
0
LINE
8
0
10
188745.020903
20
17654.750772
30
0.0
11
188749.340090
21
17645.731655
31
0.0
0
LINE
8
0
10
188134.180144
20
17379.061488
30
0.0
11
188149.220333
21
17347.655294
31
0.0
0
LINE
8
0
10
188134.180144
20
17379.061488
30
0.0
11
188052.996696
21
17340.213285
31
0.0
0
LINE
8
0
10
188149.220333
20
17347.655295
30
0.0
11
188068.036572
21
17308.806942
31
0.0
0
LINE
8
0
10
188052.996384
20
17340.213135
30
0.0
11
188068.036572
21
17308.806942
31
0.0
0
LINE
8
0
10
188657.649762
20
17628.415193
30
0.0
11
188657.536963
21
17628.361551
31
0.0
0
LINE
8
0
10
188666.124823
20
17610.299193
30
0.0
11
188657.536963
21
17628.361551
31
0.0
0
LINE
8
0
10
188666.124823
20
17610.299193
30
0.0
11
188666.237621
21
17610.352837
31
0.0
0
LINE
8
0
10
188657.649762
20
17628.415193
30
0.0
11
188666.237621
21
17610.352837
31
0.0
0
LINE
8
0
10
188143.010269
20
17361.109770
30
0.0
11
188142.927989
21
17361.070636
31
0.0
0
LINE
8
0
10
188142.927989
20
17361.070636
30
0.0
11
188134.340130
21
17379.132994
31
0.0
0
LINE
8
0
10
188134.340130
20
17379.132994
30
0.0
11
188134.422410
21
17379.172128
31
0.0
0
LINE
8
0
10
188143.010269
20
17361.109770
30
0.0
11
188134.422410
21
17379.172128
31
0.0
0
LINE
8
0
10
188666.373479
20
17610.118462
30
0.0
11
188666.291201
21
17610.079323
31
0.0
0
LINE
8
0
10
188142.908695
20
17361.111197
30
0.0
11
188666.291201
21
17610.079323
31
0.0
0
LINE
8
0
10
188134.320836
20
17379.173555
30
0.0
11
188657.703342
21
17628.141682
31
0.0
0
LINE
8
0
10
188657.703342
20
17628.141682
30
0.0
11
188657.785619
21
17628.180820
31
0.0
0
LINE
8
0
10
188738.618907
20
17668.118644
30
0.0
11
188753.659096
21
17636.712451
31
0.0
0
LINE
8
0
10
188738.618907
20
17668.118644
30
0.0
11
188657.435491
21
17629.270456
31
0.0
0
LINE
8
0
10
188753.659096
20
17636.712451
30
0.0
11
188672.475335
21
17597.864098
31
0.0
0
LINE
8
0
10
188657.435147
20
17629.270291
30
0.0
11
188672.475335
21
17597.864098
31
0.0
0
LINE
8
0
10
189963.222605
20
18213.957181
30
0.0
11
189948.267267
21
18245.403868
31
0.0
0
LINE
8
0
10
189963.222605
20
18213.957181
30
0.0
11
190026.437874
21
18244.020942
31
0.0
0
LINE
8
0
10
189948.267267
20
18245.403868
30
0.0
11
190011.482537
21
18275.467629
31
0.0
0
LINE
8
0
10
190011.482537
20
18275.467629
30
0.0
11
190026.437874
21
18244.020942
31
0.0
0
LINE
8
0
10
185445.355261
20
16070.706527
30
0.0
11
185441.060438
21
16079.737280
31
0.0
0
LINE
8
0
10
185445.355261
20
16070.706527
30
0.0
11
186655.598950
21
16646.527396
31
0.0
0
LINE
8
0
10
185441.060438
20
16079.737280
30
0.0
11
186651.304130
21
16655.558142
31
0.0
0
LINE
8
0
10
186651.304130
20
16655.558142
30
0.0
11
186655.598950
21
16646.527396
31
0.0
0
LINE
8
0
10
187264.797983
20
16925.578963
30
0.0
11
187249.842646
21
16957.025650
31
0.0
0
LINE
8
0
10
187264.797983
20
16925.578963
30
0.0
11
187346.063146
21
16964.256745
31
0.0
0
LINE
8
0
10
187249.842646
20
16957.025651
30
0.0
11
187331.107496
21
16995.703283
31
0.0
0
LINE
8
0
10
187331.107809
20
16995.703432
30
0.0
11
187346.063146
21
16964.256744
31
0.0
0
LINE
8
0
10
186735.373714
20
16688.879115
30
0.0
11
186735.486366
21
16688.933064
31
0.0
0
LINE
8
0
10
186726.846200
20
16706.970459
30
0.0
11
186735.486366
21
16688.933064
31
0.0
0
LINE
8
0
10
186726.846200
20
16706.970459
30
0.0
11
186726.733548
21
16706.916509
31
0.0
0
LINE
8
0
10
186735.373714
20
16688.879115
30
0.0
11
186726.733548
21
16706.916509
31
0.0
0
LINE
8
0
10
187249.604249
20
16956.906902
30
0.0
11
187249.686426
21
16956.946252
31
0.0
0
LINE
8
0
10
187249.686426
20
16956.946252
30
0.0
11
187258.326593
21
16938.908857
31
0.0
0
LINE
8
0
10
187258.326593
20
16938.908857
30
0.0
11
187258.244416
21
16938.869507
31
0.0
0
LINE
8
0
10
187249.604249
20
16956.906902
30
0.0
11
187258.244416
21
16938.869507
31
0.0
0
LINE
8
0
10
186726.830299
20
16706.663473
30
0.0
11
186726.912478
21
16706.702818
31
0.0
0
LINE
8
0
10
187249.667030
20
16956.986765
30
0.0
11
186726.912478
21
16706.702818
31
0.0
0
LINE
8
0
10
187258.307197
20
16938.949369
30
0.0
11
186735.552644
21
16688.665423
31
0.0
0
LINE
8
0
10
186735.552644
20
16688.665423
30
0.0
11
186735.470466
21
16688.626078
31
0.0
0
LINE
8
0
10
186659.893951
20
16637.496735
30
0.0
11
186644.938614
21
16668.943423
31
0.0
0
LINE
8
0
10
186659.893951
20
16637.496735
30
0.0
11
186741.159114
21
16676.174517
31
0.0
0
LINE
8
0
10
186644.938614
20
16668.943423
30
0.0
11
186726.203432
21
16707.621040
31
0.0
0
LINE
8
0
10
186726.203777
20
16707.621204
30
0.0
11
186741.159114
21
16676.174517
31
0.0
0
LINE
8
0
10
185435.290243
20
16091.658221
30
0.0
11
185450.330431
21
16060.252028
31
0.0
0
LINE
8
0
10
185435.290243
20
16091.658221
30
0.0
11
185372.156376
21
16061.423890
31
0.0
0
LINE
8
0
10
185450.330431
20
16060.252028
30
0.0
11
185387.196564
21
16030.017697
31
0.0
0
LINE
8
0
10
185372.156376
20
16061.423890
30
0.0
11
185387.196564
21
16030.017697
31
0.0
0
LINE
8
0
10
190806.785046
20
18629.362598
30
0.0
11
190802.490223
21
18638.393351
31
0.0
0
LINE
8
0
10
190806.785046
20
18629.362598
30
0.0
11
192017.028735
21
19205.183467
31
0.0
0
LINE
8
0
10
190802.490223
20
18638.393351
30
0.0
11
192012.733915
21
19214.214213
31
0.0
0
LINE
8
0
10
192012.733915
20
19214.214213
30
0.0
11
192017.028735
21
19205.183467
31
0.0
0
LINE
8
0
10
192626.227768
20
19484.235034
30
0.0
11
192611.272431
21
19515.681722
31
0.0
0
LINE
8
0
10
192626.227768
20
19484.235034
30
0.0
11
192707.492931
21
19522.912816
31
0.0
0
LINE
8
0
10
192611.272431
20
19515.681722
30
0.0
11
192692.537281
21
19554.359354
31
0.0
0
LINE
8
0
10
192692.537594
20
19554.359503
30
0.0
11
192707.492931
21
19522.912816
31
0.0
0
LINE
8
0
10
192096.803499
20
19247.535186
30
0.0
11
192096.916152
21
19247.589135
31
0.0
0
LINE
8
0
10
192088.275985
20
19265.626530
30
0.0
11
192096.916152
21
19247.589135
31
0.0
0
LINE
8
0
10
192088.275985
20
19265.626530
30
0.0
11
192088.163333
21
19265.572580
31
0.0
0
LINE
8
0
10
192096.803499
20
19247.535186
30
0.0
11
192088.163333
21
19265.572580
31
0.0
0
LINE
8
0
10
192611.034035
20
19515.562973
30
0.0
11
192611.116212
21
19515.602324
31
0.0
0
LINE
8
0
10
192611.116212
20
19515.602324
30
0.0
11
192619.756378
21
19497.564929
31
0.0
0
LINE
8
0
10
192619.756378
20
19497.564929
30
0.0
11
192619.674201
21
19497.525578
31
0.0
0
LINE
8
0
10
192611.034035
20
19515.562973
30
0.0
11
192619.674201
21
19497.525578
31
0.0
0
LINE
8
0
10
192088.260084
20
19265.319544
30
0.0
11
192088.342263
21
19265.358889
31
0.0
0
LINE
8
0
10
192611.096815
20
19515.642836
30
0.0
11
192088.342263
21
19265.358889
31
0.0
0
LINE
8
0
10
192619.736982
20
19497.605441
30
0.0
11
192096.982430
21
19247.321494
31
0.0
0
LINE
8
0
10
192096.982430
20
19247.321494
30
0.0
11
192096.900251
21
19247.282149
31
0.0
0
LINE
8
0
10
192021.323736
20
19196.152806
30
0.0
11
192006.368399
21
19227.599494
31
0.0
0
LINE
8
0
10
192021.323736
20
19196.152806
30
0.0
11
192102.588899
21
19234.830588
31
0.0
0
LINE
8
0
10
192006.368399
20
19227.599494
30
0.0
11
192087.633218
21
19266.277111
31
0.0
0
LINE
8
0
10
192087.633562
20
19266.277275
30
0.0
11
192102.588899
21
19234.830588
31
0.0
0
LINE
8
0
10
190796.720029
20
18650.314292
30
0.0
11
190811.760217
21
18618.908099
31
0.0
0
LINE
8
0
10
190796.720029
20
18650.314292
30
0.0
11
190733.586161
21
18620.079961
31
0.0
0
LINE
8
0
10
190811.760217
20
18618.908099
30
0.0
11
190748.626349
21
18588.673768
31
0.0
0
LINE
8
0
10
190733.586161
20
18620.079961
30
0.0
11
190748.626349
21
18588.673768
31
0.0
0
LINE
8
0
10
195315.335108
20
20792.075936
30
0.0
11
195319.654298
21
20783.056812
31
0.0
0
LINE
8
0
10
195315.335108
20
20792.075936
30
0.0
11
194106.450688
21
20213.406844
31
0.0
0
LINE
8
0
10
195319.654298
20
20783.056812
30
0.0
11
194110.769875
21
20204.387726
31
0.0
0
LINE
8
0
10
194106.450688
20
20213.406844
30
0.0
11
194110.769875
21
20204.387726
31
0.0
0
LINE
8
0
10
193495.609929
20
19937.717559
30
0.0
11
193510.650118
21
19906.311366
31
0.0
0
LINE
8
0
10
193495.609929
20
19937.717559
30
0.0
11
193414.426482
21
19898.869356
31
0.0
0
LINE
8
0
10
193510.650118
20
19906.311366
30
0.0
11
193429.466358
21
19867.463013
31
0.0
0
LINE
8
0
10
193414.426169
20
19898.869206
30
0.0
11
193429.466358
21
19867.463013
31
0.0
0
LINE
8
0
10
194019.079547
20
20187.071264
30
0.0
11
194018.966748
21
20187.017622
31
0.0
0
LINE
8
0
10
194027.554608
20
20168.955264
30
0.0
11
194018.966748
21
20187.017622
31
0.0
0
LINE
8
0
10
194027.554608
20
20168.955264
30
0.0
11
194027.667406
21
20169.008908
31
0.0
0
LINE
8
0
10
194019.079547
20
20187.071264
30
0.0
11
194027.667406
21
20169.008908
31
0.0
0
LINE
8
0
10
193504.440055
20
19919.765841
30
0.0
11
193504.357775
21
19919.726707
31
0.0
0
LINE
8
0
10
193504.357775
20
19919.726707
30
0.0
11
193495.769915
21
19937.789065
31
0.0
0
LINE
8
0
10
193495.769915
20
19937.789065
30
0.0
11
193495.852195
21
19937.828199
31
0.0
0
LINE
8
0
10
193504.440055
20
19919.765841
30
0.0
11
193495.852195
21
19937.828199
31
0.0
0
LINE
8
0
10
194027.803264
20
20168.774533
30
0.0
11
194027.720986
21
20168.735395
31
0.0
0
LINE
8
0
10
193504.338480
20
19919.767268
30
0.0
11
194027.720986
21
20168.735395
31
0.0
0
LINE
8
0
10
193495.750621
20
19937.829626
30
0.0
11
194019.133127
21
20186.797753
31
0.0
0
LINE
8
0
10
194019.133127
20
20186.797753
30
0.0
11
194019.215405
21
20186.836891
31
0.0
0
LINE
8
0
10
194100.048692
20
20226.774715
30
0.0
11
194115.088881
21
20195.368522
31
0.0
0
LINE
8
0
10
194100.048692
20
20226.774715
30
0.0
11
194018.865276
21
20187.926527
31
0.0
0
LINE
8
0
10
194115.088881
20
20195.368522
30
0.0
11
194033.905121
21
20156.520169
31
0.0
0
LINE
8
0
10
194018.864932
20
20187.926363
30
0.0
11
194033.905121
21
20156.520169
31
0.0
0
LINE
8
0
10
195324.652390
20
20772.613252
30
0.0
11
195309.697052
21
20804.059939
31
0.0
0
LINE
8
0
10
195324.652390
20
20772.613252
30
0.0
11
195387.867659
21
20802.677013
31
0.0
0
LINE
8
0
10
195309.697052
20
20804.059939
30
0.0
11
195372.912322
21
20834.123700
31
0.0
0
LINE
8
0
10
195372.912322
20
20834.123700
30
0.0
11
195387.867659
21
20802.677013
31
0.0
0
LINE
8
0
10
157022.215310
20
42544.785811
30
0.0
11
157028.254639
21
42536.815460
31
0.0
0
LINE
8
0
10
157022.215310
20
42544.785812
30
0.0
11
156532.241979
21
42174.262258
31
0.0
0
LINE
8
0
10
157028.254639
20
42536.815460
30
0.0
11
156538.281305
21
42166.291912
31
0.0
0
LINE
8
0
10
156538.281305
20
42166.291912
30
0.0
11
156532.241979
21
42174.262258
31
0.0
0
LINE
8
0
10
156526.202488
20
42182.232478
30
0.0
11
156547.232508
21
42154.478296
31
0.0
0
LINE
8
0
10
156526.202488
20
42182.232478
30
0.0
11
156451.854015
21
42125.853647
31
0.0
0
LINE
8
0
10
156547.232508
20
42154.478296
30
0.0
11
156472.884350
21
42098.099704
31
0.0
0
LINE
8
0
10
156472.884035
20
42098.099465
30
0.0
11
156451.854015
21
42125.853647
31
0.0
0
LINE
8
0
10
156472.114063
20
42098.599490
30
0.0
11
156459.989195
21
42114.505079
31
0.0
0
LINE
8
0
10
156459.921168
20
42114.594375
30
0.0
11
155994.455741
21
41759.994860
31
0.0
0
LINE
8
0
10
156472.046036
20
42098.688786
30
0.0
11
156006.580609
21
41744.089271
31
0.0
0
LINE
8
0
10
156006.539781
20
41744.142865
30
0.0
11
155994.414913
21
41760.048454
31
0.0
0
LINE
8
0
10
157036.328212
20
42526.316800
30
0.0
11
157015.220584
21
42554.012007
31
0.0
0
LINE
8
0
10
157036.328212
20
42526.316800
30
0.0
11
157094.053143
21
42570.300752
31
0.0
0
LINE
8
0
10
157015.220584
20
42554.012007
30
0.0
11
157072.945515
21
42597.995959
31
0.0
0
LINE
8
0
10
157094.053143
20
42570.300752
30
0.0
11
157072.945515
21
42597.995959
31
0.0
0
LINE
8
0
10
155985.381409
20
41771.765814
30
0.0
11
156006.411429
21
41744.011632
31
0.0
0
LINE
8
0
10
155985.381409
20
41771.765814
30
0.0
11
155911.032936
21
41715.386983
31
0.0
0
LINE
8
0
10
156006.411429
20
41744.011632
30
0.0
11
155932.063242
21
41687.633018
31
0.0
0
LINE
8
0
10
155932.062956
20
41687.632801
30
0.0
11
155911.032936
21
41715.386983
31
0.0
0
LINE
8
0
10
177859.877195
20
54459.658393
30
0.0
11
177870.693360
21
54455.014776
31
0.0
0
LINE
8
0
10
177870.693360
20
54455.014776
30
0.0
11
178806.224946
21
54053.370527
31
0.0
0
LINE
8
0
10
176594.199998
20
53480.645754
30
0.0
11
176603.509125
21
53487.846447
31
0.0
0
LINE
8
0
10
176603.509125
20
53487.846447
30
0.0
11
177850.566631
21
54452.456589
31
0.0
0
LINE
8
0
10
177850.566631
20
54452.456589
30
0.0
11
177859.877195
21
54459.658393
31
0.0
0
LINE
8
0
10
176749.505671
20
52462.357469
30
0.0
11
176595.974448
21
53469.011274
31
0.0
0
LINE
8
0
10
176595.974448
20
53469.011274
30
0.0
11
176594.199998
21
53480.645754
31
0.0
0
LINE
8
0
10
178788.164921
20
54039.358823
30
0.0
11
177862.803323
21
54436.636874
31
0.0
0
LINE
8
0
10
177862.803323
20
54436.636874
30
0.0
11
176615.745816
21
53472.026732
31
0.0
0
LINE
8
0
10
176615.745816
20
53472.026732
30
0.0
11
176767.582845
21
52476.481200
31
0.0
0
LINE
8
0
10
171326.066268
20
51302.233746
30
0.0
11
171336.882432
21
51297.590129
31
0.0
0
LINE
8
0
10
171336.882432
20
51297.590129
30
0.0
11
172272.414018
21
50895.945880
31
0.0
0
LINE
8
0
10
170060.389071
20
50323.221107
30
0.0
11
170069.698197
21
50330.421800
31
0.0
0
LINE
8
0
10
170069.698197
20
50330.421800
30
0.0
11
171316.755704
21
51295.031941
31
0.0
0
LINE
8
0
10
171316.755704
20
51295.031941
30
0.0
11
171326.066268
21
51302.233746
31
0.0
0
LINE
8
0
10
170215.694743
20
49304.932821
30
0.0
11
170062.163520
21
50311.586626
31
0.0
0
LINE
8
0
10
170062.163520
20
50311.586626
30
0.0
11
170060.389071
21
50323.221107
31
0.0
0
LINE
8
0
10
172254.353994
20
50881.934176
30
0.0
11
171328.992395
21
51279.212226
31
0.0
0
LINE
8
0
10
171328.992395
20
51279.212226
30
0.0
11
170081.934889
21
50314.602085
31
0.0
0
LINE
8
0
10
170081.934889
20
50314.602085
30
0.0
11
170233.771918
21
49319.056553
31
0.0
0
LINE
8
0
10
164792.255341
20
48144.809099
30
0.0
11
164803.071505
21
48140.165482
31
0.0
0
LINE
8
0
10
164803.071505
20
48140.165482
30
0.0
11
165738.603091
21
47738.521233
31
0.0
0
LINE
8
0
10
163526.578144
20
47165.796460
30
0.0
11
163535.887270
21
47172.997152
31
0.0
0
LINE
8
0
10
163535.887270
20
47172.997152
30
0.0
11
164782.944777
21
48137.607294
31
0.0
0
LINE
8
0
10
164782.944777
20
48137.607294
30
0.0
11
164792.255341
21
48144.809099
31
0.0
0
LINE
8
0
10
163681.883816
20
46147.508174
30
0.0
11
163528.352593
21
47154.161979
31
0.0
0
LINE
8
0
10
163528.352593
20
47154.161979
30
0.0
11
163526.578144
21
47165.796460
31
0.0
0
LINE
8
0
10
165720.543066
20
47724.509529
30
0.0
11
164795.181468
21
48121.787579
31
0.0
0
LINE
8
0
10
164795.181468
20
48121.787579
30
0.0
11
163548.123961
21
47157.177437
31
0.0
0
LINE
8
0
10
163548.123961
20
47157.177437
30
0.0
11
163699.960990
21
46161.631905
31
0.0
0
LINE
8
0
10
158258.444413
20
44987.384452
30
0.0
11
158269.260578
21
44982.740835
31
0.0
0
LINE
8
0
10
158269.260578
20
44982.740835
30
0.0
11
159204.792164
21
44581.096585
31
0.0
0
LINE
8
0
10
156992.767216
20
44008.371813
30
0.0
11
157002.076343
21
44015.572505
31
0.0
0
LINE
8
0
10
157002.076343
20
44015.572505
30
0.0
11
158249.133849
21
44980.182647
31
0.0
0
LINE
8
0
10
158249.133849
20
44980.182647
30
0.0
11
158258.444413
21
44987.384452
31
0.0
0
LINE
8
0
10
157148.072888
20
42990.083527
30
0.0
11
156994.541665
21
43996.737332
31
0.0
0
LINE
8
0
10
156994.541665
20
43996.737332
30
0.0
11
156992.767216
21
44008.371813
31
0.0
0
LINE
8
0
10
159186.732139
20
44567.084881
30
0.0
11
158261.370540
21
44964.362932
31
0.0
0
LINE
8
0
10
158261.370540
20
44964.362932
30
0.0
11
157014.313034
21
43999.752790
31
0.0
0
LINE
8
0
10
157014.313034
20
43999.752790
30
0.0
11
157166.150063
21
43004.207258
31
0.0
0
ENDSEC
0
EOF